<?xml version="1.0" encoding="UTF-8"?>
<svg width="14px" height="14px" viewBox="0 0 14 14" version="1.1" xmlns="http://www.w3.org/2000/svg" xmlns:xlink="http://www.w3.org/1999/xlink">
    <!-- Generator: sketchtool 55.2 (78181) - https://sketchapp.com -->
    <title>DAD0007C-4F56-45B8-916C-84926A465D84</title>
    <desc>Created with sketchtool.</desc>
    <g id="📄inspiration-—-✅" stroke="none" stroke-width="1" fill="none" fill-rule="evenodd">
        <g id="We-Are-All-In" transform="translate(-323.000000, -10662.000000)">
            <g id="Section-6" transform="translate(282.000000, 9711.000000)">
                <g id="icons" transform="translate(41.000000, 700.000000)">
                    <g id="asset/icon-gift-filled" transform="translate(0.000000, 251.000000)">
                        <g id="dls-icon-gift-filled">
                            <rect id="bounding" x="0" y="0" width="14" height="14"></rect>
                            <path d="M12.218099,3.5 L10.3853735,3.5 C10.4593049,3.29168204 10.5,3.07108054 10.5,2.84375 C10.5,1.75811767 9.61674,0.875 8.53125,0.875 C7.91311383,0.875 7.36125425,1.16193146 7.00001779,1.60900892 C6.63883471,1.16193146 6.08697513,0.875 5.46875,0.875 C4.38311767,0.875 3.5,1.75811767 3.5,2.84375 C3.5,3.07109833 3.54067729,3.29168204 3.61460867,3.5 L1.78190104,3.5 C1.28310904,3.5 0.875,3.90810904 0.875,4.40690104 L0.875,5.25 C0.875,5.72116329 1.25241842,6.10846192 1.71987929,6.12448375 C1.73664867,6.12505338 1.75,6.13803108 1.75,6.15481825 L1.75,12.218099 C1.75,12.716891 2.15810904,13.125 2.65690104,13.125 L11.343099,13.125 C11.841891,13.125 12.25,12.716891 12.25,12.218099 L12.25,6.15481825 C12.25,6.13803108 12.2633513,6.12505338 12.2801207,6.12448375 C12.7475816,6.10846192 13.125,5.72116329 13.125,5.25 L13.125,4.40690104 C13.125,3.90810904 12.716891,3.5 12.218099,3.5 Z M8.53125,1.75 C9.13423671,1.75 9.625,2.24062096 9.625,2.84375 C9.625,3.08300767 9.547811,3.31087225 9.40482579,3.5 L7.4375,3.5 L7.4375,2.84375 C7.4375,2.24062096 7.92826329,1.75 8.53125,1.75 Z M4.375,2.84375 C4.375,2.24062096 4.86562096,1.75 5.46875,1.75 C6.07187904,1.75 6.5625,2.24062096 6.5625,2.84375 L6.5625,3.5 L4.59531654,3.5 C4.45233162,3.31087225 4.375,3.08300767 4.375,2.84375 Z M5.6875,12.218099 C5.6875,12.2357229 5.67322292,12.25 5.65559896,12.25 L2.65690104,12.25 C2.63927708,12.25 2.625,12.2357229 2.625,12.218099 L2.625,6.15690104 C2.625,6.13927708 2.63927708,6.125 2.65690104,6.125 L5.65559896,6.125 C5.67322292,6.125 5.6875,6.13927708 5.6875,6.15690104 L5.6875,12.218099 Z M5.6875,5.21809896 C5.6875,5.23572292 5.67322292,5.25 5.65559896,5.25 L2.625,5.25 L1.78190104,5.25 C1.76427708,5.25 1.75,5.23572292 1.75,5.21809896 L1.75,4.40690104 C1.75,4.38927708 1.76427708,4.375 1.78190104,4.375 L4.39906833,4.375 L5.65559896,4.375 C5.67322292,4.375 5.6875,4.38927708 5.6875,4.40690104 L5.6875,5.21809896 Z M11.375,12.218099 C11.375,12.2357229 11.3607229,12.25 11.343099,12.25 L8.34440104,12.25 C8.32677708,12.25 8.3125,12.2357229 8.3125,12.218099 L8.3125,6.15690104 C8.3125,6.13927708 8.32677708,6.125 8.34440104,6.125 L11.343099,6.125 C11.3607229,6.125 11.375,6.13927708 11.375,6.15690104 L11.375,12.218099 Z M12.25,5.21809896 C12.25,5.23572292 12.2357229,5.25 12.218099,5.25 L11.375,5.25 L8.34440104,5.25 C8.32677708,5.25 8.3125,5.23572292 8.3125,5.21809896 L8.3125,4.40690104 C8.3125,4.38927708 8.32677708,4.375 8.34440104,4.375 L9.60107429,4.375 L12.218099,4.375 C12.2357229,4.375 12.25,4.38927708 12.25,4.40690104 L12.25,5.21809896 Z" fill="#000000"></path>
                        </g>
                    </g>
                </g>
            </g>
        </g>
    </g>
</svg>