<?xml version="1.0" encoding="UTF-8"?>
<svg width="14px" height="10px" viewBox="0 0 14 10" version="1.1" xmlns="http://www.w3.org/2000/svg" xmlns:xlink="http://www.w3.org/1999/xlink">
    <!-- Generator: sketchtool 55.2 (78181) - https://sketchapp.com -->
    <title>B5F8F82F-AAE1-44A3-8E4D-FEED6CF0ACC8</title>
    <desc>Created with sketchtool.</desc>
    <g id="📄inspiration-—-✅" stroke="none" stroke-width="1" fill="none" fill-rule="evenodd">
        <g id="We-Are-All-In" transform="translate(-323.000000, -10521.000000)">
            <g id="Section-6" transform="translate(282.000000, 9711.000000)">
                <g id="icons" transform="translate(41.000000, 700.000000)">
                    <g id="asset/icon/icon-hotel-filled" transform="translate(0.000000, 108.000000)">
                        <g id="dls-icon-hotel-filled">
                            <rect id="bounding" x="0" y="0" width="14" height="14"></rect>
                            <path d="M13.5625,5.25 C13.3209635,5.25 13.125,5.44582121 13.125,5.6875 L13.125,6.12487546 L11.8777441,6.12487546 C11.9267528,5.98739108 11.9583333,5.84159333 11.9583333,5.6875 C11.9583333,4.96378079 11.3695525,4.375 10.6458333,4.375 L4.52083333,4.375 C4.27361812,4.375 4.04470325,4.44775654 3.84706613,4.56708262 C3.78157296,4.45884688 3.70673363,4.35486596 3.61336238,4.261495 C3.31058758,3.95857758 2.90783704,3.79166667 2.47916667,3.79166667 C2.05049629,3.79166667 1.64774575,3.95857758 1.34497067,4.261495 C1.03222642,4.57423896 0.875854583,4.98503629 0.875854583,5.39583333 L0.875,5.39583333 L0.875,3.0625 C0.875,2.82082121 0.679036458,2.625 0.4375,2.625 C0.195963542,2.625 0,2.82082121 0,3.0625 L0,6.99987546 L0,9.62487546 L0,10.9375 C0,11.1790365 0.195963542,11.375 0.4375,11.375 C0.679036458,11.375 0.875,11.1790365 0.875,10.9375 L0.875,10.4998755 L13.125,10.4998755 L13.125,10.9375 C13.125,11.1790365 13.3209635,11.375 13.5625,11.375 C13.8040365,11.375 14,11.1790365 14,10.9375 L14,9.62487546 L14,6.99987546 L14,5.6875 C14,5.44582121 13.8040365,5.25 13.5625,5.25 Z M4.52083333,5.25 L10.6458333,5.25 C10.8864618,5.25 11.0833333,5.4468715 11.0833333,5.6875 C11.0833333,5.92770121 10.8870848,6.12419879 10.6470615,6.12487546 L4.51960513,6.12487546 C4.27958183,6.12419879 4.08333333,5.92770121 4.08333333,5.6875 C4.08333333,5.4468715 4.28020483,5.25 4.52083333,5.25 Z M1.96362308,4.88014742 C2.10119642,4.74243175 2.28434238,4.66666667 2.47916667,4.66666667 C2.67399096,4.66666667 2.85713692,4.74243175 2.99471025,4.88014742 C3.27897121,5.164551 3.27897121,5.62711596 2.99471025,5.91151954 C2.71956388,6.18695088 2.23876946,6.18695088 1.96362308,5.91151954 C1.67936183,5.62711596 1.67936183,5.16455071 1.96362308,4.88014742 Z" fill="#000000"></path>
                        </g>
                    </g>
                </g>
            </g>
        </g>
    </g>
</svg>