<svg xmlns="http://www.w3.org/2000/svg" width="48" height="48" viewBox="0 0 48 48">
  <g fill="none" fill-rule="evenodd">
    <rect width="48" height="48"/>
    <path fill="#fff" d="M23.99988,0 C37.254822,0 48,10.745119 48,24.00006 C48,37.254821 37.254822,48.000121 23.99988,48.000121 C10.74512,48.000121 0,37.254821 0,24.00006 C0,10.745119 10.74512,0 23.99988,0 Z M23.99988,45.000121 C35.579411,45.000121 45,35.579531 45,24.00006 C45,12.420589 35.579411,2.999999 23.99988,2.999999 C12.42053,2.999999 3,12.420588 3,24.00006 C3,35.579532 12.42053,45.000121 23.99988,45.000121 Z M20.802919,23.000791 C21.132999,23.38507 21.384951,23.83771 21.558775,24.359701 C21.732605,24.88216 21.819515,25.436849 21.819515,26.02474 C21.819515,26.672201 21.693534,27.275711 21.441585,27.83333 C21.189635,28.391932 20.850764,28.875321 20.424985,29.282551 C19.999206,29.690753 19.504085,30.006182 18.940126,30.227862 C18.376655,30.449541 17.776065,30.55403 17.140325,30.542311 C16.528026,30.542311 15.943065,30.461249 15.385446,30.30012 C14.827825,30.138011 14.332715,29.888991 13.900095,29.553052 C13.468455,29.217113 13.123725,28.800123 12.864935,28.302072 C12.607115,27.804031 12.472355,27.224931 12.460635,26.564771 L15.016295,26.564771 C15.075865,27.140941 15.292664,27.599919 15.664734,27.94172 C16.035836,28.283519 16.510445,28.454419 17.086615,28.454419 C17.422555,28.454419 17.725285,28.38606 17.995795,28.24739 C18.265324,28.109689 18.492865,27.930009 18.679385,27.707349 C18.864926,27.48567 19.009465,27.227859 19.110535,26.93391 C19.213076,26.639961 19.263855,26.33723 19.263855,26.02473 C19.263855,25.700509 19.216003,25.394849 19.120304,25.106759 C19.024112,24.81867 18.880554,24.56672 18.688173,24.3509 C18.496772,24.13508 18.268253,23.967109 18.004583,23.84699 C17.739932,23.726871 17.434272,23.66681 17.086612,23.66681 C16.630561,23.66681 16.25849,23.747858 15.970401,23.90997 C15.682312,24.072082 15.41278,24.32697 15.160831,24.675111 L12.856141,24.675111 L14.098331,17.7088 L21.135931,17.7088 L21.135931,19.814761 L15.934271,19.814761 L15.430361,22.67706 L15.466499,22.712699 C15.814159,22.365049 16.186229,22.116019 16.58271,21.966119 C16.978219,21.816218 17.428409,21.741019 17.932319,21.741019 C18.556339,21.741019 19.107608,21.855281 19.588079,22.08282 C20.067569,22.310852 20.472839,22.617002 20.802919,23.000791 Z M35.17902,17.456851 L31.05695,23.595031 L35.539371,30.308902 L32.173161,30.308902 L29.36554,25.862611 L26.503229,30.308902 L23.33527,30.308902 L27.81671,23.57696 L23.677059,17.456851 L26.95343,17.456851 L29.47296,21.560849 L32.083309,17.456851 L35.17902,17.456851 Z"/>
  </g>
</svg>
