<svg xmlns="http://www.w3.org/2000/svg" width="48" height="48" viewBox="0 0 48 48">
  <g fill="none" fill-rule="evenodd">
    <rect width="48" height="48"/>
    <path fill="#FFF" d="M24.2818538,6.499998 C26.6413228,6.499998 30.6435542,7.384498 30.9382813,13.308286 L30.9438111,13.408635 L30.9540171,13.500135 C31.1748065,15.478997 31.1073363,21.149134 28.1827308,23.589572 L26.9149734,24.647449 L27.1304952,26.283811 C27.1937516,26.764011 27.2714669,27.059637 27.3282078,27.275485 L27.3399919,27.320989 C27.9457192,30.365634 28.8358316,32.002529 30.3030417,32.769775 C30.6412977,32.952564 34.8850618,35.250801 39.280578,37.855686 C41.2019695,38.978752 41.7433418,39.918934 41.9436822,41.5 L6.06084994,41.5 C6.26808105,39.951954 6.82940297,38.975315 8.73410409,37.8465 C13.1123774,35.251831 17.3519607,32.954956 17.6943565,32.769859 C19.3906877,31.883403 20.0931824,29.9746 20.6078003,27.382471 C20.6229167,27.327467 20.6357225,27.283136 20.6473745,27.242649 C20.7078409,27.032535 20.7521463,26.878937 20.8306381,26.499273 L21.1942125,24.740585 L19.8148166,23.589573 C16.890211,21.149136 16.8227398,15.478998 17.0425905,13.508199 L17.0542736,13.408524 L17.059265,13.308287 C17.1611088,11.261212 18.014445,6.499962 23.7244475,6.499999 C23.7722423,6.499999 23.8092927,6.500586 23.831571,6.501649 L23.9971716,6.510274 L24.1571303,6.502136 C24.1841878,6.50076 24.2263787,6.499998 24.2818538,6.499998 L24.2818538,6.499998 Z M24.2818578,3.5 C24.1545445,3.5 24.0586978,3.503152 23.9988367,3.50631 C23.942346,3.503155 23.8491411,3.500001 23.7244515,3.5 C22.0299966,3.499989 14.5125086,4.082314 14.0609079,13.159309 C14.0609079,13.159309 13.0429348,21.847158 17.8906591,25.892322 C17.8070277,26.296871 17.7789075,26.335384 17.681942,26.703121 C17.4395878,27.944309 17.0180857,29.749996 16.2909011,30.117733 C16.2909011,30.117733 11.8565973,32.508173 7.20280602,35.266123 C4.05484735,37.131746 3.20898031,39.165411 3,41.938147 C3.15285282,43.3758 4.35694151,44.499999 5.83721859,44.499999 L42.1610282,44.499999 C43.6473725,44.499999 44.8551897,43.366599 45,41.920447 C44.795797,39.156787 43.9813265,37.127799 40.7962693,35.266123 C36.1425881,32.508173 31.7066472,30.117733 31.7066472,30.117733 C30.9794606,29.749996 30.5111765,27.897434 30.2686992,26.656246 C30.2061563,26.406246 30.1553074,26.259947 30.1068872,25.892322 C34.9546135,21.847158 33.9366394,13.159309 33.9366394,13.159309 C33.4850678,4.08291 26.010307,3.5 24.2818578,3.5 L24.2818578,3.5 Z"/>
  </g>
</svg>
