<?xml version="1.0" encoding="UTF-8"?>
<svg width="14px" height="14px" viewBox="0 0 14 14" version="1.1" xmlns="http://www.w3.org/2000/svg" xmlns:xlink="http://www.w3.org/1999/xlink">
    <!-- Generator: sketchtool 55.2 (78181) - https://sketchapp.com -->
    <title>D8AF4DDC-2AC2-4A9E-A955-28D661A21D6B</title>
    <desc>Created with sketchtool.</desc>
    <g id="📄inspiration-—-✅" stroke="none" stroke-width="1" fill="none" fill-rule="evenodd">
        <g id="We-Are-All-In" transform="translate(-323.000000, -11023.000000)">
            <g id="Section-6" transform="translate(282.000000, 9711.000000)">
                <g id="icons" transform="translate(41.000000, 700.000000)">
                    <g id="asset/icon-rewards-filled" transform="translate(0.000000, 612.000000)">
                        <g id="dls-icon-rewards-filled">
                            <rect id="bounding" x="0" y="0" width="14" height="14"></rect>
                            <path d="M12.6654301,3.0576541 L7.60483185,0.157900313 C7.23769563,-0.0526334375 6.76230466,-0.0526334375 6.39516845,0.157900313 L1.33457021,3.0576541 C0.96113172,3.27174998 0.729166667,3.67073685 0.729166667,4.09878598 L0.729166667,9.8984359 C0.729166667,10.3266244 0.961134653,10.7254719 1.3345705,10.9394243 L6.3954529,13.8393216 C6.57902233,13.9444467 6.78807885,13.9999999 7.00000015,13.9999999 C7.21192144,13.9999999 7.42097797,13.9444467 7.60483185,13.8393219 L12.6651424,10.9394246 C13.0388653,10.7254722 13.2708333,10.3266247 13.2708333,9.89843619 L13.2708333,4.09878598 C13.2708333,3.67073685 13.0388656,3.27174998 12.6654301,3.0576541 Z M9.83813793,6.19149898 L8.73064079,7.37368669 L9.01977527,9.05135015 C9.04245301,9.18286352 8.98814837,9.31549777 8.87978862,9.39389427 C8.81839608,9.43812319 8.74576408,9.46068156 8.67291683,9.46068156 C8.61678551,9.46068156 8.56065684,9.44745244 8.50910934,9.42056719 L7.00411799,8.6333606 L5.49914452,9.42056719 C5.38069106,9.48256473 5.23705372,9.47207698 5.1284453,9.39389427 C5.02008556,9.31549456 4.96578179,9.18286148 4.98847947,9.05135015 L5.27759665,7.37459348 L4.16277995,6.19240577 C4.07342937,6.09771735 4.044113,5.96164406 4.08672805,5.8388034 C4.12911143,5.71606802 4.23655886,5.62684544 4.36553449,5.60690331 L5.9530029,5.36235948 L6.70261591,4.12262565 C6.76608468,4.01732377 6.88063701,3.95293631 7.00411945,3.95293631 C7.12760189,3.95293631 7.24215482,4.01732085 7.305623,4.12262565 L8.0552539,5.3624674 L9.6346875,5.60701123 C9.7634517,5.62684544 9.87066453,5.71596302 9.91327899,5.83835948 C9.95566032,5.96086181 9.92678998,6.09668427 9.83813793,6.19149898 Z" fill="#000000"></path>
                        </g>
                    </g>
                </g>
            </g>
        </g>
    </g>
</svg>