<svg id="Layer_1" data-name="Layer 1" xmlns="http://www.w3.org/2000/svg" width="63.5" height="69.58" viewBox="0 0 63.5 69.58">
  <title>icon_benefit_out_white-tight</title>
  <g>
    <path id="Fill-1" d="M53.17,6.08V9.79h-3V6.08h-37V9.79H10.25V6.08H0v63.5H63.5V6.08Zm3,6.71V9.08H60.5v57.5H3V9.08H7.25v3.71h9V9.08h31v3.71Z" fill="#fff" fill-rule="evenodd"/>
    <path id="Fill-2" d="M53.17,6.08V9.79h-3V6.08h-37V9.79H10.25V6.08H0V35.16H63.5V6.08Zm3,6.71V9.08H60.5V32.16H3V9.08H7.25v3.71h9V9.08h31v3.71Z" fill="#fff" fill-rule="evenodd"/>
    <polygon id="Fill-3" points="19.5 68.08 22.5 68.08 22.5 33.66 19.5 33.66 19.5 68.08" fill="#fff" fill-rule="evenodd"/>
    <polygon id="Fill-4" points="40 68.08 43 68.08 43 33.66 40 33.66 40 68.08" fill="#fff" fill-rule="evenodd"/>
    <polygon id="Fill-5" points="1.25 52.05 61.79 52.05 61.79 49.05 1.25 49.05 1.25 52.05" fill="#fff" fill-rule="evenodd"/>
    <path id="Fill-6" d="M24,21.46c0-2.33-1.08-3.74-2.79-3.74s-2.79,1.41-2.79,3.74,1.07,3.79,2.79,3.79S24,23.78,24,21.46m-8,0c0-3.9,2.55-5.76,5.23-5.76s5.22,1.86,5.22,5.76-2.55,5.76-5.22,5.76S16,25.36,16,21.46" fill="#fff" fill-rule="evenodd"/>
    <path id="Fill-8" d="M28.1,22.76V15.91h2.44V22.7c0,1.61.62,2.51,2.07,2.51s2-.89,2-2.51V15.91h2.4v6.84c0,2.73-1.38,4.44-4.47,4.44s-4.48-1.71-4.48-4.43" fill="#fff" fill-rule="evenodd"/>
    <polygon id="Fill-10" points="41.73 27.01 41.73 17.95 38.43 17.95 38.43 15.91 47.49 15.91 47.49 17.95 44.18 17.95 44.18 27.01 41.73 27.01" fill="#fff" fill-rule="evenodd"/>
    <path id="Fill-12" d="M10.26,9.79h3V3h-3Zm-3,3h9V0h-9Z" fill="#fff" fill-rule="evenodd"/>
    <path id="Fill-14" d="M50.21,9.79h3V3h-3Zm-3,3h9V0h-9Z" fill="#fff" fill-rule="evenodd"/>
  </g>
</svg>
