<?xml version="1.0" encoding="UTF-8"?>
<svg width="14px" height="14px" viewBox="0 0 14 14" version="1.1" xmlns="http://www.w3.org/2000/svg" xmlns:xlink="http://www.w3.org/1999/xlink">
    <!-- Generator: Sketch 50.2 (55047) - http://www.bohemiancoding.com/sketch -->
    <title>asset/icon/icon_search_location</title>
    <desc>Created with Sketch.</desc>
    <defs></defs>
    <g id="asset/icon/icon_search_location" stroke="none" stroke-width="1" fill="none" fill-rule="evenodd">
        <path d="M7,0.5 C4.38298054,0.5 2.25,2.66532352 2.25,5.32961013 C2.25,6.39004566 3.00522414,8.05493756 4.28114155,10.0300255 C4.75606437,10.765194 5.27616475,11.5020015 5.81085697,12.2126691 C6.16642985,12.6852665 6.47664003,13.0781661 6.71001695,13.3627713 C6.78125051,13.4496399 6.88766903,13.5 7,13.5 C7.11231466,13.5 7.21873264,13.4496392 7.28996906,13.3627669 C7.52325774,13.0782806 7.83354816,12.6852838 8.18913634,12.2126687 C8.7238265,11.5020079 9.24393102,10.765197 9.71885647,10.0300258 C10.9947742,8.05494137 11.75,6.39004665 11.75,5.32961013 C11.75,2.66532373 9.61701909,0.5 7,0.5 Z M7,7.5 C5.75890442,7.5 4.75,6.49109558 4.75,5.25 C4.75,4.00890442 5.75890442,3 7,3 C8.24109558,3 9.25,4.00890442 9.25,5.25 C9.25,6.49109558 8.24109558,7.5 7,7.5 Z" id="Shape" stroke="#333333" fill-rule="nonzero"></path>
    </g>
</svg>