<?xml version="1.0" encoding="UTF-8"?>
<svg width="80px" height="80px" viewBox="0 0 80 80" version="1.1" xmlns="http://www.w3.org/2000/svg" xmlns:xlink="http://www.w3.org/1999/xlink">
    <!-- Generator: Sketch 50.2 (55047) - http://www.bohemiancoding.com/sketch -->
    <title>asset/icon/icon_benefit_unique</title>
    <desc>Created with Sketch.</desc>
    <defs></defs>
    <g id="asset/icon/icon_benefit_unique" stroke="none" stroke-width="1" fill="none" fill-rule="evenodd">
        <path d="M25.125,35.588 L34.318,42.267 L30.807,53.074 L40,46.395 L49.193,53.074 L45.682,42.267 L54.875,35.588 L43.512,35.588 L40,24.78 L36.488,35.588 L25.125,35.588 Z M54.9,60.928 L40,50.104 L25.1,60.928 L30.791,43.413 L15.893,32.588 L34.309,32.588 L40,15.072 L45.691,32.588 L64.107,32.588 L49.209,43.413 L54.9,60.928 Z" id="Fill-4" fill="#333740"></path>
        <path d="M39.9555792,2.98935044 C20.7110904,2.98935044 4.88543046,17.4627888 3.14363134,36.6564115 C1.2991976,56.9790123 16.3336742,75.012767 36.6563247,76.8571962 C37.7813196,76.9588342 38.9212614,77.0106496 40.0442635,77.0106496 C59.2887522,77.0106496 75.1154087,62.5372112 76.8572078,43.3435885 C77.7510257,33.498661 74.7566857,23.895871 68.4262225,16.3029208 C62.0967556,8.70997073 53.1884695,4.03661954 43.343518,3.14280376 C42.218523,3.04116585 41.0785813,2.98935044 39.9555792,2.98935044 M40.0442635,80 C40.043267,80 40.0452599,80 40.0442635,80 C38.8315807,80 37.6009617,79.9441988 36.386286,79.8345893 C14.4224781,77.8406925 -1.82667416,58.3511241 0.165234561,36.3863735 C2.04852995,15.6422744 19.1546315,0 39.9555792,0 C41.1692584,0 42.3998774,0.0558012082 43.6145531,0.166407174 C65.578361,2.15831102 81.8275133,21.6488759 79.8346081,43.6146229 C77.9523092,64.3567292 60.8442147,80 40.0442635,80" id="Fill-1" fill="#333740"></path>
    </g>
</svg>