<?xml version="1.0" encoding="UTF-8"?>
<svg width="113px" height="80px" viewBox="0 0 113 80" version="1.1" xmlns="http://www.w3.org/2000/svg" xmlns:xlink="http://www.w3.org/1999/xlink">
    <!-- Generator: Sketch 50.2 (55047) - http://www.bohemiancoding.com/sketch -->
    <title>asset/icon/icon_benefit_food</title>
    <desc>Created with Sketch.</desc>
    <defs></defs>
    <g id="asset/icon/icon_benefit_food" stroke="none" stroke-width="1" fill="none" fill-rule="evenodd">
        <path d="M58.1294,68.499 C42.4324,68.499 29.6614,55.728 29.6614,40.031 C29.6614,29.161 35.9934,19.087 45.7914,14.369 L46.6594,16.17 C37.5484,20.558 31.6614,29.924 31.6614,40.031 C31.6614,54.625 43.5354,66.499 58.1294,66.499 C70.5104,66.499 81.1114,58.09 83.9104,46.049 L85.8584,46.502 C82.8474,59.453 71.4444,68.499 58.1294,68.499" id="Fill-4" fill="#333740"></path>
        <g id="Group-2" transform="translate(104.000000, 7.000000)" fill="#333740">
            <path d="M2.0239,39.0449 L6.7719,39.0449 C6.6849,24.0759 4.6699,10.1929 2.6799,4.0689 C2.5179,3.5709 2.2839,3.1049 2.0649,2.7569 C2.0419,2.9969 2.0239,3.3089 2.0239,3.7119 L2.0239,39.0449 Z M2.0239,63.6679 L2.8789,63.6679 C3.5419,62.1389 5.2739,57.6609 5.2739,52.7389 C5.2739,49.1999 4.0529,43.1789 3.5949,41.0449 L2.0239,41.0449 L2.0239,63.6679 Z M4.1449,65.6679 L0.0239,65.6679 L0.0239,3.7119 C0.0239,2.7459 0.0239,0.4839 1.5629,0.2409 C3.4169,-0.0631 4.5359,3.3079 4.5829,3.4509 C6.6019,9.6639 8.7739,23.7649 8.7739,40.0449 L8.7739,41.0449 L5.6409,41.0449 C6.1669,43.5249 7.2739,49.1839 7.2739,52.7389 C7.2739,59.2739 4.5379,64.8759 4.4199,65.1109 L4.1449,65.6679 Z" id="Fill-6"></path>
        </g>
        <g id="Group" transform="translate(0.000000, 10.000000)" fill="#333740">
            <path d="M6.2153,20.3179 C5.9553,24.3659 4.9533,40.6789 4.9533,51.4829 L4.9533,56.1029 C4.9533,56.8869 5.5913,57.5249 6.3753,57.5249 C7.1593,57.5249 7.7973,56.8869 7.7973,56.1029 L7.7973,51.6699 C7.7973,48.4249 6.9393,25.3439 6.7513,20.3179 L6.2153,20.3179 Z M6.3753,59.5249 C4.5843,59.5249 3.1103,58.1409 2.9653,56.3869 L2.9533,56.3869 L2.9533,51.4829 C2.9533,39.0649 4.2673,19.4469 4.2803,19.2509 L4.3433,18.3179 L8.6773,18.3179 L8.7143,19.2799 C8.7573,20.4509 9.7973,48.0059 9.7973,51.6699 L9.7943,56.2269 C9.7293,58.0569 8.2203,59.5249 6.3753,59.5249 Z" id="Fill-8"></path>
            <path d="M1.25,2.855 L1.25,13.774 C1.25,17.363 5.567,17.666 6.375,17.69 C7.172,17.666 11.438,17.363 11.438,13.774 L11.438,2.855 L10.376,2.855 L10.393,11.245 C10.396,11.288 10.408,11.899 9.951,12.369 C9.729,12.597 9.331,12.878 8.616,12.857 C7.932,12.848 7.535,12.564 7.322,12.329 C6.862,11.818 6.907,11.157 6.914,11.083 L6.911,1.835 L5.838,1.835 L5.831,11.102 C5.84,11.771 5.39,12.801 4.108,12.857 C3.465,12.885 3.069,12.636 2.847,12.421 C2.333,11.926 2.323,11.214 2.324,11.134 L2.324,2.855 L1.25,2.855 Z M6.497,18.943 C6.417,18.943 6.333,18.942 6.254,18.943 L6.254,18.939 C3.958,18.864 0,17.72 0,13.774 L0,1.605 L3.574,1.605 L3.574,11.139 C3.575,11.202 3.604,11.418 3.718,11.524 C3.785,11.587 3.903,11.62 4.053,11.608 C4.397,11.593 4.574,11.422 4.581,11.1 L4.589,0.585 L8.161,0.585 L8.161,11.139 C8.157,11.236 8.168,11.404 8.254,11.495 C8.337,11.584 8.507,11.605 8.634,11.607 C8.853,11.62 8.979,11.573 9.051,11.501 C9.14,11.415 9.143,11.261 9.143,11.259 L9.124,1.605 L12.688,1.605 L12.688,13.774 C12.688,17.719 8.907,18.867 6.497,18.939 L6.497,18.943 Z" id="Fill-10"></path>
        </g>
        <path d="M56.9555792,2.98935044 C37.7110904,2.98935044 21.8854305,17.4627888 20.1436313,36.6564115 C18.2991976,56.9790123 33.3336742,75.012767 53.6563247,76.8571962 C54.7813196,76.9588342 55.9212614,77.0106496 57.0442635,77.0106496 C76.2887522,77.0106496 92.1154087,62.5372112 93.8572078,43.3435885 C94.7510257,33.498661 91.7566857,23.895871 85.4262225,16.3029208 C79.0967556,8.70997073 70.1884695,4.03661954 60.343518,3.14280376 C59.218523,3.04116585 58.0785813,2.98935044 56.9555792,2.98935044 M57.0442635,80 C57.043267,80 57.0452599,80 57.0442635,80 C55.8315807,80 54.6009617,79.9441988 53.386286,79.8345893 C31.4224781,77.8406925 15.1733258,58.3511241 17.1652346,36.3863735 C19.0485299,15.6422744 36.1546315,0 56.9555792,0 C58.1692584,0 59.3998774,0.0558012082 60.6145531,0.166407174 C82.578361,2.15831102 98.8275133,21.6488759 96.8346081,43.6146229 C94.9523092,64.3567292 77.8442147,80 57.0442635,80" id="Fill-1" fill="#333740"></path>
    </g>
</svg>