<?xml version="1.0" encoding="UTF-8"?>
<svg width="80px" height="80px" viewBox="0 0 80 80" version="1.1" xmlns="http://www.w3.org/2000/svg" xmlns:xlink="http://www.w3.org/1999/xlink">
    <!-- Generator: Sketch 50.2 (55047) - http://www.bohemiancoding.com/sketch -->
    <title>asset/icon/icon_benefit_wifi</title>
    <desc>Created with Sketch.</desc>
    <defs></defs>
    <g id="asset/icon/icon_benefit_wifi" stroke="none" stroke-width="1" fill="none" fill-rule="evenodd">
        <path d="M32.2659,49.5176 C32.2659,51.8526 30.3729,53.7446 28.0389,53.7446 C25.7039,53.7446 23.8119,51.8526 23.8119,49.5176 C23.8119,47.1826 25.7039,45.2896 28.0389,45.2896 C30.3729,45.2896 32.2659,47.1826 32.2659,49.5176" id="Fill-4" fill="#333740"></path>
        <path d="M45.9012,53.7441 L41.6732,53.7441 C41.6732,47.5031 40.0442,42.8531 36.8292,39.9281 C32.3662,35.8641 26.1482,35.8621 26.0862,35.8701 L26.0632,31.6631 C26.3932,31.6311 33.7512,31.4461 39.6322,36.7621 C43.7922,40.5221 45.9012,46.2361 45.9012,53.7441" id="Fill-6" fill="#333740"></path>
        <path d="M58.0076,53.4883 C58.0076,53.4883 53.7806,53.4533 53.7796,53.4533 C53.9736,53.4553 53.4506,47.4923 53.3616,46.9133 C53.0726,45.0093 52.6096,43.1283 51.8986,41.3363 C48.2226,32.0733 37.5816,26.0283 27.9096,25.3893 C27.2956,25.3493 26.6786,25.3303 26.0636,25.3463 C26.0636,24.6213 26.0466,22.1213 26.0636,21.1633 C31.2476,20.6213 59.1636,23.7053 58.0076,53.4883" id="Fill-8" fill="#333740"></path>
        <path d="M39.9555792,2.98935044 C20.7110904,2.98935044 4.88543046,17.4627888 3.14363134,36.6564115 C1.2991976,56.9790123 16.3336742,75.012767 36.6563247,76.8571962 C37.7813196,76.9588342 38.9212614,77.0106496 40.0442635,77.0106496 C59.2887522,77.0106496 75.1154087,62.5372112 76.8572078,43.3435885 C77.7510257,33.498661 74.7566857,23.895871 68.4262225,16.3029208 C62.0967556,8.70997073 53.1884695,4.03661954 43.343518,3.14280376 C42.218523,3.04116585 41.0785813,2.98935044 39.9555792,2.98935044 M40.0442635,80 C40.043267,80 40.0452599,80 40.0442635,80 C38.8315807,80 37.6009617,79.9441988 36.386286,79.8345893 C14.4224781,77.8406925 -1.82667416,58.3511241 0.165234561,36.3863735 C2.04852995,15.6422744 19.1546315,0 39.9555792,0 C41.1692584,0 42.3998774,0.0558012082 43.6145531,0.166407174 C65.578361,2.15831102 81.8275133,21.6488759 79.8346081,43.6146229 C77.9523092,64.3567292 60.8442147,80 40.0442635,80" id="Fill-1" fill="#333740"></path>
    </g>
</svg>