<?xml version="1.0" encoding="UTF-8"?>
<svg width="80px" height="80px" viewBox="0 0 80 80" version="1.1" xmlns="http://www.w3.org/2000/svg" xmlns:xlink="http://www.w3.org/1999/xlink">
    <!-- Generator: Sketch 50.2 (55047) - http://www.bohemiancoding.com/sketch -->
    <title>asset/icon/icon_benefit_out</title>
    <desc>Created with Sketch.</desc>
    <defs></defs>
    <g id="asset/icon/icon_benefit_out" stroke="none" stroke-width="1" fill="none" fill-rule="evenodd">
        <path d="M61.42,9.4996 L61.42,13.2106 L58.46,13.2106 L58.46,9.4996 L21.45,9.4996 L21.45,13.2106 L18.5,13.2106 L18.5,9.4996 L8.25,9.4996 L8.25,72.9996 L71.75,72.9996 L71.75,9.4996 L61.42,9.4996 Z M64.42,16.2096 L64.42,12.5006 L68.75,12.5006 L68.75,70.0006 L11.249,70.0006 L11.249,12.5006 L15.5,12.5006 L15.5,16.2096 L24.45,16.2096 L24.45,12.5006 L55.46,12.5006 L55.46,16.2096 L64.42,16.2096 Z" id="Fill-1" fill="#333740"></path>
        <path d="M61.42,9.4996 L61.42,13.2106 L58.46,13.2106 L58.46,9.4996 L21.45,9.4996 L21.45,13.2106 L18.5,13.2106 L18.5,9.4996 L8.25,9.4996 L8.25,38.5806 L71.75,38.5806 L71.75,9.4996 L61.42,9.4996 Z M64.42,16.2096 L64.42,12.5006 L68.75,12.5006 L68.75,35.5796 L11.249,35.5796 L11.249,12.5006 L15.5,12.5006 L15.5,16.2096 L24.45,16.2096 L24.45,12.5006 L55.46,12.5006 L55.46,16.2096 L64.42,16.2096 Z" id="Fill-2" fill="#333740"></path>
        <polygon id="Fill-3" fill="#333740" points="27.747 71.505 30.747 71.505 30.747 37.078 27.747 37.078"></polygon>
        <polygon id="Fill-4" fill="#333740" points="48.247 71.505 51.247 71.505 51.247 37.078 48.247 37.078"></polygon>
        <polygon id="Fill-5" fill="#333740" points="9.497 55.467 70.037 55.467 70.037 52.467 9.497 52.467"></polygon>
        <path d="M32.2819,24.8789 C32.2819,22.5539 31.2019,21.1449 29.4919,21.1449 C27.7669,21.1449 26.7019,22.5539 26.7019,24.8789 C26.7019,27.2039 27.7669,28.6739 29.4919,28.6739 C31.2019,28.6739 32.2819,27.2039 32.2819,24.8789 M24.2579,24.8789 C24.2579,20.9799 26.8069,19.1189 29.4919,19.1189 C32.1619,19.1189 34.7119,20.9799 34.7119,24.8789 C34.7119,28.7779 32.1619,30.6389 29.4919,30.6389 C26.8069,30.6389 24.2579,28.7779 24.2579,24.8789" id="Fill-6" fill="#333740"></path>
        <path d="M36.3473,26.1836 L36.3473,19.3296 L38.7923,19.3296 L38.7923,26.1236 C38.7923,27.7286 39.4073,28.6286 40.8623,28.6286 C42.3023,28.6286 42.9023,27.7446 42.9023,26.1236 L42.9023,19.3296 L45.3023,19.3296 L45.3023,26.1686 C45.3023,28.8986 43.9213,30.6086 40.8313,30.6086 C37.7423,30.6086 36.3473,28.8986 36.3473,26.1836" id="Fill-8" fill="#333740"></path>
        <polygon id="Fill-10" fill="#333740" points="49.9821 30.4287 49.9821 21.3687 46.6821 21.3687 46.6821 19.3287 55.7421 19.3287 55.7421 21.3687 52.4271 21.3687 52.4271 30.4287"></polygon>
        <path d="M18.5061146,13.21 L21.4561146,13.21 L21.4561146,6.42 L18.5061146,6.42 L18.5061146,13.21 Z M15.5061146,16.21 L24.4561146,16.21 L24.4561146,3.42 L15.5061146,3.42 L15.5061146,16.21 Z" id="Fill-12" fill="#333740"></path>
        <path d="M58.4616733,13.21 L61.4216733,13.21 L61.4216733,6.42 L58.4616733,6.42 L58.4616733,13.21 Z M55.4616733,16.21 L64.4216733,16.21 L64.4216733,3.42 L55.4616733,3.42 L55.4616733,16.21 Z" id="Fill-14" fill="#333740"></path>
    </g>
</svg>