<?xml version="1.0" encoding="UTF-8"?>
<svg width="80px" height="80px" viewBox="0 0 80 80" version="1.1" xmlns="http://www.w3.org/2000/svg" xmlns:xlink="http://www.w3.org/1999/xlink">
    <!-- Generator: Sketch 50.2 (55047) - http://www.bohemiancoding.com/sketch -->
    <title>asset/icon/icon_benefit_upgrade</title>
    <desc>Created with Sketch.</desc>
    <defs></defs>
    <g id="asset/icon/icon_benefit_upgrade" stroke="none" stroke-width="1" fill="none" fill-rule="evenodd">
        <path d="M76.4199142,23.4818914 C79.2009157,29.5861669 80.482875,36.4694431 79.8346081,43.6146229 C77.9523092,64.3567292 60.8442147,80 40.0442635,80 C40.043267,80 40.0452599,80 40.0442635,80 C38.8315807,80 37.6009617,79.9441988 36.386286,79.8345893 C14.4224781,77.8406925 -1.82667416,58.3511241 0.165234561,36.3863735 C2.04852995,15.6422744 19.1546315,0 39.9555792,0 C41.1692584,0 42.3998774,0.0558012082 43.6145531,0.166407174 C48.2060815,0.582814162 52.5478692,1.76394405 56.5254677,3.57254461 C56.3252695,3.75144874 56.129366,3.93663397 55.938,4.128 C55.379745,4.68635655 54.878205,5.28027992 54.43338,5.90254341 C50.948643,4.43201724 47.2186406,3.49462325 43.343518,3.14280376 C42.218523,3.04116585 41.0785813,2.98935044 39.9555792,2.98935044 C20.7110904,2.98935044 4.88543046,17.4627888 3.14363134,36.6564115 C1.2991976,56.9790123 16.3336742,75.012767 36.6563247,76.8571962 C37.7813196,76.9588342 38.9212614,77.0106496 40.0442635,77.0106496 C59.2887522,77.0106496 75.1154087,62.5372112 76.8572078,43.3435885 C77.416904,37.1788341 76.4520194,31.1090239 74.0980969,25.5681871 C74.7232336,25.1197112 75.3161661,24.6168339 75.871,24.062 C76.0600344,23.8729656 76.2430372,23.6795171 76.4199122,23.4818869 Z" id="Combined-Shape" fill="#333740"></path>
        <polygon id="Fill-7" fill="#333740" points="64.194375 15.7875 60.260375 15.7875 60.260375 12.4025 64.194375 12.4025 64.194375 8.2275 67.623375 8.2275 67.623375 12.4025 71.556375 12.4025 71.556375 15.7875 67.623375 15.7875 67.623375 19.9625 64.194375 19.9625"></polygon>
        <g id="Group" transform="translate(18.000000, 21.000000)" fill="#333740">
            <path d="M5.1408,25.9775 L42.6098,25.9775 L42.6098,31.6085 C42.6098,32.1985 43.0908,32.6785 43.6818,32.6785 L43.8038,32.6785 C44.3948,32.6785 44.8758,32.1985 44.8758,31.6085 L44.8758,23.4975 C44.5588,23.6295 44.2058,23.7125 43.8168,23.7125 L7.4608,23.7125 C6.0518,23.7125 5.1408,22.7915 5.1408,21.3675 L5.1408,3.1005 C5.1408,2.5105 4.6608,2.0295 4.0698,2.0295 L3.9468,2.0295 C3.3568,2.0295 2.8758,2.5105 2.8758,3.1005 L2.8758,31.4145 C2.8758,32.0035 3.3568,32.4845 3.9468,32.4845 L4.0698,32.4845 C4.6608,32.4845 5.1408,32.0035 5.1408,31.4145 L5.1408,25.9775 Z M43.8038,34.6785 L43.6818,34.6785 C41.9878,34.6785 40.6098,33.3015 40.6098,31.6085 L40.6098,27.9775 L7.1408,27.9775 L7.1408,31.4145 C7.1408,33.1075 5.7638,34.4845 4.0698,34.4845 L3.9468,34.4845 C2.2538,34.4845 0.8758,33.1075 0.8758,31.4145 L0.8758,3.1005 C0.8758,1.4075 2.2538,0.0295 3.9468,0.0295 L4.0698,0.0295 C5.7638,0.0295 7.1408,1.4075 7.1408,3.1005 L7.1408,21.3675 C7.1408,21.5685 7.1828,21.6555 7.1948,21.6665 C7.2048,21.6765 7.2828,21.7125 7.4608,21.7125 L43.8168,21.7125 C44.3078,21.7125 44.8288,21.0795 45.0048,20.7715 L46.8718,17.5085 L46.8758,31.6085 C46.8758,33.3015 45.4968,34.6785 43.8038,34.6785 Z" id="Fill-9"></path>
            <path d="M43.82,23.7197 L8.32,23.7197 C6.567,23.7197 5.14,22.2887 5.14,20.5307 L5.14,17.4397 C5.14,16.8597 5.297,16.2937 5.594,15.8027 L7.305,16.8377 C7.195,17.0187 7.14,17.2217 7.14,17.4397 L7.14,20.5307 C7.14,21.1867 7.669,21.7197 8.32,21.7197 L43.82,21.7197 C44.471,21.7197 45.001,21.1867 45.001,20.5307 L45.001,17.4397 C45.001,16.7837 44.471,16.2497 43.82,16.2497 L18.67,16.2497 L18.67,14.2497 L43.82,14.2497 C45.573,14.2497 47.001,15.6807 47.001,17.4397 L47.001,20.5307 C47.001,22.2887 45.573,23.7197 43.82,23.7197" id="Fill-11"></path>
            <polygon id="Fill-13" points="17.853 22.194 19.853 22.194 19.853 14.724 17.853 14.724"></polygon>
            <path d="M9.3722,13.5039 C8.1632,13.5039 7.1412,14.2709 7.1412,15.1779 C7.1412,16.0849 8.1632,16.8509 9.3722,16.8509 L15.4452,16.8509 C16.6552,16.8509 17.6772,16.0849 17.6772,15.1779 C17.6772,14.2709 16.6552,13.5039 15.4452,13.5039 L9.3722,13.5039 Z M15.4452,18.8519 L9.3722,18.8519 C7.0392,18.8519 5.1412,17.2029 5.1412,15.1779 C5.1412,13.1519 7.0392,11.5039 9.3722,11.5039 L15.4452,11.5039 C17.7792,11.5039 19.6772,13.1519 19.6772,15.1779 C19.6772,17.2029 17.7792,18.8519 15.4452,18.8519 Z" id="Fill-15"></path>
        </g>
        <path d="M65.905,28.19 C62.14,28.19 58.6,26.724 55.938,24.062 C50.443,18.566 50.443,9.624 55.938,4.128 C58.6,1.466 62.14,0 65.905,0 C69.67,0 73.209,1.466 75.871,4.128 C78.534,6.791 80,10.33 80,14.095 C80,17.86 78.534,21.399 75.871,24.062 C73.209,26.724 69.67,28.19 65.905,28.19 Z M65.905,3 C62.941,3 60.155,4.154 58.059,6.25 C53.734,10.576 53.734,17.615 58.059,21.94 C60.155,24.036 62.941,25.19 65.905,25.19 C68.869,25.19 71.654,24.036 73.75,21.94 C75.845,19.845 77,17.059 77,14.095 C77,11.132 75.845,8.345 73.75,6.25 C71.654,4.154 68.869,3 65.905,3 Z" id="Combined-Shape" fill="#333740"></path>
    </g>
</svg>