<?xml version="1.0" encoding="UTF-8"?>
<svg width="80px" height="80px" viewBox="0 0 80 80" version="1.1" xmlns="http://www.w3.org/2000/svg" xmlns:xlink="http://www.w3.org/1999/xlink">
    <!-- Generator: Sketch 50.2 (55047) - http://www.bohemiancoding.com/sketch -->
    <title>asset/icon/icon_benefit_in</title>
    <desc>Created with Sketch.</desc>
    <defs></defs>
    <g id="asset/icon/icon_benefit_in" stroke="none" stroke-width="1" fill="none" fill-rule="evenodd">
        <polygon id="Fill-6" fill="#333740" points="32.85245 30.2192 35.28245 30.2192 35.28245 19.1192 32.85245 19.1192"></polygon>
        <polygon id="Fill-7" fill="#333740" points="37.77255 30.2189 37.77255 19.1189 40.21755 19.1189 44.86755 26.1989 44.89755 26.1989 44.89755 19.1189 47.14755 19.1189 47.14755 30.2189 44.89755 30.2189 40.05255 23.0789 40.02255 23.0789 40.02255 30.2189"></polygon>
        <path d="M61.42,9.4996 L61.42,13.2106 L58.46,13.2106 L58.46,9.4996 L21.45,9.4996 L21.45,13.2106 L18.5,13.2106 L18.5,9.4996 L8.25,9.4996 L8.25,72.9996 L71.75,72.9996 L71.75,9.4996 L61.42,9.4996 Z M64.42,16.2096 L64.42,12.5006 L68.75,12.5006 L68.75,70.0006 L11.249,70.0006 L11.249,12.5006 L15.5,12.5006 L15.5,16.2096 L24.45,16.2096 L24.45,12.5006 L55.46,12.5006 L55.46,16.2096 L64.42,16.2096 Z" id="Fill-1" fill="#333740"></path>
        <path d="M61.42,9.4996 L61.42,13.2106 L58.46,13.2106 L58.46,9.4996 L21.45,9.4996 L21.45,13.2106 L18.5,13.2106 L18.5,9.4996 L8.25,9.4996 L8.25,38.5806 L71.75,38.5806 L71.75,9.4996 L61.42,9.4996 Z M64.42,16.2096 L64.42,12.5006 L68.75,12.5006 L68.75,35.5796 L11.249,35.5796 L11.249,12.5006 L15.5,12.5006 L15.5,16.2096 L24.45,16.2096 L24.45,12.5006 L55.46,12.5006 L55.46,16.2096 L64.42,16.2096 Z" id="Fill-2" fill="#333740"></path>
        <polygon id="Fill-3" fill="#333740" points="27.747 71.505 30.747 71.505 30.747 37.078 27.747 37.078"></polygon>
        <polygon id="Fill-4" fill="#333740" points="48.247 71.505 51.247 71.505 51.247 37.078 48.247 37.078"></polygon>
        <polygon id="Fill-5" fill="#333740" points="9.497 55.467 70.037 55.467 70.037 52.467 9.497 52.467"></polygon>
        <path d="M18.5061146,13.21 L21.4561146,13.21 L21.4561146,6.42 L18.5061146,6.42 L18.5061146,13.21 Z M15.5061146,16.21 L24.4561146,16.21 L24.4561146,3.42 L15.5061146,3.42 L15.5061146,16.21 Z" id="Fill-12" fill="#333740"></path>
        <path d="M58.4616733,13.21 L61.4216733,13.21 L61.4216733,6.42 L58.4616733,6.42 L58.4616733,13.21 Z M55.4616733,16.21 L64.4216733,16.21 L64.4216733,3.42 L55.4616733,3.42 L55.4616733,16.21 Z" id="Fill-14" fill="#333740"></path>
    </g>
</svg>