<?xml version="1.0" encoding="UTF-8"?>
<svg width="18px" height="14px" viewBox="0 0 18 14" version="1.1" xmlns="http://www.w3.org/2000/svg" xmlns:xlink="http://www.w3.org/1999/xlink">
    <!-- Generator: Sketch 50.2 (55047) - http://www.bohemiancoding.com/sketch -->
    <title>icon_heart</title>
    <desc>Created with Sketch.</desc>
    <defs></defs>
    <g id="icon_heart" stroke="none" stroke-width="1" fill="none" fill-rule="evenodd">
        <path d="M9.00018871,2.61770416 C9.02762071,2.57121616 9.04938871,2.53358416 9.07182871,2.49633616 C9.52302871,1.74698416 10.1381007,1.17453616 10.9254927,0.792096158 C11.3487567,0.586512158 11.7960687,0.458688158 12.2642847,0.402840158 C12.5973807,0.363096158 12.9302847,0.357576158 13.2632127,0.395256158 C14.1532527,0.496032158 14.9439087,0.832704158 15.6247647,1.41480016 C16.3240287,2.01264016 16.7892687,2.76052816 17.0190447,3.65229616 C17.1253887,4.06502416 17.1687567,4.48538416 17.1460287,4.91109616 C17.1295887,5.21923216 17.0537967,5.51750416 16.9844367,5.81695216 C16.9213167,6.08942416 16.8130527,6.34296016 16.6947327,6.59484016 C16.4905167,7.02960016 16.2041727,7.40510416 15.8999487,7.77333616 C15.2885247,8.51342416 14.6210847,9.19862416 13.9224447,9.85497616 C12.9538767,10.7649122 11.9368287,11.6175602 10.8791727,12.4215362 C10.3923087,12.7916402 9.90131671,13.1568002 9.37413271,13.4693042 C9.29690071,13.5150962 9.21566071,13.5540482 9.13641271,13.5964562 C9.03614071,13.6501202 8.94047671,13.6367282 8.84164471,13.5865442 C8.53950871,13.4331842 8.25822871,13.2463202 7.98227671,13.0517042 C6.85034071,12.2532962 5.77725271,11.3811842 4.74155671,10.4620322 C4.09804471,9.89090416 3.47454871,9.29894416 2.88710071,8.67048016 C2.60608471,8.36988016 2.34690871,8.04892816 2.07522871,7.73947216 C1.87569271,7.51216816 1.69067671,7.27483216 1.53165271,7.01690416 C1.19392471,6.46908016 0.979964707,5.87695216 0.885836707,5.24088016 C0.832508707,4.88049616 0.838820707,4.52035216 0.885164707,4.15965616 C0.967148707,3.52171216 1.17933271,2.93083216 1.52654071,2.38989616 C2.03814871,1.59288016 2.73630871,1.01997616 3.61612471,0.670344158 C4.17290071,0.449112158 4.75348471,0.348144158 5.35091671,0.372672158 C6.55000471,0.421944158 7.56287671,0.887736158 8.38278871,1.76534416 C8.59746871,1.99512016 8.78625271,2.24594416 8.94184471,2.52043216 C8.95850071,2.54983216 8.97657271,2.57841616 9.00018871,2.61770416" id="Fill-1-Copy" fill="#585858"></path>
    </g>
</svg>