<?xml version="1.0" encoding="UTF-8"?>
<svg width="14px" height="14px" viewBox="0 0 14 14" version="1.1" xmlns="http://www.w3.org/2000/svg" xmlns:xlink="http://www.w3.org/1999/xlink">
    <!-- Generator: Sketch 50.2 (55047) - http://www.bohemiancoding.com/sketch -->
    <title>asset/icon/icon_search_property</title>
    <desc>Created with Sketch.</desc>
    <defs></defs>
    <g id="asset/icon/icon_search_property" stroke="none" stroke-width="1" fill="none" fill-rule="evenodd">
        <path d="M2,1.5 C1.72385763,1.5 1.5,1.72385763 1.5,2 L1.5,12 C1.5,12.2761424 1.72385763,12.5 2,12.5 L4,12.5 C4.27614237,12.5 4.5,12.2761424 4.5,12 L4.5,10.25 C4.5,9.83578644 4.83578644,9.5 5.25,9.5 L8.75,9.5 C9.16421356,9.5 9.5,9.83578644 9.5,10.25 L9.5,12 C9.5,12.2761424 9.72385763,12.5 10,12.5 L12,12.5 C12.2761424,12.5 12.5,12.2761424 12.5,12 L12.5,2 C12.5,1.72385763 12.2761424,1.5 12,1.5 L2,1.5 Z" id="Rectangle-17" stroke="#333333"></path>
        <rect id="Rectangle-19" fill="#333333" x="4" y="4" width="6" height="1" rx="0.5"></rect>
        <rect id="Rectangle-19-Copy" fill="#333333" x="4" y="6" width="6" height="1" rx="0.5"></rect>
    </g>
</svg>