<?xml version="1.0" encoding="UTF-8"?>
<svg width="230px" height="49px" viewBox="0 0 230 49" version="1.1" xmlns="http://www.w3.org/2000/svg" xmlns:xlink="http://www.w3.org/1999/xlink">
    <!-- Generator: Sketch 50.2 (55047) - http://www.bohemiancoding.com/sketch -->
    <title>asset/gfx/logo_fhr</title>
    <desc>Created with Sketch.</desc>
    <defs></defs>
    <g id="asset/gfx/logo_fhr" stroke="none" stroke-width="1" fill="none" fill-rule="evenodd">
        <g id="Group-67-Copy-2" transform="translate(0.000000, 12.035156)" fill="#FFFFFF">
            <path d="M205.2094,18.1086 C204.9224,18.2256 204.0534,18.2526 203.8554,18.2526 C201.9064,18.1626 201.3254,17.6936 200.5664,16.5376 C200.0444,15.7426 199.4834,14.7136 198.9594,13.7926 C198.6714,13.2516 198.3464,13.0346 197.6434,13.0346 L197.2274,13.0346 L197.2274,15.7616 C197.2274,17.2426 197.3894,17.4036 198.7794,17.5306 L198.7794,18.1086 L193.5804,18.1086 L193.5804,17.5306 C194.9694,17.4036 195.1684,17.2606 195.1684,15.7616 L195.1684,8.7006 C195.1684,7.2206 195.0064,7.0756 193.6504,6.9676 L193.6504,6.3716 L198.5074,6.3716 C199.9894,6.3716 200.8934,6.5526 201.6144,7.0226 C202.3374,7.5096 202.8244,8.3036 202.8244,9.4226 C202.8244,10.9936 201.7954,11.8786 200.5474,12.4026 C200.8364,12.9626 202.2804,17.5316 205.2094,17.5316 L205.2094,18.1086 Z M197.8204,12.3656 C198.6534,12.3656 199.2494,12.2216 199.6644,11.8786 C200.2954,11.3546 200.5664,10.6326 200.5664,9.6946 C200.5664,7.7616 199.4114,7.0386 198.2564,7.0386 C197.7854,7.0386 197.5154,7.1296 197.3894,7.2206 C197.2624,7.3286 197.2274,7.5266 197.2274,7.9426 L197.2274,12.3656 L197.8204,12.3656 Z" id="Fill-29"></path>
            <path d="M157.4341,18.0992 C157.1491,18.2172 156.2811,18.2432 156.0831,18.2432 C154.1331,18.1522 153.5511,17.6832 152.7931,16.5272 C152.2701,15.7332 151.7101,14.7052 151.1861,13.7832 C150.8971,13.2422 150.5731,13.0252 149.8681,13.0252 L149.4531,13.0252 L149.4531,15.7512 C149.4531,17.2322 149.6141,17.3942 151.0061,17.5202 L151.0061,18.0992 L145.8071,18.0992 L145.8071,17.5202 C147.1961,17.3942 147.3931,17.2502 147.3931,15.7512 L147.3931,8.6912 C147.3931,7.2112 147.2331,7.0662 145.8771,6.9582 L145.8771,6.3622 L150.7351,6.3622 C152.2151,6.3622 153.1191,6.5432 153.8411,7.0122 C154.5621,7.4992 155.0511,8.2942 155.0511,9.4132 C155.0511,10.9842 154.0231,11.8692 152.7741,12.3932 C153.0631,12.9532 154.5071,17.5222 157.4341,17.5222 L157.4341,18.0992 Z M150.0481,12.3562 C150.8791,12.3562 151.4751,12.2122 151.8921,11.8692 C152.5221,11.3452 152.7931,10.6232 152.7931,9.6842 C152.7931,7.7522 151.6371,7.0302 150.4831,7.0302 C150.0131,7.0302 149.7411,7.1202 149.6141,7.2112 C149.4891,7.3202 149.4531,7.5182 149.4531,7.9332 L149.4531,12.3562 L150.0481,12.3562 Z" id="Fill-31"></path>
            <path d="M168.0339,15.1561 C167.9269,15.8771 167.5659,17.5571 167.4009,18.0991 L158.3739,18.0991 L158.3739,17.5201 C159.9439,17.3941 160.1079,17.2681 160.1079,15.7511 L160.1079,8.7271 C160.1079,7.1381 159.9439,7.0661 158.6279,6.9581 L158.6279,6.3621 L166.9529,6.3621 C166.9699,6.7231 167.0589,7.9871 167.1319,9.0341 L166.5179,9.1251 C166.3549,8.4381 166.1389,7.9151 165.8509,7.5721 C165.5599,7.2291 165.0729,7.1011 163.9539,7.1011 L162.9069,7.1011 C162.2759,7.1011 162.2209,7.1381 162.2209,7.7171 L162.2209,11.6341 L163.6099,11.6341 C165.1629,11.6341 165.3449,11.5271 165.5799,10.2801 L166.1949,10.2801 L166.1949,13.8551 L165.5799,13.8551 C165.3449,12.5551 165.1629,12.4841 163.6099,12.4841 L162.2209,12.4841 L162.2209,15.6971 C162.2209,16.5641 162.3109,16.9801 162.6549,17.1781 C162.9789,17.3581 163.6099,17.3761 164.3519,17.3761 C165.4519,17.3761 166.0489,17.2501 166.4639,16.7801 C166.8069,16.4021 167.1319,15.8061 167.4389,15.0471 L168.0339,15.1561 Z" id="Fill-33"></path>
            <path d="M176.5402,9.2337 C176.1792,8.0957 175.5652,6.7947 174.0662,6.7947 C172.9282,6.7947 172.2252,7.6267 172.2252,8.6367 C172.2252,9.7567 172.9662,10.3527 174.4992,11.1107 C176.2162,11.9777 177.6592,12.9167 177.6592,14.7947 C177.6592,16.7987 175.9612,18.3687 173.4002,18.3687 C172.7112,18.3687 172.0992,18.2607 171.6102,18.0997 C171.1242,17.9547 170.7982,17.8277 170.5812,17.7197 C170.4192,17.2867 170.1842,15.7687 170.0572,14.7587 L170.6712,14.5767 C170.9972,15.7157 171.9722,17.6647 173.7412,17.6647 C174.9522,17.6647 175.6922,16.8707 175.6922,15.6607 C175.6922,14.5057 174.8262,13.8377 173.4722,13.1337 C171.8622,12.3027 170.3842,11.3447 170.3842,9.5037 C170.3842,7.6267 171.8822,6.0917 174.3542,6.0917 C175.4012,6.0917 176.3242,6.3987 176.7942,6.5437 C176.8662,7.2107 176.9742,7.9687 177.1182,9.1067 L176.5402,9.2337 Z" id="Fill-35"></path>
            <path d="M185.7883,6.1088 C188.9833,6.1088 191.7113,8.5108 191.7113,12.1038 C191.7113,15.9858 188.9293,18.3688 185.5543,18.3688 C182.0693,18.3688 179.5403,15.7508 179.5403,12.2848 C179.5403,9.1428 181.7803,6.1088 185.7693,6.1088 L185.7883,6.1088 Z M185.4093,6.8128 C183.5483,6.8128 181.9773,8.6738 181.9773,11.8868 C181.9773,15.0838 183.5133,17.6478 185.9133,17.6478 C187.7373,17.6478 189.2723,15.9688 189.2723,12.5918 C189.2723,8.9258 187.6303,6.8128 185.4273,6.8128 L185.4093,6.8128 Z" id="Fill-37"></path>
            <path d="M215.2795,9.3416 C215.0615,8.4386 214.8455,8.0246 214.5745,7.7196 C214.2505,7.3576 213.8525,7.2486 212.6785,7.2486 L211.7055,7.2486 L211.7055,15.7516 C211.7055,17.2496 211.8665,17.3946 213.5085,17.5206 L213.5085,18.0996 L207.8735,18.0996 L207.8735,17.5206 C209.4285,17.3946 209.6095,17.2496 209.6095,15.7516 L209.6095,7.2486 L208.7965,7.2486 C207.3175,7.2486 206.9725,7.4116 206.7205,7.7546 C206.4485,8.0606 206.2515,8.4926 206.0345,9.3596 L205.4195,9.3596 C205.4935,8.1316 205.6005,6.8496 205.6375,5.9116 L206.0525,5.9116 C206.3215,6.3266 206.5585,6.3616 207.0635,6.3616 L214.2845,6.3616 C214.7555,6.3616 214.9725,6.2536 215.2795,5.9116 L215.6945,5.9116 C215.6945,6.6876 215.7845,8.1856 215.8755,9.3056 L215.2795,9.3416 Z" id="Fill-39"></path>
            <path d="M224.2835,9.2337 C223.9165,8.0957 223.2905,6.7947 221.7615,6.7947 C220.6015,6.7947 219.8825,7.6267 219.8825,8.6367 C219.8825,9.7567 220.6365,10.3527 222.2035,11.1107 C223.9525,11.9777 225.4275,12.9167 225.4275,14.7947 C225.4275,16.7987 223.6945,18.3687 221.0815,18.3687 C220.3785,18.3687 219.7525,18.2607 219.2565,18.0997 C218.7595,17.9547 218.4285,17.8277 218.2065,17.7197 C218.0405,17.2867 217.8005,15.7687 217.6725,14.7587 L218.2985,14.5767 C218.6305,15.7157 219.6235,17.6647 221.4305,17.6647 C222.6635,17.6647 223.4185,16.8707 223.4185,15.6607 C223.4185,14.5057 222.5355,13.8377 221.1535,13.1337 C219.5125,12.3027 218.0035,11.3447 218.0035,9.5037 C218.0035,7.6267 219.5315,6.0917 222.0555,6.0917 C223.1235,6.0917 224.0635,6.3987 224.5425,6.5437 C224.6145,7.2107 224.7255,7.9687 224.8715,9.1067 L224.2835,9.2337 Z" id="Fill-41"></path>
            <path d="M7.9613,9.18 C7.7823,8.475 7.6013,8.024 7.3123,7.662 C6.9693,7.229 6.5173,7.101 5.3613,7.101 L4.2973,7.101 C3.7013,7.101 3.6293,7.138 3.6293,7.717 L3.6293,11.797 L5.2543,11.797 C6.8593,11.797 7.0043,11.634 7.2223,10.479 L7.8173,10.479 L7.8173,14.036 L7.2223,14.036 C7.0223,12.808 6.8593,12.628 5.2543,12.628 L3.6293,12.628 L3.6293,15.643 C3.6293,17.286 3.7913,17.394 5.3813,17.52 L5.3813,18.099 L0.0003,18.099 L0.0003,17.52 C1.3713,17.394 1.5333,17.286 1.5333,15.643 L1.5333,8.782 C1.5333,7.175 1.3713,7.066 0.0353,6.958 L0.0353,6.362 L8.3593,6.362 C8.3773,6.795 8.4673,8.096 8.5573,9.089 L7.9613,9.18 Z" id="Fill-43"></path>
            <path d="M10.9788,18.0992 L10.9788,17.5202 C12.3698,17.3942 12.5318,17.2862 12.5318,15.7512 L12.5318,8.7272 C12.5318,7.1922 12.3698,7.0662 10.9788,6.9582 L10.9788,6.3622 L16.1618,6.3622 L16.1618,6.9582 C14.7698,7.0662 14.6258,7.1922 14.6258,8.7272 L14.6258,15.7512 C14.6258,17.2682 14.7698,17.3942 16.1618,17.5202 L16.1618,18.0992 L10.9788,18.0992 Z" id="Fill-45"></path>
            <path d="M31.1122,6.94 C30.1372,6.994 29.7392,7.247 29.6492,8.059 C29.5772,8.601 29.5052,9.449 29.5052,11.074 L29.5052,18.279 L28.7472,18.279 L21.1622,9.107 L21.1272,9.107 L21.1272,13.35 C21.1272,14.957 21.1982,15.769 21.2532,16.311 C21.3422,17.16 21.6862,17.448 22.9862,17.52 L22.9862,18.099 L18.6152,18.099 L18.6152,17.52 C19.6272,17.448 20.0612,17.178 20.1502,16.365 C20.2052,15.769 20.2952,14.957 20.2952,13.35 L20.2952,9.504 C20.2952,8.276 20.2782,8.024 19.9342,7.608 C19.5742,7.157 19.1952,7.012 18.3812,6.94 L18.3812,6.362 L21.4872,6.362 L28.6202,14.686 L28.6742,14.686 L28.6742,11.074 C28.6742,9.449 28.5842,8.601 28.5482,8.078 C28.4402,7.302 28.0612,7.012 26.7602,6.94 L26.7602,6.362 L31.1122,6.362 L31.1122,6.94 Z" id="Fill-47"></path>
            <path d="M42.4365,15.1561 C42.3275,15.8771 41.9665,17.5571 41.8035,18.0991 L32.7755,18.0991 L32.7755,17.5201 C34.3485,17.3941 34.5085,17.2681 34.5085,15.7511 L34.5085,8.7271 C34.5085,7.1381 34.3485,7.0661 33.0295,6.9581 L33.0295,6.3621 L41.3525,6.3621 C41.3705,6.7231 41.4605,7.9871 41.5345,9.0341 L40.9185,9.1251 C40.7565,8.4381 40.5395,7.9151 40.2505,7.5721 C39.9635,7.2291 39.4735,7.1011 38.3565,7.1011 L37.3075,7.1011 C36.6765,7.1011 36.6215,7.1381 36.6215,7.7171 L36.6215,11.6341 L38.0125,11.6341 C39.5655,11.6341 39.7455,11.5271 39.9795,10.2801 L40.5945,10.2801 L40.5945,13.8551 L39.9795,13.8551 C39.7455,12.5551 39.5655,12.4841 38.0125,12.4841 L36.6215,12.4841 L36.6215,15.6971 C36.6215,16.5641 36.7115,16.9801 37.0555,17.1781 C37.3795,17.3581 38.0125,17.3761 38.7525,17.3761 C39.8525,17.3761 40.4505,17.2501 40.8665,16.7801 C41.2085,16.4021 41.5345,15.8061 41.8395,15.0471 L42.4365,15.1561 Z" id="Fill-49"></path>
            <path d="M60.3898,6.9581 C58.9638,7.0841 58.8368,7.1751 58.8368,8.7091 L58.8368,15.7691 C58.8368,17.2861 58.9808,17.3941 60.3898,17.5201 L60.3898,18.0991 L55.1178,18.0991 L55.1178,17.5201 C56.5788,17.3941 56.7238,17.2861 56.7238,15.7691 L56.7238,12.3201 L51.3618,12.3201 L51.3618,15.7691 C51.3618,17.2861 51.5068,17.3941 52.8968,17.5201 L52.8968,18.0991 L47.7328,18.0991 L47.7328,17.5201 C49.1058,17.3941 49.2668,17.2861 49.2668,15.7691 L49.2668,8.7091 C49.2668,7.1751 49.1058,7.0661 47.6778,6.9581 L47.6778,6.3621 L52.8428,6.3621 L52.8428,6.9581 C51.5068,7.0661 51.3618,7.1751 51.3618,8.7091 L51.3618,11.4541 L56.7238,11.4541 L56.7238,8.7091 C56.7238,7.1751 56.5988,7.0841 55.2248,6.9581 L55.2248,6.3621 L60.3898,6.3621 L60.3898,6.9581 Z" id="Fill-51"></path>
            <path d="M68.356,6.1088 C71.55,6.1088 74.277,8.5108 74.277,12.1038 C74.277,15.9858 71.497,18.3688 68.122,18.3688 C64.635,18.3688 62.108,15.7508 62.108,12.2848 C62.108,9.1428 64.346,6.1088 68.337,6.1088 L68.356,6.1088 Z M67.977,6.8128 C66.116,6.8128 64.545,8.6738 64.545,11.8868 C64.545,15.0838 66.079,17.6478 68.481,17.6478 C70.305,17.6478 71.839,15.9688 71.839,12.5918 C71.839,8.9258 70.198,6.8128 67.995,6.8128 L67.977,6.8128 Z" id="Fill-53"></path>
            <path d="M85.3131,9.3416 C85.0951,8.4386 84.8781,8.0246 84.6081,7.7196 C84.2841,7.3576 83.8851,7.2486 82.7121,7.2486 L81.7371,7.2486 L81.7371,15.7516 C81.7371,17.2496 81.8991,17.3946 83.5421,17.5206 L83.5421,18.0996 L77.9091,18.0996 L77.9091,17.5206 C79.4631,17.3946 79.6411,17.2496 79.6411,15.7516 L79.6411,7.2486 L78.8291,7.2486 C77.3501,7.2486 77.0061,7.4116 76.7531,7.7546 C76.4811,8.0606 76.2841,8.4926 76.0691,9.3596 L75.4541,9.3596 C75.5261,8.1316 75.6331,6.8496 75.6711,5.9116 L76.0851,5.9116 C76.3561,6.3266 76.5921,6.3616 77.0961,6.3616 L84.3191,6.3616 C84.7901,6.3616 85.0051,6.2536 85.3131,5.9116 L85.7271,5.9116 C85.7271,6.6876 85.8181,8.1856 85.9071,9.3056 L85.3131,9.3416 Z" id="Fill-55"></path>
            <path d="M97.3566,15.1561 C97.2496,15.8771 96.8886,17.5571 96.7256,18.0991 L87.6966,18.0991 L87.6966,17.5201 C89.2686,17.3941 89.4306,17.2681 89.4306,15.7511 L89.4306,8.7271 C89.4306,7.1381 89.2686,7.0661 87.9506,6.9581 L87.9506,6.3621 L96.2746,6.3621 C96.2926,6.7231 96.3816,7.9871 96.4546,9.0341 L95.8406,9.1251 C95.6776,8.4381 95.4616,7.9151 95.1726,7.5721 C94.8846,7.2291 94.3956,7.1011 93.2786,7.1011 L92.2296,7.1011 C91.5986,7.1011 91.5436,7.1381 91.5436,7.7171 L91.5436,11.6341 L92.9326,11.6341 C94.4856,11.6341 94.6676,11.5271 94.9016,10.2801 L95.5166,10.2801 L95.5166,13.8551 L94.9016,13.8551 C94.6676,12.5551 94.4856,12.4841 92.9326,12.4841 L91.5436,12.4841 L91.5436,15.6971 C91.5436,16.5641 91.6336,16.9801 91.9776,17.1781 C92.3016,17.3581 92.9326,17.3761 93.6746,17.3761 C94.7746,17.3761 95.3726,17.2501 95.7866,16.7801 C96.1306,16.4021 96.4546,15.8061 96.7606,15.0471 L97.3566,15.1561 Z" id="Fill-57"></path>
            <path d="M108.2101,15.1193 C108.0661,15.8233 107.7061,17.5923 107.5421,18.0993 L98.9861,18.0993 L98.9861,17.5203 C100.5191,17.3943 100.7011,17.2683 100.7011,15.7333 L100.7011,8.7093 C100.7011,7.1753 100.5381,7.0663 99.1301,6.9583 L99.1301,6.3623 L104.3471,6.3623 L104.3471,6.9583 C102.9561,7.0663 102.7961,7.1753 102.7961,8.7093 L102.7961,15.8063 C102.7961,16.6903 102.8661,17.0333 103.2281,17.1953 C103.5541,17.3403 104.0771,17.3763 104.7081,17.3763 C105.5731,17.3763 106.2081,17.2683 106.6221,16.7803 C106.9661,16.4193 107.2901,15.8423 107.5971,14.9743 L108.2101,15.1193 Z" id="Fill-59"></path>
            <path d="M116.169,9.2337 C115.802,8.0957 115.174,6.7947 113.646,6.7947 C112.486,6.7947 111.767,7.6267 111.767,8.6367 C111.767,9.7567 112.521,10.3527 114.088,11.1107 C115.837,11.9777 117.312,12.9167 117.312,14.7947 C117.312,16.7987 115.58,18.3687 112.966,18.3687 C112.265,18.3687 111.637,18.2607 111.141,18.0997 C110.644,17.9547 110.313,17.8277 110.091,17.7197 C109.925,17.2867 109.686,15.7687 109.557,14.7587 L110.183,14.5767 C110.516,15.7157 111.508,17.6647 113.315,17.6647 C114.548,17.6647 115.303,16.8707 115.303,15.6607 C115.303,14.5057 114.42,13.8377 113.038,13.1337 C111.397,12.3027 109.889,11.3447 109.889,9.5037 C109.889,7.6267 111.417,6.0917 113.94,6.0917 C115.008,6.0917 115.948,6.3987 116.428,6.5437 C116.5,7.2107 116.611,7.9687 116.757,9.1067 L116.169,9.2337 Z" id="Fill-61"></path>
            <path d="M135.1477,13.804 L135.0307,13.702 C137.8997,9.972 140.1687,7.893 142.2657,8.863 C143.0997,9.247 143.4887,10.738 143.1497,11.466 C143.0237,11.73 142.9207,11.77 142.9727,11.812 C143.0277,11.853 143.1637,11.699 143.2677,11.591 C144.1317,10.684 144.0137,8.881 142.6857,8.134 C139.7897,6.506 136.3967,10.232 134.2167,12.988 C134.0947,12.88 131.3267,10.102 130.8617,9.054 C133.5057,7.654 137.4707,5.635 137.7317,2.521 C137.8377,1.277 137.0077,0.134 135.0837,0.031 C132.9587,-0.073 130.0027,1.378 128.9647,3.974 C128.3397,5.531 128.2577,7.317 128.8797,9.03 C127.4267,9.652 119.3027,13.032 120.1547,18.018 C120.7207,21.317 127.9017,22.648 133.8597,15.487 L133.9007,15.431 C138.4767,19.619 143.5777,24.494 141.8907,29.217 C140.4647,33.217 136.8837,34.257 133.9237,33.346 C132.8567,33.011 132.6457,32.646 132.5177,32.87 C132.3797,33.092 133.0937,33.519 133.6387,33.72 C137.4087,35.298 141.7157,33.963 143.5387,30.113 C146.5927,23.664 140.2057,18.193 135.1477,13.804 M130.3637,4.13 C131.2467,1.847 133.2177,0.446 134.8817,0.653 C135.6547,0.757 136.2277,1.378 136.0217,2.521 C135.6057,5.167 133.2027,6.764 130.6077,8.267 C130.0387,6.814 129.8957,5.374 130.3637,4.13 M122.6507,18.013 C121.1167,14.9 127.9347,10.618 129.2357,9.944 C130.2577,12.354 133.0197,14.676 133.0197,14.676 C129.5297,18.878 123.8717,20.486 122.6507,18.013" id="Fill-63"></path>
            <path d="M226.3176,8.2218 C226.3176,7.1848 227.1306,6.3718 228.1666,6.3718 C229.2026,6.3718 229.9996,7.1768 229.9996,8.2138 C229.9996,9.2578 229.1956,10.0708 228.1586,10.0708 C227.1216,10.0708 226.3176,9.2658 226.3176,8.2218 Z M229.6816,8.2218 C229.6816,7.3528 229.0196,6.6748 228.1586,6.6748 C227.2976,6.6748 226.6436,7.3448 226.6436,8.2138 C226.6436,9.0898 227.3056,9.7678 228.1666,9.7678 C229.0276,9.7678 229.6816,9.0988 229.6816,8.2218 Z M227.4496,7.1698 L228.2066,7.1698 C228.6846,7.1698 228.9636,7.3768 228.9636,7.7918 C228.9636,8.1178 228.8036,8.2848 228.5656,8.3648 L229.0036,9.1938 L228.5816,9.1938 L228.1756,8.4208 L227.8566,8.4208 L227.8566,9.1938 L227.4496,9.1938 L227.4496,7.1698 Z M228.1826,8.1098 C228.4296,8.1098 228.5656,8.0308 228.5656,7.8148 C228.5656,7.6158 228.4296,7.5278 228.1756,7.5278 L227.8566,7.5278 L227.8566,8.1098 L228.1826,8.1098 Z" id="Fill-65"></path>
        </g>
    </g>
</svg>