<svg id="Layer_1" data-name="Layer 1" xmlns="http://www.w3.org/2000/svg" width="17.17" height="25" viewBox="0 0 17.17 25">
  <title>plane</title>
  <g id="plane1">
    <path d="M17.17,17.53v.11A1.43,1.43,0,0,1,16.55,19a1.29,1.29,0,0,1-1.28,0l-3.73-2.18v3.05L13,21.66a2.18,2.18,0,0,1,.22.31,2.08,2.08,0,0,1,.29,1.17v.42a1.49,1.49,0,0,1-.36,1.05,1.09,1.09,0,0,1-.85.39A1.65,1.65,0,0,1,12,25l-.06,0L8.58,23.73,5.15,25A1.14,1.14,0,0,1,4,24.6a1.48,1.48,0,0,1-.36-1.05v-.41A2.11,2.11,0,0,1,3.92,22a1.74,1.74,0,0,1,.19-.27l1.53-2.41v-2.5L1.94,19a1.31,1.31,0,0,1-1.3,0A1.37,1.37,0,0,1,0,17.64v-.11c0-.24.05-.85.09-1.19l0-.21A3.34,3.34,0,0,1,.64,14.3a40.84,40.84,0,0,1,5-4.93v-6A3.13,3.13,0,0,1,8.6,0a3.13,3.13,0,0,1,3,3.34V9.39a53.35,53.35,0,0,1,5,4.9,3.44,3.44,0,0,1,.53,1.85l0,.18C17.12,16.67,17.17,17.29,17.17,17.53Z"/>
  </g>
</svg>
