<svg xmlns="http://www.w3.org/2000/svg" xmlns:xlink="http://www.w3.org/1999/xlink" viewBox="0 0 38.14 46.08"><defs><style>.cls-1,.cls-2,.cls-3{fill:#fff;}.cls-1{clip-rule:evenodd;}.cls-3{fill-rule:evenodd;}.cls-4{clip-path:url(#clip-path);}.cls-5{clip-path:url(#clip-path-2);}</style><clipPath id="clip-path"><path class="cls-1" d="M31,39.73H19.16a.93.93,0,0,1-.28-.51V37.74a3.16,3.16,0,0,0-1.39-2.27l-.09-.07c-1.34-1.22-1.83-3.3-2.06-5.21h0c-.09-.75-.15-1.47-.19-2.1,0-.1,0-.19,0-.28s0-.32,0-.46v-5.9a1.19,1.19,0,0,1,2.38,0l.79,8.74h3.18a2.39,2.39,0,0,0,2.39-2.38V13.92C30.25,18.48,30.92,21,31,21.36c0,0,0,0,0,.09ZM7.15,6.36H8.74V27.81H7.15ZM19.86,21.45a3.58,3.58,0,0,0-7.15,0v6.36H11.12V6.36H21.45V27.81h-1Zm4-10.43V6.36A2.4,2.4,0,0,0,21.45,4H7.15A2.39,2.39,0,0,0,4.77,6.36V27.81a2.39,2.39,0,0,0,2.38,2.38h5.79c.25,2.34.88,5.17,2.86,7l.18.15a2.73,2.73,0,0,1,.52.51v1.4a2.9,2.9,0,0,0,2.57,2.89H31a2.39,2.39,0,0,0,2.38-2.38V21.49C33.41,20.64,32.92,17.13,23.84,11Z"/></clipPath><clipPath id="clip-path-2"><rect class="cls-2" y="3.97" width="38.14" height="38.14"/></clipPath></defs><title>Asset 3</title><g id="Layer_2" data-name="Layer 2"><g id="Layer_1-2" data-name="Layer 1"><path class="cls-3" d="M31,39.73H19.16a.93.93,0,0,1-.28-.51V37.74a3.16,3.16,0,0,0-1.39-2.27l-.09-.07c-1.34-1.22-1.83-3.3-2.06-5.21h0c-.09-.75-.15-1.47-.19-2.1,0-.1,0-.19,0-.28s0-.32,0-.46v-5.9a1.19,1.19,0,0,1,2.38,0l.79,8.74h3.18a2.39,2.39,0,0,0,2.39-2.38V13.92C30.25,18.48,30.92,21,31,21.36c0,0,0,0,0,.09ZM7.15,6.36H8.74V27.81H7.15ZM19.86,21.45a3.58,3.58,0,0,0-7.15,0v6.36H11.12V6.36H21.45V27.81h-1Zm4-10.43V6.36A2.4,2.4,0,0,0,21.45,4H7.15A2.39,2.39,0,0,0,4.77,6.36V27.81a2.39,2.39,0,0,0,2.38,2.38h5.79c.25,2.34.88,5.17,2.86,7l.18.15a2.73,2.73,0,0,1,.52.51v1.4a2.9,2.9,0,0,0,2.57,2.89H31a2.39,2.39,0,0,0,2.38-2.38V21.49C33.41,20.64,32.92,17.13,23.84,11Z"/><g class="cls-4"><rect class="cls-2" y="3.97" width="38.14" height="38.14"/><g class="cls-5"><rect class="cls-2" x="0.79" width="36.55" height="46.08"/></g></g></g></g></svg>