<?xml version="1.0" encoding="utf-8"?>
<!-- Generator: Adobe Illustrator 22.0.1, SVG Export Plug-In . SVG Version: 6.00 Build 0)  -->
<svg version="1.1" id="Layer_1" xmlns="http://www.w3.org/2000/svg" xmlns:xlink="http://www.w3.org/1999/xlink" x="0px" y="0px"
	 width="320px" height="305.2px" viewBox="0 0 320 305.2" style="enable-background:new 0 0 320 305.2;" xml:space="preserve">
<style type="text/css">
	.st0{fill:#e2e2e2;}
</style>
<path class="st0" d="M58,98.7c-29.5,0-36.4-13-58-13v-1.6c22.1,0,28.7,13,58,13c10.6,0,20.9-2.7,29.9-7.8l-6.3-14.1
	c-7,4.3-15.1,6.5-23.6,6.5c-26,0-31.3-13-58-13l0,0v-1.6l0,0c27.2,0,32.3,13,58,13c9.3,0,17.1-2.6,24.3-7.2L90,90
	C79.9,95.9,69.3,98.7,58,98.7z M169.4,286l1.3-17c-0.5,0.1-1.1,0.3-1.6,0.4l-1.2,16.5C168.3,285.9,168.8,285.9,169.4,286z
	 M165.1,285.6l0.6-15.7c-0.5,0.1-1.1,0.1-1.6,0.2l-0.6,15.4C164,285.6,164.6,285.6,165.1,285.6z M20.9,85.3l3.1-2.7l2.8,4.9l2.4,1
	l-3.9-6.8l3.5-3.1l-1.7-0.7l-2.6,2.4l-2.7-4.8c-0.8-0.3-1.5-0.5-2.3-0.8l3.7,6.4l-4,3.5C19.8,84.8,20.3,85,20.9,85.3z M17.8,75.8
	c0-0.5,0-1.1,0-1.6c-2.2-0.7-4.6-1.2-7.2-1.6c0,3.2,0,6.4,0,9.6c2.7,0.5,5.1,1.2,7.5,2.1c0-0.5,0-1.1,0-1.6c-2-0.7-4-1.2-5.9-1.7
	c0-0.9,0-1.8,0-2.7c1.6,0.4,3.2,0.8,4.9,1.4c0-0.5,0-1,0-1.6c-1.6-0.5-3.2-1-4.9-1.4c0-0.8,0-1.5,0-2.3C14,74.8,15.9,75.2,17.8,75.8
	z M159.2,270.3v15.2c0.3,0,0.5,0,0.8,0s0.5,0,0.8,0v-15.2c-0.3,0-0.5,0-0.8,0S159.5,270.3,159.2,270.3z M173.6,286.6l2.2-19.3
	c-0.5,0.2-1.1,0.4-1.7,0.6l-2.1,18.5C172.6,286.4,173.1,286.5,173.6,286.6z M210.5,286c0.5,0.2,1,0.5,1.4,0.7l15.2-34
	c-0.5-0.3-0.9-0.5-1.4-0.8L210.5,286z M230.2,254.3l-12.7,26.2c0.6,0,1.2,0,1.7,0.1l12.4-25.6C231.2,254.8,230.7,254.6,230.2,254.3z
	 M206.8,284.7c0.5,0.1,1.1,0.3,1.5,0.4l14.4-35c-0.4-0.3-0.9-0.6-1.3-0.9L206.8,284.7z M65,92.6c-0.8,0.1-1.8-0.1-2.3-0.8L60.8,92
	c0.5,1.5,2.2,2.2,4.2,2c2.7-0.3,4.4-1.6,4.4-3.3c0-2.3-2.1-2.5-4-2.6c-1.4-0.1-2.7-0.2-2.7-1.2c0-0.9,0.9-1.5,2.3-1.6
	c0.9-0.1,2,0.1,2.2,1c0.4-0.1,1.1-0.2,1.8-0.4c-0.4-1.6-2.2-2.2-4-2c-2.5,0.3-4.1,1.5-4.1,3.2c0,2.4,2.8,2.5,3.9,2.5
	c1.7,0.1,2.7,0.3,2.7,1.3C67.6,91.6,66.7,92.4,65,92.6z M75.2,82.9c0.8-0.2,1.8-0.2,2.1,0.6c0.5-0.2,1.1-0.4,1.7-0.7
	c-0.5-1.5-2.2-1.8-3.8-1.4c-2.5,0.6-4,2-4,3.7c0,2.4,2.7,2.2,3.8,2.1c1.6-0.1,2.6-0.1,2.7,1c0,0.7-0.8,1.6-2.4,2
	c-0.7,0.2-1.5,0.1-2-0.3l-1.9,0.4c0.6,1.1,2,1.9,3.9,1.4c2.6-0.6,4.3-2.2,4.2-3.9c0-2.3-2-2.3-3.9-2.2c-1.4,0.1-2.6,0.1-2.6-0.9
	C73,83.9,73.9,83.2,75.2,82.9z M58.8,86.3c0-0.3,0-0.5,0-1.6c-2.9,0-5.2-0.1-7.7-0.3v9.4c3,0.2,5.3,0.3,8,0.2c0-0.1,0-1.4,0-1.5
	c-2.1,0-4.2,0-6.3-0.2v-2.4c1.7,0.1,3.4,0.2,5.2,0.2v-1.5c-1.7,0-3.5-0.1-5.2-0.2v-2.3C54.9,86.4,56.8,86.4,58.8,86.3z M29.5,210.2
	c-0.6-0.4-1.2-0.8-1.8-1c0,0.3,0,0.6,0.1,0.9c1,2.5,2.6,4.7,4.4,6.6c0.3,0.1,0.6,0.3,0.9,0.4c1.5,0.6,2.9,1.2,4.4,1.8
	C34.1,216.8,31.2,213.8,29.5,210.2z M32.3,85.9v3.8l-1.6-0.6v-9.8c3.3,1,4.3,1.4,4.9,1.6c2,0.9,2.9,1.9,2.9,3.6c0,1.5-1.3,2.9-4.2,2
	L32.3,85.9z M32.3,84.3l1.9,0.6c1.7,0.5,2.7,0.7,2.7-0.7c0-1.1-1.1-1.7-2.7-2.2l-1.9-0.6V84.3z M225.8,202.5l-28.3,84.1
	c0.4,0.4,0.6,0.7,1.2,1.4l27.9-82.9C226.3,204.3,226,203.4,225.8,202.5z M46,89.1l2.7,4.5c-0.7-0.1-1.4-0.2-2.1-0.3L44,88.9
	l-2.1-0.4v4c-0.6-0.1-1.1-0.2-1.6-0.4v-9.7c1.9,0.5,4.3,1.1,4.3,1.1c2.6,0.5,3.8,1.6,3.8,3.4C48.4,88.3,47.4,89,46,89.1z M46.7,86.6
	c0-1.1-0.8-1.3-2.3-1.6l-2.5-0.5v2.4l2.5,0.6C45.6,87.7,46.7,87.8,46.7,86.6z M202.7,284.2c0.6,0,1.1,0.1,1.6,0.1l14-37.3
	c-0.4-0.3-0.9-0.7-1.3-1L202.7,284.2z M198.5,235.1h-1.6c-2.9,17.7-18.4,31.3-36.9,31.3s-34-13.6-36.9-31.3h-1.6
	c2.9,18.6,19.1,32.9,38.5,32.9C179.5,268,195.6,253.7,198.5,235.1z M91.3,279.6l1.3,2.3c0.5-0.1,1.1-0.2,1.6-0.3l-1.8-3.2
	C92.1,278.9,91.7,279.2,91.3,279.6z M46.8,261l15.3,40.9l0.8-2.3l-14.4-38.4C47.9,261.1,47.4,261,46.8,261z M102.2,243.7
	C89,254.3,73.5,259.2,58,259.2c-30.3,0-39.6-13-58-13v-1.6c18.9,0,28,13,58,13c15.5,0,30.5-5.1,42.3-14.5l-12.2-32.6
	c-6,9.3-17.3,15.6-30.1,15.6c-24,0-29.2-13-58-13l0,0v-1.5l0,0c11.9,0,19.8,2.1,26.6,4.7c-2.2-3-2.2-6.9-2.2-9.9v-0.8h0.8
	c8.1,0,10.2,8.1,16.7,12.2c-0.9-1.9-1-4.3-1-6.7v-0.8h0.8c9.2,0,10.2,4.7,17.4,5.6c-1.9-1.7-2.9-4.6-2.9-8.5v-0.8H57
	c6.1,0,8.1,1.6,12.1,1.6c2.9,0,5.7-1.7,7.6-4.5c-5.1,0.4-9.5-3.7-9.5-8.8c0-7.1,5.7-12.8,12.8-12.8c7.1,0,12.8,5.7,12.8,12.8l0,0
	l0,0l0,0c0,5-1.3,9.7-3.6,13.9L102.2,243.7z M91.2,194.9c0-6.2-5-11.2-11.2-11.2s-11.2,5-11.2,11.2c0,4.8,4.6,8.3,9.2,6.9l1.7-0.5
	l-0.8,1.6c-2.2,4.3-5.8,6.8-9.8,6.8c-4.1,0-6-1.4-11.3-1.6c0.2,5.1,2.2,8.4,7.2,7.6c2.1,0.4,3.8,0.3,5.5,0.1
	c-2.7,1.1-5.7,1.7-8.8,1.7c-10,0-10.3-5.4-19.2-5.7c0.1,6.8,2.1,7.5,5.7,8.4c1.4,0.9,2.8,1.6,4.3,2.2c-2.8-0.2-5.8-0.7-8.6-1.9
	c-8.9-3.4-10.6-12.8-18-13.4c0,5.8,1.1,9.2,6.4,11.4c7.4,3.1,14.4,6,25.6,6C76.3,224.6,91.2,211.3,91.2,194.9z M40,10.6l10.5,46.6
	c0.7,0.3,1.3,0.6,1.8,0.9L40.8,6.8C40.6,8.2,40.4,9.4,40,10.6z M102.5,280.5l-12.7-26.2c-0.5,0.2-1,0.4-1.4,0.7l12.4,25.6
	C101.3,280.5,101.9,280.5,102.5,280.5z M34.6,3.8V0.1H33v3.7H34.6z M84.8,194.9c0-2.6-2.1-4.8-4.8-4.8s-4.8,2.1-4.8,4.8v0.8h1.6
	v-0.8c0-1.8,1.4-3.2,3.2-3.2s3.2,1.4,3.2,3.2c0,6.1-2.5,11.5-6.8,14.6c-5.8,4.3-12.8,2.5-16.3,0.4c-0.2,0-0.4,0-0.6-0.1
	c0.1,0.7,0.3,1.3,0.5,1.8c5,2.7,12,3,17.3-0.9C82,207.4,84.8,201.4,84.8,194.9z M96.2,90.8L85.6,65.1c-8,7.5-17.2,11.1-27.6,11.1
	c-24.6,0-29.8-13-58-13l0,0v1.6l0,0c27.8,0,32.9,13,58,13c10.2,0,19.7-3.5,27-10l9.2,22.4c-10.6,7.2-23.1,11-36.2,11
	c-29.4,0-37.7-13-58-13v1.6c19.8,0,28.3,13,58,13C71.5,102.7,84.4,98.9,96.2,90.8z M68.6,284.5l-10.3-22.9c-0.1,0-0.2,0-0.3,0
	c-0.5,0-1,0-1.4,0l11.2,25L68.6,284.5z M80,186.1c-4.8,0-8.8,3.9-8.8,8.8c0,2.6,2.1,4.8,4.8,4.8s4.8-2.1,4.8-4.8v-0.8h-1.6v0.8
	c0,1.8-1.4,3.2-3.2,3.2s-3.2-1.4-3.2-3.2c0-4,3.2-7.2,7.2-7.2s7.2,3.2,7.2,7.2c0,9.8-6.6,19.2-16.3,23.4c-8.6,3.7-17.4,2.4-23.6-3.5
	c-0.2-0.1-0.4-0.4-0.6-0.6c-0.7-0.2-1.6-0.4-2.5-0.6l0,0c0.9,1.2,1.8,2.1,2,2.3c6.6,6.3,16,7.8,25.3,3.8
	c10.3-4.4,17.3-14.4,17.3-24.9C88.8,190,84.8,186.1,80,186.1z M65.9,291.7l-12.4-30.2c-0.6,0-1.2,0-1.7-0.1l13.3,32.4L65.9,291.7z
	 M32.8,53.2c0.6,0.5,1.3,1,1.8,1.5l-4-26.8c-0.4,0.5-0.9,1-1.4,1.4L32.8,53.2z M154.9,285.6c0.5,0,1-0.1,1.6-0.1l-0.6-15.4
	c-0.5-0.1-1.1-0.1-1.6-0.2L154.9,285.6z M150.6,286c0.5-0.1,1-0.1,1.6-0.2l-1.2-16.5c-0.5-0.1-1.1-0.2-1.6-0.4L150.6,286z
	 M98.2,280.8l-3.5-6.7c-0.2,0.7-0.4,1.3-0.8,2l2.6,5C97.1,281,97.6,280.9,98.2,280.8z M24.1,50.7h1.1c0.2,0,0.3,0,0.5,0l-1.9-16.8
	c-0.5,0.3-1,0.7-1.5,1L24.1,50.7z M7.8,57.1c0.5,0,1.1,0.1,1.6,0.2L8.8,40.7c-0.5,0.1-1,0.2-1.6,0.3L7.8,57.1z M16.4,58.3
	c0.5,0.1,1.1,0.2,1.6,0.4l-1.5-20.5c-0.5,0.2-1,0.4-1.5,0.6L16.4,58.3z M59.2,51.8L47.3,6.3h-1.6l11.9,45.4
	C58.2,51.8,58.7,51.8,59.2,51.8z M146.4,286.6c0.5-0.1,1-0.2,1.6-0.2l-2.1-18.5c-0.6-0.2-1.1-0.4-1.7-0.6L146.4,286.6z M0,80.4
	c0.2,0.3,0.5,0.5,0.7,0.8c0.5,0,1,0,1.5,0c0-3.1,0-6.3,0-9.4c-0.5,0-1,0-1.5,0c0,2.3,0,4.6,0,6.9c-0.2-0.3-0.4-0.5-0.7-0.8V80.4z
	 M35.3,21.8l6.3,33.7c0.5,0,0.9,0,1.6,0l-6.7-35.9C36.1,20.4,35.7,21.1,35.3,21.8z M0,37.6v1.6c19.5,0,35.6-14.3,38.5-32.9h-1.6
	C34,24.1,18.6,37.6,0,37.6z M12.8,2.4H8.5V0.7H12V0.1H6.9v3.7h5.9L12.8,2.4L12.8,2.4z M20,153.5l2,2.9h-2c0,0-1.7-2.6-1.8-2.7h-1.5
	v2.7h-1.6v-7.5h3.4c1.7,0,3.1,0.6,3.1,2.4C21.7,152.3,21.1,153.1,20,153.5z M20,151.2c0-0.7-0.5-1-1.5-1h-1.8v2h1.8
	C19.3,152.2,20,152.1,20,151.2z M19.2,158.8h-1.6c-0.8,7.9-3.4,17.1-8.7,22.8c0.6,0.1,1.2,0.3,1.7,0.4
	C15,176.9,18.2,168.6,19.2,158.8z M4.1,124.5c2.5,6.2,3.6,15.1,3.9,21.8h1.6c-0.5-9-1.9-16.8-3.9-22C5.2,124.4,4.6,124.5,4.1,124.5z
	 M32.3,238.4v3.8l-1.6-0.6v-9.8c3.3,1,4.3,1.4,4.9,1.6c2,0.9,2.9,1.9,2.9,3.6c0,1.5-1.3,2.9-4.2,2L32.3,238.4z M32.3,236.8l1.9,0.6
	c1.7,0.5,2.7,0.7,2.7-0.7c0-1.1-1.1-1.7-2.7-2.2l-1.9-0.6V236.8z M0.8,56.7V41.5c-0.3,0-0.5,0-0.8,0v15.2l0,0
	C0.3,56.7,0.5,56.7,0.8,56.7z M15.5,121.4c-0.5,0.3-1,0.5-1.6,0.8c6.8,5.1,11.8,13.9,13.2,24.2h1.6
	C27.4,135.8,22.4,126.8,15.5,121.4z M29.4,148.9l-2.3,5.8l-2.4-5.8H23l3.1,7.5h2l3.1-7.5H29.4z M28.8,158.8h-1.6
	c-1.4,10.4-6.4,19.3-13.3,24.4c0.6,0.2,1.1,0.5,1.6,0.8C22.5,178.5,27.4,169.4,28.8,158.8z M58.8,238.8c0-0.3,0-0.5,0-1.6
	c-2.9,0-5.2-0.1-7.7-0.3v9.4c3,0.2,5.3,0.3,8,0.2c0-0.1,0-1.4,0-1.5c-2.1,0-4.2,0-6.3-0.2v-2.4c1.7,0.1,3.4,0.2,5.2,0.2v-1.5
	c-1.7,0-3.5-0.1-5.2-0.2v-2.3C54.9,238.9,56.8,238.9,58.8,238.8z M65,245.1c-0.8,0.1-1.8-0.1-2.3-0.8l-1.9,0.2
	c0.5,1.5,2.2,2.2,4.2,2c2.7-0.3,4.4-1.6,4.4-3.3c0-2.3-2.1-2.5-4-2.6c-1.4-0.1-2.7-0.2-2.7-1.2c0-0.9,0.9-1.5,2.3-1.6
	c0.9-0.1,2,0.1,2.2,1c0.4-0.1,1.1-0.2,1.8-0.4c-0.4-1.6-2.2-2.2-4-2c-2.5,0.3-4.1,1.5-4.1,3.2c0,2.4,2.8,2.5,3.9,2.5
	c1.7,0.1,2.7,0.3,2.7,1.3C67.6,244.1,66.7,244.9,65,245.1z M46,241.6l2.7,4.5c-0.7-0.1-1.4-0.2-2.1-0.3l-2.6-4.4l-2.1-0.4v4
	c-0.6-0.1-1.1-0.2-1.6-0.4v-9.7c1.9,0.5,4.3,1.1,4.3,1.1c2.6,0.5,3.8,1.6,3.8,3.4C48.4,240.8,47.4,241.5,46,241.6z M46.7,239.1
	c0-1.1-0.8-1.3-2.3-1.6l-2.5-0.5v2.4l2.5,0.6C45.6,240.2,46.7,240.3,46.7,239.1z M75.2,235.4c0.8-0.2,1.8-0.2,2.1,0.6
	c0.5-0.2,1.1-0.4,1.7-0.7c-0.5-1.5-2.2-1.8-3.8-1.4c-2.5,0.6-4,2-4,3.7c0,2.4,2.7,2.2,3.8,2.1c1.6-0.1,2.6-0.1,2.7,1
	c0,0.7-0.8,1.6-2.4,2c-0.7,0.2-1.5,0.1-2-0.3l-1.9,0.4c0.6,1.1,2,1.9,3.9,1.4c2.6-0.6,4.3-2.2,4.2-3.9c0-2.3-2-2.3-3.9-2.2
	c-1.4,0.1-2.6,0.1-2.6-0.9C73,236.4,73.9,235.7,75.2,235.4z M96.2,243.3l-10.6-25.7c-8,7.5-17.2,11.1-27.6,11.1
	c-24.6,0-29.8-13-58-13l0,0v1.6l0,0c27.8,0,32.9,13,58,13c10.2,0,19.7-3.5,27-10l9.2,22.4c-10.6,7.2-23.1,11-36.2,11
	c-29.4,0-37.7-13-58-13v1.6c19.8,0,28.3,13,58,13C71.5,255.2,84.4,251.4,96.2,243.3z M12.7,150.3v-1.4H7v7.5h5.9V155H8.6v-1.7h3.5
	v-1.4H8.6v-1.6H12.7z M5.7,181.1c2-5.2,3.4-13.1,3.9-22.3H8c-0.5,9.8-2.1,17.4-4,22.1C4.6,180.9,5.2,181,5.7,181.1z M50.3,158.8
	h-1.6l-14.4,48.1c0.4,0.4,0.9,0.8,1.3,1.2L50.3,158.8z M27,184c-0.6,0.5-1.2,1-1.9,1.5l-4.9,26.2c0.5,0.1,1,0.3,1.5,0.4L27,184z
	 M34,176.2c-0.7,1-1.5,2-2.3,3l-5.4,24.1c0.5,0,1.1,0.1,1.6,0.2L34,176.2z M44.1,158.8h-1.6l-11.9,45.6c0.5,0.2,1,0.5,1.4,0.8
	L44.1,158.8z M51.7,150.3v-1.4H46v7.5h5.9V155h-4.3v-1.7h3.5v-1.4h-3.5v-1.6H51.7z M52.4,146.3H54l11.3-37.6
	c-0.6,0.1-1.1,0.1-1.7,0.2L52.4,146.3z M0,124.7v21.6h0.8v-21.7C0,124.7,0.1,124.7,0,124.7z M1.4,148.5c-0.5,0-1,0.1-1.4,0.3v4
	c0.4,0.2,0.8,0.3,1.3,0.4c0.7,0.2,1.6,0.4,1.6,1.2c0,0.6-0.5,1.1-1.3,1.1s-1.4-0.3-1.5-1.2l0,0v2.2c0.5,0.2,1,0.3,1.6,0.3
	c1.6,0,2.9-0.8,3-2.4s-1.1-2-2.5-2.3c-0.8-0.2-1.9-0.5-1.9-1.4c0-0.6,0.7-0.8,1.3-0.8c0.9,0,1.3,0.5,1.3,1.1h1.7
	C4.4,149.2,3.1,148.5,1.4,148.5z M0.8,158.8H0v21.9c0.1,0,0.2,0,0.8,0V158.8z M0.8,209.2V194c-0.3,0-0.5,0-0.8,0v15.2l0,0
	C0.3,209.2,0.5,209.2,0.8,209.2z M33,148.9v7.5h1.6v-7.5H33z M21.1,188.3c-0.6,0.3-1.2,0.7-1.7,1l-3.2,21.6c0.5,0.1,1,0.2,1.5,0.3
	L21.1,188.3z M40.4,150c0.8,0,1.4,0.4,1.6,1.1h1.7c-0.2-1.5-1.5-2.5-3.3-2.5c-2.2,0-3.5,1.5-3.5,3.9s1.3,3.9,3.5,3.9
	c1.8,0,3.2-0.9,3.4-2.7H42c-0.1,0.9-0.7,1.4-1.7,1.4c-1.4,0-1.9-1.2-1.9-2.5C38.5,151,39.2,150,40.4,150z M8.9,123.8
	c5.3,5.7,7.9,14.8,8.7,22.6h1.6c-1-9.6-4.2-17.9-8.6-23C10,123.5,9.5,123.6,8.9,123.8z M26.3,0.1h-1.7l1.6,3.7h2l1.6-3.7h-1.7
	l-0.8,2L26.3,0.1z M7.7,96.9l-0.6,15c0.5,0.1,1,0.2,1.6,0.3l0.6-14.9C8.8,97.2,8.2,97.1,7.7,96.9z M1.6,2.9c-0.8,0-1.4-0.3-1.5-1.2
	l0,0v2.2c0.5,0.2,1,0.3,1.6,0.3c1.6,0,2.9-0.8,3-2.4c0-0.9-0.3-1.4-0.9-1.7H0v0.2c0.4,0.2,0.8,0.3,1.3,0.4C2,0.9,2.9,1.1,2.9,1.9
	C2.9,2.4,2.4,2.9,1.6,2.9z M0,115.3c18.5,0,33.8,13.4,36.9,31.1h1.6c-3-18.5-19.1-32.6-38.5-32.6V115.3z M61.8,204.6
	c0.6,0.1,1.1,0.2,1.6,0.3l2.6-5c-0.3-0.6-0.6-1.3-0.8-2L61.8,204.6z M20.9,237.8l3.1-2.7l2.8,4.9l2.4,1l-3.9-6.8l3.5-3.1l-1.7-0.7
	l-2.6,2.4l-2.7-4.8c-0.8-0.3-1.5-0.5-2.3-0.8l3.7,6.4l-4,3.5C19.8,237.3,20.3,237.5,20.9,237.8z M24.1,102.6l-1.7,15.3
	c0.5,0.3,1,0.7,1.5,1l1.8-15.7C25.1,103,24.6,102.8,24.1,102.6z M32,105.4l-2.7,18.1c0.5,0.5,0.9,1,1.4,1.4l2.9-19.1
	C33,105.7,32.5,105.5,32,105.4z M228.7,279.6c-0.4-0.4-0.8-0.7-1.2-1.2l-1.8,3.2c0.6,0.1,1.1,0.2,1.6,0.3L228.7,279.6z M21.3,0.1
	h-6.1v3.7h1.6V1.1h1.5c0,0,1.7,2.6,1.8,2.7H22l-2-2.9C20.5,0.8,21,0.5,21.3,0.1z M0.8,6.3H0v21.9c0.1,0,0.2,0,0.8,0V6.3z M5.7,28.6
	c2-5.2,3.4-13.1,3.9-22.3H8c-0.5,9.8-2.1,17.4-4,22.1C4.6,28.4,5.2,28.5,5.7,28.6z M28.8,6.3h-1.6c-1.4,10.4-6.4,19.3-13.3,24.4
	c0.6,0.2,1.1,0.5,1.6,0.8C22.5,26,27.4,16.9,28.8,6.3z M17.6,6.3c-0.8,7.9-3.4,17.1-8.7,22.8c0.6,0.1,1.2,0.3,1.7,0.4
	C15,24.3,18.2,16,19.2,6.2h-1.6V6.3z M16,99.5l-1.1,14.7c0.5,0.2,1,0.4,1.5,0.6l1.1-14.7C17,99.9,16.5,99.7,16,99.5z M13.6,210.3
	l2.2-19.3c-0.5,0.2-1.1,0.4-1.7,0.6L12,210.1C12.6,210.1,13.1,210.2,13.6,210.3z M5.1,209.4l0.6-15.7c-0.5,0.1-1.1,0.1-1.6,0.2
	l-0.6,15.4C4,209.3,4.6,209.3,5.1,209.4z M9.4,209.7l1.3-17c-0.5,0.1-1.1,0.3-1.6,0.4l-1.2,16.5C8.3,209.6,8.8,209.7,9.4,209.7z
	 M0,232.9c0.2,0.3,0.5,0.5,0.7,0.8c0.5,0,1,0,1.5,0c0-3.1,0-6.3,0-9.4c-0.5,0-1,0-1.5,0c0,2.3,0,4.6,0,6.9c-0.2-0.3-0.4-0.5-0.7-0.8
	V232.9z M90,242.5l-7.7-17.1c-7.2,4.6-15,7.2-24.3,7.2c-25.7,0-30.8-13-58-13l0,0v1.6l0,0c26.7,0,32,13,58,13
	c8.5,0,16.6-2.2,23.6-6.5l6.3,14.1c-9,5.1-19.4,7.8-29.9,7.8c-29.2,0-35.9-13-58-13v1.6c21.6,0,28.5,13,58,13
	C69.3,251.2,79.9,248.4,90,242.5z M17.8,228.3c0-0.5,0-1.1,0-1.6c-2.2-0.7-4.6-1.2-7.2-1.6c0,3.2,0,6.4,0,9.6
	c2.7,0.5,5.1,1.2,7.5,2.1c0-0.5,0-1.1,0-1.6c-2-0.7-4-1.2-5.9-1.7c0-0.9,0-1.8,0-2.7c1.6,0.4,3.2,0.8,4.9,1.4c0-0.5,0-1,0-1.6
	c-1.6-0.5-3.2-1-4.9-1.4c0-0.8,0-1.5,0-2.3C14,227.3,15.9,227.7,17.8,228.3z M68.7,203.3c-0.4-0.4-0.8-0.7-1.2-1.2l-1.8,3.2
	c0.6,0.1,1.1,0.2,1.6,0.3L68.7,203.3z M38.5,158.8h-1.6C34,176.5,18.5,190.1,0,190.1v1.6C19.5,191.7,35.6,177.5,38.5,158.8z
	 M46.8,208.5c0.5,0.1,1.1,0.3,1.5,0.4l14.4-35c-0.4-0.3-0.9-0.6-1.3-0.9L46.8,208.5z M70.2,178.1l-12.7,26.2c0.6,0,1.2,0,1.7,0.1
	l12.4-25.6C71.2,178.5,70.7,178.3,70.2,178.1z M50.5,209.8c0.5,0.2,1,0.5,1.4,0.7l15.2-34c-0.5-0.3-0.9-0.5-1.4-0.8L50.5,209.8z
	 M65.8,126.3l-28.3,84.1c0.4,0.4,0.6,0.7,1.2,1.4l27.9-82.9C66.3,128,66,127.1,65.8,126.3z M42.7,208c0.6,0,1.1,0.1,1.6,0.1l14-37.3
	c-0.4-0.3-0.9-0.7-1.3-1L42.7,208z M240,109.9c-4.8,0-8.8,3.9-8.8,8.8c0,2.6,2.1,4.8,4.8,4.8s4.8-2.1,4.8-4.8v-0.8h-1.6v0.8
	c0,1.8-1.4,3.2-3.2,3.2s-3.2-1.4-3.2-3.2c0-4,3.2-7.2,7.2-7.2s7.2,3.2,7.2,7.2c0,9.8-6.6,19.2-16.3,23.4c-8.6,3.7-17.4,2.4-23.6-3.5
	c-0.2-0.1-0.4-0.4-0.6-0.6c-0.7-0.2-1.6-0.4-2.5-0.6l0,0c0.9,1.2,1.8,2.1,2,2.3c6.6,6.3,16,7.8,25.3,3.8
	c10.3-4.4,17.3-14.4,17.3-24.9C248.8,113.8,244.8,109.9,240,109.9z M206.8,32.2l15.3,40.9l0.8-2.3l-14.4-38.4
	C207.9,32.4,207.4,32.3,206.8,32.2z M165.1,20.2c-0.5-0.1-1.1-0.1-1.6-0.2l0.6,15.2c0.5,0.1,1.1,0.1,1.6,0.2L165.1,20.2z
	 M201.8,31.5l17,50.4l0.9-2.3l-16.1-47.8C202.9,31.7,202.4,31.6,201.8,31.5z M80,115.4c1.8,0,3.2,1.4,3.2,3.2v0.8h1.6v-0.8
	c0-2.6-2.1-4.8-4.8-4.8s-4.8,2.1-4.8,4.8c0,6.6,2.8,12.5,7.4,15.9c5.3,3.9,12.2,3.6,17.3,0.9c0.2-0.5,0.4-1.1,0.5-1.8
	c-0.2,0-0.4,0-0.6,0.1c-3.5,2.1-10.5,3.9-16.3-0.4c-4.2-3.1-6.8-8.6-6.8-14.6C76.8,116.9,78.2,115.4,80,115.4z M88.5,143.5
	c9.4,4,18.8,2.4,25.3-3.8c0.2-0.2,1.2-1.1,2-2.3l0,0c-0.9,0.1-1.8,0.3-2.5,0.6c-0.2,0.3-0.5,0.5-0.6,0.6c-6.2,5.9-15,7.2-23.6,3.5
	c-9.8-4.2-16.3-13.6-16.3-23.4c0-4,3.2-7.2,7.2-7.2s7.2,3.2,7.2,7.2c0,1.8-1.4,3.2-3.2,3.2s-3.2-1.4-3.2-3.2v-0.8h-1.6v0.8
	c0,2.6,2.1,4.8,4.8,4.8s4.8-2.1,4.8-4.8c0-4.8-3.9-8.8-8.8-8.8s-8.8,3.9-8.8,8.8C71.2,129.1,78.2,139.1,88.5,143.5z M100.1,160.9
	l-3.1,7.7c-0.4-1.1-2.6-6.9-3.2-8.3c-0.9-0.2-1.9-0.3-2.8-0.5l-0.1,9.6c0.5,0.1,1.1,0.2,1.6,0.3c0-1.7,0-6.9,0-8
	c0.4,1.2,2.9,7.1,3.5,8.5c0.6,0.1,1.2,0.1,1.9,0.2c0.5-1.1,3.1-6.9,3.5-8.1c0,1.1,0,6.7,0,8.2c0.2,0,0.4,0,0.7,0c0.3,0,0.6,0,1,0
	v-9.4c-0.3,0-0.6,0-1,0C101.4,161,100.7,161,100.1,160.9z M85.5,158.1l3.9,10.9c-0.6-0.1-1.2-0.3-1.9-0.4l-1-2.7
	c-1.6-0.5-3.2-1.1-4.9-1.8c-0.4,1-0.8,1.8-1,2.3c-0.5-0.2-1-0.4-1.5-0.6l3.9-8.6C83.9,157.5,84.7,157.9,85.5,158.1z M85.9,164.1
	l-1.9-5.2c-0.1,0.3-0.9,2.1-1.7,3.8C83.5,163.3,84.7,163.7,85.9,164.1z M107.5,166.3c1.8-0.1,3.5-0.3,5.3-0.6c0-0.5,0-1,0-1.6
	c-1.8,0.3-3.5,0.5-5.3,0.6c0-0.8,0-1.6,0-2.4c2.1-0.1,4.1-0.4,6.2-0.7c0-0.5,0-1.1,0-1.6c-2.4,0.4-5,0.7-7.8,0.9c0,3.1,0,6.3,0,9.4
	c2.9-0.1,5.6-0.4,8.1-0.8c0-0.5,0-1,0-1.5c-2.2,0.3-4.3,0.5-6.5,0.6C107.5,167.9,107.5,167.1,107.5,166.3z M178.7,24.2
	c-0.6-0.2-1.1-0.4-1.7-0.6l2.4,16.3c0.6,0.3,1.2,0.6,1.7,1L178.7,24.2z M174,22.5c-0.5-0.2-1.1-0.4-1.6-0.5l1.8,15.6
	c0.6,0.2,1.1,0.4,1.7,0.6L174,22.5z M169.5,21.1c-0.5-0.1-1.1-0.3-1.6-0.4l1.1,15.4c0.5,0.1,1.1,0.2,1.6,0.4L169.5,21.1z
	 M211.7,32.7L225,65.1l0.8-2.2l-12.4-30.2C212.9,32.7,212.3,32.7,211.7,32.7z M218,32.9c-0.5,0-1,0-1.4,0l11.2,25l0.8-2.1
	l-10.3-22.9C218.2,32.9,218.1,32.9,218,32.9z M223,32.7c-0.6,0-1.1,0.1-1.7,0.1l3.7,7.6c0.1-0.9,0.3-1.7,0.5-2.5L223,32.7z
	 M127.8,140.4c1.9-1.9,3.4-4.1,4.4-6.6c0-0.3,0.1-0.6,0.1-0.9c-0.7,0.2-1.3,0.6-1.8,1c-1.7,3.6-4.5,6.6-8,8.6
	c1.5-0.6,2.9-1.2,4.4-1.8C127.2,140.6,127.5,140.5,127.8,140.4z M225.4,164.4c-1.4-0.1-2.7-0.2-2.7-1.2c0-0.9,0.9-1.5,2.3-1.6
	c0.9-0.1,2,0.1,2.2,1c0.4-0.1,1.1-0.2,1.8-0.4c-0.4-1.6-2.2-2.2-4-2c-2.5,0.3-4.1,1.5-4.1,3.2c0,2.4,2.8,2.5,3.9,2.5
	c1.7,0.1,2.7,0.3,2.7,1.3c0,0.7-0.9,1.5-2.5,1.7c-0.8,0.1-1.8-0.1-2.3-0.8l-1.9,0.2c0.5,1.5,2.2,2.2,4.2,2c2.7-0.3,4.4-1.6,4.4-3.3
	C229.5,164.7,227.3,164.5,225.4,164.4z M212.7,166.2c1.7,0.1,3.4,0.2,5.2,0.2v-1.5c-1.7,0-3.5-0.1-5.2-0.2v-2.3
	c2.2,0.2,4,0.2,6.1,0.1c0-0.3,0-0.5,0-1.6c-2.9,0-5.2-0.1-7.7-0.3v9.4c3,0.2,5.3,0.3,8,0.2c0-0.1,0-1.4,0-1.5c-2.1,0-4.2,0-6.3-0.2
	v-2.3H212.7z M198.5,160.8c0,1.5-1.3,2.9-4.2,2l-2-0.6v3.8l-1.6-0.6v-9.8c3.3,1,4.3,1.4,4.9,1.6C197.5,158,198.5,159.1,198.5,160.8z
	 M196.9,160.5c0-1.1-1.1-1.7-2.7-2.2l-1.9-0.6v2.9l1.9,0.6C195.8,161.7,196.9,161.9,196.9,160.5z M206,165.4l2.7,4.5
	c-0.7-0.1-1.4-0.2-2.1-0.3l-2.6-4.4l-2.1-0.4v4c-0.6-0.1-1.1-0.2-1.6-0.4v-9.7c1.9,0.5,4.3,1.1,4.3,1.1c2.6,0.5,3.8,1.6,3.8,3.4
	C208.4,164.6,207.4,165.2,206,165.4z M206.7,162.9c0-1.1-0.8-1.3-2.3-1.6l-2.5-0.5v2.4l2.5,0.6C205.6,164,206.7,164,206.7,162.9z
	 M235.6,162c-1.4,0.1-2.6,0.1-2.6-0.9c0-0.9,0.8-1.6,2.2-1.9c0.8-0.2,1.8-0.2,2.1,0.6c0.5-0.2,1.1-0.4,1.7-0.7
	c-0.5-1.5-2.2-1.8-3.8-1.4c-2.5,0.6-4,2-4,3.7c0,2.4,2.7,2.2,3.8,2.1c1.6-0.1,2.6-0.1,2.7,1c0,0.7-0.8,1.6-2.4,2
	c-0.7,0.2-1.5,0.1-2-0.3l-1.9,0.4c0.6,1.1,2,1.9,3.9,1.4c2.6-0.6,4.3-2.2,4.2-3.9C239.5,161.9,237.5,161.9,235.6,162z M242.3,149.2
	l7.7,17.1c-10.1,5.9-20.7,8.7-32,8.7c-29.5,0-36.4-13-58-13s-28.5,13-58,13c-11.3,0-21.9-2.9-32-8.7l7.7-17.1
	c7.2,4.6,15,7.2,24.3,7.2c25.7,0,30.8-13,58-13s32.3,13,58,13C227.3,156.4,235.1,153.8,242.3,149.2z M247.9,165.6l-6.3-14.1
	c-7,4.3-15.1,6.5-23.6,6.5c-26,0-31.3-13-58-13s-32,13-58,13c-8.5,0-16.6-2.2-23.6-6.5l-6.3,14.1c9,5.1,19.4,7.8,29.9,7.8
	c29.3,0,35.9-13,58-13s28.7,13,58,13C228.6,173.4,238.9,170.7,247.9,165.6z M127.3,166.1c0.5-0.2,1-0.4,1.5-0.6v-10.1
	c-0.5,0.2-1,0.4-1.5,0.6V166.1z M146.7,149.3c1.5,2.9,3,5.9,4.4,8.8c-0.2,0-1.5,0.3-1.7,0.3c-0.2-0.4-0.7-1.6-0.9-1.9
	c-1.7,0.3-3.5,0.8-5.2,1.5c-0.3,0.8-0.6,1.6-0.8,2.4c-0.7,0.2-1.3,0.4-2,0.7c1.3-3.7,2.8-7.4,4.2-11.2
	C145.3,149.6,146,149.5,146.7,149.3z M147.8,155.1c-0.6-1.2-2-4.3-2-4.3c-0.1,0.3-1.4,3.9-1.9,5.3
	C145.2,155.7,146.5,155.4,147.8,155.1z M135.5,161.7c-2.1,0.7-2.8-0.7-2.8-2.9c0-1.7,1.2-4,2.9-4.6c1.1-0.3,2.1-0.3,2.4,0.8l1.5-0.5
	c-0.4-2-2.1-2.5-4-1.9c-2.7,0.9-4.5,3.5-4.5,6.7c0,3.1,1.7,4.8,4.5,3.9c2.1-0.7,3.5-2.3,4-4.3l-1.7,0.4
	C137.5,160.4,136.7,161.3,135.5,161.7z M122.4,163.5c1,1.1,2,2.2,3,3.2c-0.6,0.2-1.2,0.4-1.8,0.6c-1-1-2-2.1-3-3.2
	c-0.9,0.2-1.7,0.4-2.6,0.6c0,1.3,0,2.7,0,4c-0.5,0.1-1.1,0.2-1.6,0.3c0-3.2,0-6.4,0-9.6c1-0.2,2.4-0.5,4.4-1
	c2.6-0.7,3.9-0.2,3.9,1.6C124.8,161.9,123.5,162.9,122.4,163.5z M120.8,162.6c1.6-0.4,2.2-1.4,2.2-1.9c0-1.1-0.6-1.1-2.1-0.6
	c-0.9,0.2-1.8,0.5-2.7,0.7c0,0.8,0,1.6,0,2.5C119.1,163,119.9,162.8,120.8,162.6z M160.7,154.9c-2-2.3-4.1-4.5-6.1-6.7
	c-0.6,0-1.2,0.1-1.8,0.2c0,3.2,0,6.3,0,9.5c0.5-0.1,1-0.1,1.5-0.2c0-2.5,0-5,0-7.4c2.1,2.3,4.3,4.7,6.4,7.2c0.5,0,1,0,1.5,0
	c0-3.1,0-6.3,0-9.4c-0.5,0-1,0-1.5,0C160.7,150.3,160.7,152.6,160.7,154.9z M172.1,154.5c1.6,0.4,3.2,0.8,4.9,1.4c0-0.5,0-1,0-1.6
	c-1.6-0.5-3.2-1-4.9-1.4c0-0.8,0-1.5,0-2.3c1.9,0.4,3.8,0.8,5.7,1.4c0-0.5,0-1.1,0-1.6c-2.2-0.7-4.6-1.2-7.2-1.6c0,3.2,0,6.4,0,9.6
	c2.7,0.5,5.1,1.2,7.5,2.1c0-0.5,0-1.1,0-1.6c-2-0.7-4-1.2-5.9-1.7C172.1,156.3,172.1,155.4,172.1,154.5z M188.9,154.9l-1.7-0.7
	l-2.6,2.4l-2.7-4.8c-0.8-0.3-1.5-0.5-2.3-0.8l3.7,6.4l-4,3.5c0.6,0.2,1.1,0.4,1.7,0.6l3.1-2.7l2.8,4.9l2.4,1l-3.9-6.8L188.9,154.9z
	 M272.6,301.4h-2.3c0,0.1-0.4,2.1-0.7,3.7h1.4c0.2-1.2,0.5-2.2,0.5-2.2l0,0l0.5,2.2h1.5C273.1,303.5,272.6,301.5,272.6,301.4z
	 M144.7,302.3c-0.4,0.9-0.7,1.9-1.1,2.8h1.6c0.3-0.9,0.6-1.6,0.6-1.7c0,0,0.4,0.8,0.8,1.7h1.7c-0.5-1.1-1.1-2.2-1.6-3.3
	C146,302,145.3,302.1,144.7,302.3z M236,305.1h3.6c0.7-0.4,1.3-0.7,2-1.1l0.5,1.1h1.7l-1.5-3.4C240.2,303,238.1,304.1,236,305.1z
	 M135.6,305.1h2.6C137.4,304.8,136.5,304.8,135.6,305.1z M123.6,305.1h4.4c8.9-3.6,17.1-7.6,32-7.6s23.1,4,32,7.6h4.4
	c-10.5-3.8-18.9-9.2-36.4-9.2C142.6,295.9,134.2,301.3,123.6,305.1z M80,267.9c1.8,0,3.2,1.4,3.2,3.2v0.8h1.6v-0.8
	c0-2.6-2.1-4.8-4.8-4.8s-4.8,2.1-4.8,4.8c0,6.6,2.8,12.5,7.4,15.9c5.3,3.9,12.2,3.6,17.3,0.9c0.2-0.5,0.4-1.1,0.5-1.8
	c-0.2,0-0.4,0-0.6,0.1c-3.5,2.1-10.5,3.9-16.3-0.4c-4.2-3.1-6.8-8.6-6.8-14.6C76.8,269.4,78.2,267.9,80,267.9z M218,304.9
	c-24.6,0-29.8-13-58-13s-33.4,13-58,13c-10.4,0-19.5-3.5-27.6-11.1l-4.6,11.3h1.7l3.5-8.6c4.6,4.1,10.1,7,16.2,8.6h24
	c14.9-3.4,22.7-11.6,44.9-11.6c22.2,0,29.9,8.3,44.9,11.6h24c6-1.6,11.5-4.5,16.2-8.6l3.5,8.6h1.7l-4.6-11.3
	C237.5,301.4,228.4,304.9,218,304.9z M76.2,305.1h1.7l0.5-1.1c0.7,0.4,1.3,0.8,2,1.1H84c-2.2-1-4.2-2.1-6.3-3.4L76.2,305.1z
	 M162.2,300.5c-0.5,0-1,0-1.5,0c0,1.5,0,3.1,0,4.6h1.5C162.2,303.6,162.2,302.1,162.2,300.5z M115.8,289.9L115.8,289.9
	c-0.9,0.1-1.8,0.3-2.5,0.5c-0.2,0.3-0.5,0.5-0.6,0.6c-6.2,5.9-15,7.2-23.6,3.5c-9.8-4.2-16.3-13.6-16.3-23.4c0-4,3.2-7.2,7.2-7.2
	s7.2,3.2,7.2,7.2c0,1.8-1.4,3.2-3.2,3.2s-3.2-1.4-3.2-3.2v-0.8h-1.6v0.8c0,2.6,2.1,4.8,4.8,4.8s4.8-2.1,4.8-4.8
	c0-4.8-3.9-8.8-8.8-8.8s-8.8,3.9-8.8,8.8c0,10.4,6.9,20.4,17.3,24.9c9.4,4,18.8,2.4,25.3-3.8C114,292,115,291.1,115.8,289.9z
	 M160.8,19.9c-0.3,0-0.5,0-0.8,0s-0.5,0-0.8,0v15.2c0.3,0,0.5,0,0.8,0s0.5,0,0.8,0V19.9z M282.3,301.2c-2.3,0-3.7,1.5-3.7,3.9l0,0
	h1.5l0,0c0-1.5,0.9-2.5,2.3-2.5c1.3,0,2.3,1,2.3,2.5l0,0h1.5l0,0C286,302.7,284.6,301.2,282.3,301.2z M170.6,301.3
	c0,1.3,0,2.5,0,3.8h1.6c0-0.7,0-1.3,0-2c1.9,0.4,3.8,0.8,5.7,1.4c0-0.5,0-1.1,0-1.6C175.6,302.3,173.2,301.7,170.6,301.3z
	 M152.8,300.9c0,1.4,0,2.8,0,4.2h1.5c0-0.8,0-1.6,0-2.4c0.7,0.8,1.4,1.6,2.1,2.4h2.2c-1.3-1.5-2.7-3-4-4.4
	C154,300.8,153.4,300.8,152.8,300.9z M181.8,304.3c-0.8-0.3-1.5-0.5-2.3-0.8l0.9,1.6h1.9L181.8,304.3z M245.6,141.3l10.6,25.7
	c-11.7,8.1-24.6,12-38.2,12c-29.7,0-38.2-13-58-13s-28.3,13-58,13c-13.6,0-26.4-3.9-38.2-12l10.6-25.7c8,7.5,17.2,11.1,27.6,11.1
	c24.6,0,29.8-13,58-13s33.4,13,58,13C228.4,152.4,237.5,148.9,245.6,141.3z M254.2,166.4L245,144c-7.3,6.4-16.8,10-27,10
	c-25.1,0-30.2-13-58-13s-32.9,13-58,13c-10.2,0-19.7-3.5-27-10l-9.2,22.4c10.6,7.2,23.1,11,36.2,11c29.4,0,37.7-13,58-13
	s28.6,13,58,13C231.1,177.4,243.6,173.6,254.2,166.4z M146,22.5l-1.8,15.7c0.5-0.2,1.1-0.4,1.7-0.6l1.8-15.6
	C147.1,22.1,146.6,22.3,146,22.5z M141.3,24.2l-2.5,16.7c0.6-0.3,1.2-0.7,1.7-1l2.5-16.3C142.5,23.8,141.9,24,141.3,24.2z
	 M121.5,70.1h1.6c3-17.6,18.4-31.1,36.9-31.1s33.8,13.4,36.9,31.1h1.6c-3-18.5-19.1-32.6-38.5-32.6S124.6,51.6,121.5,70.1z
	 M154.9,20.2l-0.6,15.3c0.5-0.1,1.1-0.1,1.6-0.2l0.6-15.2C155.9,20.1,155.4,20.2,154.9,20.2z M150.5,21.1l-1.1,15.4
	c0.5-0.1,1.1-0.3,1.6-0.4l1.1-15.4C151.6,20.8,151,21,150.5,21.1z M97,32.7l-2.5,5.2c0.3,0.8,0.4,1.6,0.5,2.5l3.7-7.6
	C98.1,32.7,97.6,32.7,97,32.7z M92.2,57.8l11.2-25c-0.5,0-0.9,0-1.4,0c-0.1,0-0.2,0-0.3,0L91.4,55.7L92.2,57.8z M240,262.4
	c-4.8,0-8.8,3.9-8.8,8.8c0,2.6,2.1,4.8,4.8,4.8s4.8-2.1,4.8-4.8v-0.8h-1.6v0.8c0,1.8-1.4,3.2-3.2,3.2s-3.2-1.4-3.2-3.2
	c0-4,3.2-7.2,7.2-7.2s7.2,3.2,7.2,7.2c0,9.8-6.6,19.2-16.3,23.4c-8.6,3.7-17.4,2.4-23.6-3.5c-0.2-0.1-0.4-0.4-0.6-0.6
	c-0.7-0.2-1.6-0.4-2.5-0.6l0,0c0.9,1.2,1.8,2.1,2,2.3c6.6,6.3,16,7.8,25.3,3.8c10.3-4.4,17.3-14.4,17.3-24.9
	C248.8,266.3,244.8,262.4,240,262.4z M244.8,271.1c0-2.6-2.1-4.8-4.8-4.8s-4.8,2.1-4.8,4.8v0.8h1.6v-0.8c0-1.8,1.4-3.2,3.2-3.2
	s3.2,1.4,3.2,3.2c0,6.1-2.5,11.5-6.8,14.6c-5.8,4.3-12.8,2.5-16.3,0.4c-0.2,0-0.4,0-0.6-0.1c0.1,0.7,0.3,1.3,0.5,1.8
	c5,2.7,12,3,17.3-0.9C242,283.6,244.8,277.7,244.8,271.1z M130.5,286.4c-1.7,3.6-4.5,6.6-8,8.6c1.5-0.6,2.9-1.2,4.4-1.8
	c0.3-0.1,0.6-0.3,0.9-0.4c1.9-1.9,3.4-4.1,4.4-6.6c0-0.3,0.1-0.6,0.1-0.9C131.7,285.6,131.1,286,130.5,286.4z M189.5,286.4
	c-0.6-0.4-1.2-0.8-1.8-1c0,0.3,0,0.6,0.1,0.9c1,2.5,2.6,4.7,4.4,6.6c0.3,0.1,0.6,0.3,0.9,0.4c1.5,0.6,2.9,1.2,4.4,1.8
	C194.1,293,191.2,290.1,189.5,286.4z M249.1,285.1l7.5,20H255l-6.8-18.3c-6,9.3-17.3,15.6-30.1,15.6c-24,0-29.2-13-58-13
	s-34,13-58,13c-12.8,0-24.1-6.3-30.1-15.6l-6.8,18.3h-1.7l7.5-20c-2.3-4.2-3.6-8.9-3.6-13.9c0-7.1,5.7-12.8,12.8-12.8
	c7.1,0,12.8,5.7,12.8,12.8c0,5.1-4.4,9.2-9.5,8.8c1.9,2.9,4.6,4.5,7.6,4.5c4,0,6-1.6,12.1-1.6h0.8v0.8c0,3.9-1,6.9-2.9,8.5
	c7.1-0.9,8.1-5.6,17.4-5.6h0.8v0.8c0,2.4-0.1,4.8-1,6.7c6.5-4.1,8.6-12.2,16.7-12.2h0.8v0.8c0,3.1,0,6.9-2.2,9.9
	c6.9-2.6,14.7-4.7,26.6-4.7s19.8,2.1,26.6,4.7c-2.2-3-2.2-6.9-2.2-9.9v-0.8h0.8c8.1,0,10.2,8.1,16.7,12.2c-0.9-1.9-1-4.3-1-6.7v-0.8
	h0.8c9.2,0,10.2,4.7,17.4,5.6c-1.9-1.7-2.9-4.6-2.9-8.5v-0.8h0.8c6.1,0,8.1,1.6,12.1,1.6c2.9,0,5.7-1.7,7.6-4.5
	c-5.1,0.4-9.5-3.7-9.5-8.8c0-7.1,5.7-12.8,12.8-12.8c7.1,0,12.8,5.7,12.8,12.8l0,0l0,0l0,0C252.8,276.1,251.5,280.9,249.1,285.1z
	 M134,283.5c-7.4,0.6-9.1,10-18,13.4c-2.8,1.2-5.8,1.7-8.6,1.9c1.5-0.6,3-1.3,4.3-2.2c3.5-0.8,5.6-1.4,5.7-8.4
	c-8.9,0.3-9.2,5.7-19.2,5.7c-3.1,0-6.1-0.6-8.8-1.7c1.7,0.2,3.3,0.2,5.5-0.1c5,0.8,7-2.6,7.2-7.6c-5.3,0.1-7.3,1.6-11.3,1.6
	s-7.7-2.5-9.8-6.8l-0.8-1.6l1.7,0.5c4.6,1.3,9.2-2.1,9.2-6.9c0-6.2-5-11.2-11.2-11.2s-11.2,5-11.2,11.2c0,16.4,14.9,29.7,33.2,29.7
	c11.1,0,18.1-2.9,25.6-6C132.9,292.7,133.9,289.3,134,283.5z M251.2,271.1c0-6.2-5-11.2-11.2-11.2s-11.2,5-11.2,11.2
	c0,4.8,4.6,8.3,9.2,6.9l1.7-0.5l-0.8,1.6c-2.2,4.3-5.8,6.8-9.8,6.8c-4.1,0-6-1.4-11.3-1.6c0.2,5.1,2.2,8.4,7.2,7.6
	c2.1,0.4,3.8,0.3,5.5,0.1c-2.7,1.1-5.7,1.7-8.8,1.7c-10,0-10.3-5.4-19.2-5.7c0.1,6.8,2.1,7.5,5.7,8.4c1.4,0.9,2.8,1.6,4.3,2.2
	c-2.8-0.2-5.8-0.7-8.6-1.9c-8.9-3.4-10.6-12.8-18-13.4c0,5.8,1.1,9.2,6.4,11.4c7.4,3.1,14.4,6,25.6,6
	C236.3,300.9,251.2,287.5,251.2,271.1z M40.4,302.5c0.8,0,1.4,0.4,1.6,1.1h1.7c-0.2-1.5-1.5-2.5-3.3-2.5c-2.2,0-3.5,1.5-3.5,3.9l0,0
	h1.6l0,0C38.5,303.5,39.2,302.5,40.4,302.5z M318.5,150.7c0,1.2,0.6,1.7,1.5,2v-4C319.2,149.1,318.6,149.7,318.5,150.7z
	 M288.4,148.9h3.4c1.8,0,3.1,0.6,3.1,2.4c0,1.1-0.6,1.9-1.7,2.2l2,2.9h-1.9c0,0-1.7-2.6-1.8-2.7H290v2.7h-1.6V148.9z M290,152.2h1.8
	c0.8,0,1.5-0.1,1.5-1c0-0.7-0.5-1-1.5-1H290V152.2z M273.7,237.9c0-0.5,0-1.1,0-1.6c-2.4,0.4-5,0.7-7.8,0.9c0,3.1,0,6.3,0,9.4
	c2.9-0.1,5.6-0.4,8.1-0.8c0-0.5,0-1,0-1.5c-2.2,0.3-4.3,0.5-6.5,0.6c0-0.8,0-1.5,0-2.3c1.8-0.1,3.5-0.3,5.3-0.6c0-0.5,0-1,0-1.6
	c-1.8,0.3-3.5,0.5-5.3,0.6c0-0.8,0-1.6,0-2.4C269.6,238.5,271.7,238.3,273.7,237.9z M319.2,180.7c0.8,0,0.7,0,0.8,0v-21.9h-0.8
	V180.7z M262,246.7c0.3,0,0.6,0,1,0v-9.4c-0.3,0-0.6,0-1,0c-0.6,0-1.3,0-1.9-0.1l-3.1,7.7c-0.4-1.1-2.6-6.9-3.2-8.3
	c-0.9-0.2-1.9-0.3-2.8-0.5v9.5c0.5,0.1,1.1,0.2,1.6,0.3c0-1.7,0-6.9,0-8c0.4,1.2,2.9,7.1,3.5,8.5c0.6,0.1,1.2,0.1,1.9,0.2
	c0.5-1.1,3.1-6.9,3.5-8.1c0,1.1,0,6.7,0,8.2C261.6,246.6,261.8,246.7,262,246.7z M320,156.4v-2.2h-1.7
	C318.4,155.4,319.1,156.1,320,156.4z M319.2,146.3h0.8v-21.6c-0.1,0-0.2,0-0.8,0V146.3z M221.8,280.8c0.6,0.1,1.1,0.2,1.6,0.3l2.6-5
	c-0.3-0.6-0.6-1.3-0.8-2L221.8,280.8z M320,194.1L320,194.1c-0.3,0-0.5,0-0.8,0v15.2c0.3,0,0.5,0,0.8,0V194.1z M237.7,225.4
	l-7.7,17.1c10.1,5.9,20.7,8.7,32,8.7c29.5,0,36.4-13,58-13l0,0v-1.6l0,0c-22.1,0-28.7,13-58,13c-10.6,0-20.9-2.7-29.9-7.8l6.3-14.1
	c7,4.3,15.1,6.5,23.6,6.5c26,0,31.3-13,58-13v-1.6c-27.2,0-32.3,13-58,13C252.7,232.7,245,230,237.7,225.4z M320,230.4
	c-1.8-2-3.6-4-5.4-5.9c-0.6,0-1.2,0.1-1.8,0.2c0,3.2,0,6.3,0,9.5c0.5-0.1,1-0.1,1.5-0.2c0-2.5,0-5,0-7.4c1.9,2.1,3.8,4.2,5.7,6.4
	V230.4z M304.7,226c0.7-0.2,1.3-0.3,2-0.5c1.5,2.9,3,5.9,4.4,8.8c-0.2,0-1.5,0.3-1.7,0.3c-0.2-0.4-0.7-1.6-0.9-1.9
	c-1.7,0.3-3.5,0.8-5.2,1.5c-0.3,0.8-0.6,1.6-0.8,2.4c-0.7,0.2-1.3,0.4-2,0.7C301.8,233.6,303.2,229.8,304.7,226z M305.8,227.1
	c-0.1,0.3-1.4,3.9-1.9,5.3c1.3-0.5,2.6-0.8,3.9-1.1C307.2,230.2,305.8,227.1,305.8,227.1z M295.6,230.4c1.1-0.3,2.1-0.3,2.4,0.8
	l1.5-0.5c-0.4-2-2.1-2.5-4-1.9c-2.7,0.9-4.5,3.5-4.5,6.7c0,3.1,1.7,4.8,4.5,3.9c2.1-0.7,3.5-2.3,4-4.3l-1.7,0.4
	c-0.4,1.1-1.2,2-2.4,2.4c-2.1,0.7-2.8-0.7-2.8-2.9C292.6,233.3,293.8,231,295.6,230.4z M282.4,239.8c1,1.1,2,2.2,3,3.2
	c-0.6,0.2-1.2,0.4-1.8,0.6c-1-1-2-2.1-3-3.2c-0.9,0.2-1.7,0.4-2.6,0.6c0,1.3,0,2.7,0,4c-0.5,0.1-1.1,0.2-1.6,0.3c0-3.2,0-6.4,0-9.6
	c1-0.2,2.4-0.5,4.4-1c2.6-0.7,3.9-0.2,3.9,1.6C284.8,238.1,283.5,239.2,282.4,239.8z M283,236.9c0-1.1-0.6-1.1-2.1-0.6
	c-0.9,0.2-1.8,0.5-2.7,0.7c0,0.8,0,1.6,0,2.5c0.9-0.2,1.8-0.4,2.6-0.6C282.4,238.4,283,237.4,283,236.9z M288.9,241.8v-10.1
	c-0.5,0.2-1,0.4-1.5,0.6v10C287.8,242.2,288.3,242,288.9,241.8z M243.1,233.5c0.8,0.3,1.6,0.6,2.4,0.9l3.9,10.9
	c-0.6-0.1-1.2-0.3-1.9-0.4l-1-2.7c-1.6-0.5-3.2-1.1-4.9-1.8c-0.4,1-0.8,1.8-1,2.3c-0.5-0.2-1-0.4-1.5-0.6L243.1,233.5z M244,235.2
	c-0.1,0.3-0.9,2.1-1.7,3.8c1.2,0.5,2.4,1,3.6,1.4L244,235.2z M269.5,209.8l-15.3-34c-0.5,0.3-0.9,0.5-1.4,0.8l15.2,34
	C268.5,210.2,269,210,269.5,209.8z M258.2,204.6l-3.5-6.7c-0.2,0.7-0.4,1.3-0.8,2l2.6,5C257.1,204.8,257.6,204.7,258.2,204.6z
	 M251.3,203.3l1.3,2.3c0.5-0.1,1.1-0.2,1.6-0.3l-1.8-3.2C252.1,202.6,251.7,203,251.3,203.3z M262.5,204.2L249.8,178
	c-0.5,0.2-1,0.4-1.4,0.7l12.4,25.6C261.3,204.3,261.9,204.3,262.5,204.2z M234.4,217.6l-10.6,25.7c11.7,8.1,24.6,12,38.2,12
	c29.7,0,38.2-13,58-13l0,0v-1.6l0,0c-20.3,0-28.6,13-58,13c-13.1,0-25.6-3.8-36.2-11l9.2-22.4c7.3,6.4,16.8,10,27,10
	c25.1,0,30.2-13,58-13v-1.6c-28.2,0-33.4,13-58,13C251.6,228.7,242.5,225.1,234.4,217.6z M277.3,208L263,169.8
	c-0.4,0.3-0.9,0.7-1.3,1l14,37.3C276.2,208,276.8,208,277.3,208z M273.2,208.5L258.6,173c-0.4,0.3-0.9,0.6-1.3,0.9l14.4,35
	C272.2,208.8,272.7,208.6,273.2,208.5z M270.8,108.7l8.4,37.3c0.2-1.3,0.5-2.5,0.8-3.7l-7.6-33.7
	C271.9,108.6,271.4,108.7,270.8,108.7z M278.7,107.7l4.8,25.6c0.4-0.7,0.8-1.4,1.2-2.1l-4.5-23.8
	C279.7,107.5,279.2,107.6,278.7,107.7z M319.2,111.4c0.3,0,0.5,0,0.8,0l0,0V96.2c-0.3,0-0.5,0-0.8,0V111.4z M253.4,128.9l27.9,82.9
	c0.4-0.4,0.8-0.9,1.2-1.4l-28.3-84.1C254,127.1,253.7,128,253.4,128.9z M254.7,108.7l11.3,37.6h1.6l-11.2-37.5
	C255.8,108.8,255.3,108.8,254.7,108.7z M262.9,109.1l9.7,37.2h1.6l-9.8-37.3C263.9,109.1,263.4,109.1,262.9,109.1z M291.2,158.8
	c1.4,10.6,6.4,19.7,13.3,25.2c0.5-0.3,1-0.5,1.6-0.8c-6.9-5.2-11.9-14-13.3-24.4L291.2,158.8L291.2,158.8z M314.9,209.4
	c0.5,0,1-0.1,1.6-0.1l-0.6-15.4c-0.5-0.1-1.1-0.1-1.6-0.2L314.9,209.4z M320,191.7v-1.6l0,0c-18.6,0-34-13.6-36.9-31.3h-1.6
	C284.4,177.5,300.5,191.7,320,191.7L320,191.7z M312.3,96.9c-0.5,0.1-1,0.2-1.6,0.4l0.6,14.9c0.5-0.1,1-0.2,1.6-0.3L312.3,96.9z
	 M310.6,209.7c0.5-0.1,1-0.1,1.6-0.2L311,193c-0.5-0.1-1.1-0.2-1.6-0.4L310.6,209.7z M304,99.5c-0.5,0.2-1,0.4-1.5,0.6l1.1,14.7
	c0.5-0.2,1-0.4,1.5-0.6L304,99.5z M306.4,210.3c0.5-0.1,1-0.2,1.6-0.2l-2.1-18.5c-0.6-0.2-1.1-0.4-1.7-0.6L306.4,210.3z
	 M283.1,146.3c3-17.6,18.4-31.1,36.9-31.1l0,0v-1.6l0,0c-19.4,0-35.4,14.1-38.5,32.6h1.6V146.3z M45.8,146.3h1.6l9.7-37.2
	c-0.5,0-1.1,0-1.6,0L45.8,146.3z M244.8,118.6c0-2.6-2.1-4.8-4.8-4.8s-4.8,2.1-4.8,4.8v0.8h1.6v-0.8c0-1.8,1.4-3.2,3.2-3.2
	s3.2,1.4,3.2,3.2c0,6.1-2.5,11.5-6.8,14.6c-5.8,4.3-12.8,2.5-16.3,0.4c-0.2,0-0.4,0-0.6-0.1c0.1,0.7,0.3,1.3,0.5,1.8
	c5,2.7,12,3,17.3-0.9C242,131.1,244.8,125.2,244.8,118.6z M295.9,102.6c-0.5,0.2-1,0.4-1.5,0.6l1.8,15.7c0.5-0.3,1-0.7,1.5-1
	L295.9,102.6z M252.8,118.6c0,5-1.3,9.7-3.6,13.9l13,34.9C249,178,233.5,182.9,218,182.9c-30.3,0-39.6-13-58-13s-27.6,13-58,13
	c-15.5,0-31-5-44.2-15.5l13-34.9c-2.3-4.2-3.6-8.9-3.6-13.9c0-7.1,5.7-12.8,12.8-12.8c7.1,0,12.8,5.7,12.8,12.8
	c0,5.1-4.4,9.2-9.5,8.8c1.9,2.9,4.6,4.5,7.6,4.5c4,0,6-1.6,12.1-1.6h0.8v0.8c0,3.9-1,6.9-2.9,8.5c7.1-0.9,8.1-5.6,17.4-5.6h0.8v0.8
	c0,2.4-0.1,4.8-1,6.7c6.5-4.1,8.6-12.2,16.7-12.2h0.8v0.8c0,3.1,0,6.9-2.2,9.9c6.9-2.6,14.7-4.7,26.6-4.7s19.8,2.1,26.6,4.7
	c-2.2-3-2.2-6.9-2.2-9.9v-0.8h0.8c8.1,0,10.2,8.1,16.7,12.2c-0.9-1.9-1-4.3-1-6.7V134h0.8c9.2,0,10.2,4.7,17.4,5.6
	c-1.9-1.7-2.9-4.6-2.9-8.5v-0.8h0.8c6.1,0,8.1,1.6,12.1,1.6c2.9,0,5.7-1.7,7.6-4.5c-5.1,0.4-9.5-3.7-9.5-8.8
	c0-7.1,5.7-12.8,12.8-12.8C247.1,105.9,252.8,111.6,252.8,118.6L252.8,118.6L252.8,118.6L252.8,118.6z M102,148.4
	c11.1,0,18.1-2.9,25.6-6c5.4-2.2,6.4-5.6,6.4-11.4c-7.4,0.6-9.1,10-18,13.4c-2.8,1.2-5.8,1.7-8.6,1.9c1.5-0.6,3-1.3,4.3-2.2
	c3.5-0.8,5.6-1.4,5.7-8.4c-8.9,0.3-9.2,5.7-19.2,5.7c-3.1,0-6.1-0.6-8.8-1.7c1.7,0.2,3.3,0.2,5.5-0.1c5,0.8,7-2.6,7.2-7.6
	c-5.3,0.1-7.3,1.6-11.3,1.6s-7.7-2.5-9.8-6.8l-0.8-1.6l1.7,0.5c4.6,1.3,9.2-2.1,9.2-6.9c0-6.2-5-11.2-11.2-11.2s-11.2,5-11.2,11.2
	C68.8,135,83.7,148.4,102,148.4z M248.1,134.3c-6,9.3-17.3,15.6-30.1,15.6c-24,0-29.2-13-58-13s-34,13-58,13
	c-12.8,0-24.1-6.3-30.1-15.6l-12.2,32.6c11.9,9.3,26.9,14.5,42.3,14.5c30,0,39.1-13,58-13s28,13,58,13c15.5,0,30.5-5.1,42.3-14.5
	L248.1,134.3z M251.2,118.6c0-6.2-5-11.2-11.2-11.2s-11.2,5-11.2,11.2c0,4.8,4.6,8.3,9.2,6.9l1.7-0.5l-0.8,1.6
	c-2.2,4.3-5.8,6.8-9.8,6.8c-4.1,0-6-1.4-11.3-1.6c0.2,5.1,2.2,8.4,7.2,7.6c2.1,0.4,3.8,0.3,5.5,0.1c-2.7,1.1-5.7,1.7-8.8,1.7
	c-10,0-10.3-5.4-19.2-5.7c0.1,6.8,2.1,7.5,5.7,8.4c1.4,0.9,2.8,1.6,4.3,2.2c-2.8-0.2-5.8-0.7-8.6-1.9c-8.9-3.4-10.6-12.8-18-13.4
	c0,5.8,1.1,9.2,6.4,11.4c7.4,3.1,14.4,6,25.6,6C236.3,148.4,251.2,135,251.2,118.6z M285.7,207l-14.4-48.1h-1.6l14.8,49.4
	C284.9,207.8,285.3,207.4,285.7,207z M288,105.4c-0.5,0.2-1,0.3-1.5,0.4l2.9,19.1c0.4-0.5,0.9-1,1.4-1.4L288,105.4z M311.1,181.6
	c-5.3-5.7-7.9-14.9-8.7-22.8h-1.6c1,9.7,4.2,18.1,8.6,23.3C310,181.9,310.5,181.8,311.1,181.6z M291.2,146.3h1.6
	c1.5-10.3,6.4-19.1,13.2-24.2c-0.6-0.2-1.1-0.5-1.6-0.8C297.6,126.8,292.6,135.8,291.2,146.3z M315.9,180.9
	c-2.5-6.3-3.6-15.3-3.9-22.1h-1.6c0.4,9.1,1.9,17,3.9,22.3C314.8,181,315.4,180.9,315.9,180.9z M189.5,133.9c-0.6-0.4-1.2-0.8-1.8-1
	c0,0.3,0,0.6,0.1,0.9c1,2.5,2.6,4.7,4.4,6.6c0.3,0.1,0.6,0.3,0.9,0.4c1.5,0.6,2.9,1.2,4.4,1.8C194.1,140.5,191.2,137.6,189.5,133.9z
	 M307.7,156.3h-2.6v-7.5h2.6c2.5,0,4.2,1.2,4.2,3.7C311.9,155.1,310.2,156.3,307.7,156.3z M310.2,152.6c0-1.6-0.8-2.3-2.5-2.3h-0.9
	v4.6h0.9C309.4,154.9,310.2,154.2,310.2,152.6z M300.8,146.3h1.6c0.8-7.8,3.4-16.9,8.7-22.6c-0.6-0.1-1.2-0.3-1.7-0.4
	C305,128.5,301.8,136.7,300.8,146.3z M314.3,124.3c-2,5.2-3.4,13-3.9,22h1.6c0.5-9.7,2.1-17.2,3.9-21.8
	C315.4,124.5,314.8,124.4,314.3,124.3z M299.8,211.8l-4.9-26.2c-0.6-0.5-1.3-1-1.9-1.5l5.3,28.2C298.7,212,299.2,211.9,299.8,211.8z
	 M293.7,203.3l-5.4-24.1c-0.8-1-1.6-2-2.3-3l6.1,27.3C292.6,203.4,293.1,203.3,293.7,203.3z M282.3,156.5c-2.3,0-3.7-1.5-3.7-3.9
	s1.4-3.9,3.7-3.9c2.3,0,3.7,1.5,3.7,3.9S284.6,156.5,282.3,156.5z M282.3,155.1c1.3,0,2.3-1,2.3-2.5s-0.9-2.5-2.3-2.5
	c-1.3,0-2.3,1-2.3,2.5S280.9,155.1,282.3,155.1z M289.4,204.4l-11.9-45.6h-1.6l12.1,46.4C288.5,204.9,288.9,204.6,289.4,204.4z
	 M271.4,150.4l1.4,5.9h2.1l2.1-7.5h-1.6c-0.2,0.8-1.5,5-1.6,5.8l0,0c0-0.1-1.2-5.6-1.3-5.8h-2.3c0,0.2-1.1,5.6-1.1,5.8l0,0
	c-0.1-0.8-1.5-5-1.8-5.8h-1.6l2.4,7.5h2.1C270.2,156.1,271.4,150.4,271.4,150.4L271.4,150.4z M303.8,210.8l-3.2-21.6
	c-0.6-0.3-1.2-0.6-1.7-1l3.4,22.9C302.8,211,303.3,210.9,303.8,210.8z M297.5,148.9v7.5h5.7V155h-4.1v-6.1H297.5z M61.3,261.5
	l3.7,7.6c0.1-0.9,0.3-1.7,0.5-2.5l-2.5-5.2C62.4,261.5,61.9,261.5,61.3,261.5z M315.9,277c-0.6-0.1-1.1-0.1-1.6-0.2
	c-2,5.2-3.4,13-3.9,22h1.6C312.5,289.2,314.1,281.7,315.9,277z M314.9,249l-0.6,15.3c0.5-0.1,1.1-0.1,1.6-0.2l0.6-15.2
	C315.9,248.9,315.4,248.9,314.9,249z M319.2,263.9c0.3,0,0.5,0,0.8,0l0,0v-15.3c-0.3,0-0.5,0-0.8,0V263.9z M300.8,298.8h1.6
	c0.8-7.8,3.4-16.9,8.7-22.6c-0.6-0.1-1.2-0.3-1.7-0.4C305,281,301.8,289.2,300.8,298.8z M307.7,301.4h-2.6v3.7h1.6v-2.3h0.9
	c1.8,0,2.5,0.7,2.5,2.3l0,0h1.7l0,0C311.9,302.6,310.2,301.4,307.7,301.4z M299.1,305.1v-3.7h-1.5v3.7H299.1z M291.2,298.8h1.6
	c1.5-10.3,6.4-19.1,13.2-24.2c-0.6-0.2-1.1-0.5-1.6-0.8C297.6,279.3,292.6,288.3,291.2,298.8z M320,301.3c-0.8,0.3-1.4,1-1.5,2
	c0,1,0.4,1.5,1.1,1.9h0.4V301.3z M310.5,249.9l-1.1,15.4c0.5-0.1,1.1-0.3,1.6-0.4l1.1-15.4C311.6,249.6,311,249.7,310.5,249.9z
	 M281.5,298.8h1.6c3-17.6,18.4-31.1,36.9-31.1l0,0v-1.6l0,0C300.6,266.2,284.6,280.3,281.5,298.8z M254.1,291.7l0.8,2.2l13.3-32.4
	c-0.6,0-1.2,0.1-1.7,0.1L254.1,291.7z M276.5,260.5l-15,44.6h1.7l15.1-44.9C277.6,260.3,277.1,260.4,276.5,260.5z M271.5,261.2
	l-14.4,38.4l0.8,2.3l15.3-40.9C272.6,261,272.1,261.1,271.5,261.2z M301.3,253l-2.5,16.7c0.6-0.3,1.2-0.7,1.7-1l2.4-16.3
	C302.5,252.5,301.9,252.8,301.3,253z M306,251.2l-1.8,15.7c0.5-0.2,1.1-0.4,1.7-0.6l1.8-15.6C307.1,250.9,306.6,251.1,306,251.2z
	 M248.5,219.8c9.4,4,18.8,2.4,25.3-3.8c0.2-0.2,1.2-1.1,2-2.3l0,0c-0.9,0.1-1.8,0.3-2.5,0.6c-0.2,0.3-0.5,0.5-0.6,0.6
	c-6.2,5.9-15,7.2-23.6,3.5c-9.8-4.2-16.3-13.6-16.3-23.4c0-4,3.2-7.2,7.2-7.2s7.2,3.2,7.2,7.2c0,1.8-1.4,3.2-3.2,3.2
	s-3.2-1.4-3.2-3.2v-0.8h-1.6v0.8c0,2.6,2.1,4.8,4.8,4.8s4.8-2.1,4.8-4.8c0-4.8-3.9-8.8-8.8-8.8s-8.8,3.9-8.8,8.8
	C231.2,205.3,238.2,215.3,248.5,219.8z M294.5,305.1h-6.1v-3.7h3.4c1.8,0,3.1,0.6,3.1,2.4C294.9,304.3,294.8,304.7,294.5,305.1z
	 M293.2,303.7c0-0.7-0.5-1-1.5-1H290v2h1.8C292.5,304.7,293.2,304.6,293.2,303.7z M287.8,216.6c1.9-1.9,3.4-4.1,4.4-6.6
	c0-0.3,0.1-0.6,0.1-0.9c-0.7,0.2-1.3,0.6-1.8,1c-1.7,3.6-4.5,6.6-8,8.6c1.5-0.6,2.9-1.2,4.4-1.8
	C287.2,216.9,287.5,216.8,287.8,216.6z M319.2,298.8h0.8v-21.6c-0.1,0-0.2,0-0.8,0V298.8z M240,39.2c1.8,0,3.2,1.4,3.2,3.2v0.8h1.6
	v-0.8c0-2.6-2.1-4.8-4.8-4.8s-4.8,2.1-4.8,4.8c0,6.6,2.8,12.5,7.4,15.9c5.3,3.9,12.2,3.6,17.3,0.9c0.2-0.5,0.4-1.1,0.5-1.8
	c-0.2,0-0.4,0-0.6,0.1c-3.5,2.1-10.5,3.9-16.3-0.4c-4.2-3.1-6.8-8.6-6.8-14.6C236.8,40.6,238.2,39.2,240,39.2z M248.5,67.3
	c9.4,4,18.8,2.4,25.3-3.8c0.2-0.2,1.2-1.1,2-2.3l0,0c-0.9,0.1-1.8,0.3-2.5,0.6c-0.2,0.3-0.5,0.5-0.6,0.6c-6.2,5.9-15,7.2-23.6,3.5
	c-9.8-4.2-16.3-13.6-16.3-23.4c0-4,3.2-7.2,7.2-7.2s7.2,3.2,7.2,7.2c0,1.8-1.4,3.2-3.2,3.2s-3.2-1.4-3.2-3.2v-0.9h-1.6v0.8
	c0,2.6,2.1,4.8,4.8,4.8s4.8-2.1,4.8-4.8c0-4.8-3.9-8.8-8.8-8.8s-8.8,3.9-8.8,8.8C231.2,52.8,238.2,62.8,248.5,67.3z M287.8,64.1
	c1.9-1.9,3.4-4.1,4.4-6.6c0-0.3,0.1-0.6,0.1-0.9c-0.7,0.2-1.3,0.6-1.8,1c-1.7,3.6-4.5,6.6-8,8.6c1.5-0.6,2.9-1.2,4.4-1.8
	C287.2,64.4,287.5,64.3,287.8,64.1z M240,191.7c1.8,0,3.2,1.4,3.2,3.2v0.8h1.6v-0.8c0-2.6-2.1-4.8-4.8-4.8s-4.8,2.1-4.8,4.8
	c0,6.6,2.8,12.5,7.4,15.9c5.3,3.9,12.2,3.6,17.3,0.9c0.2-0.5,0.4-1.1,0.5-1.8c-0.2,0-0.4,0-0.6,0.1c-3.5,2.1-10.5,3.9-16.3-0.4
	c-4.2-3.1-6.8-8.6-6.8-14.6C236.8,193.1,238.2,191.7,240,191.7z M275.9,298.8h1.6l10.7-41.1c-0.6,0.2-1.2,0.4-1.8,0.5L275.9,298.8z
	 M286,281.7c0.7-1,1.5-2,2.3-3l5.1-22.6c-0.6,0.2-1.2,0.4-1.8,0.6L286,281.7z M293,273.9c0.6-0.5,1.2-1,1.9-1.5l3.4-18.2
	c-0.6,0.2-1.1,0.4-1.7,0.7L293,273.9z M267.3,301.4h-1.6l1.2,3.7h1.6C268,303.6,267.4,301.8,267.3,301.4z M275.5,301.4
	c-0.1,0.5-0.7,2.3-1.1,3.7h1.6l1-3.7H275.5z M269.7,298.8h1.6l11.9-39.7c-0.6,0.1-1.2,0.3-1.8,0.4L269.7,298.8z M320,244.7v1.6l0,0
	c-18.4,0-27.6,13-58,13c-15.5,0-31-5-44.2-15.5l13-34.9c-2.3-4.2-3.6-8.9-3.6-13.9c0-7.1,5.7-12.8,12.8-12.8
	c7.1,0,12.8,5.7,12.8,12.8c0,5.1-4.4,9.2-9.5,8.8c1.9,2.9,4.6,4.5,7.6,4.5c4,0,6-1.6,12.1-1.6h0.8v0.8c0,3.9-1,6.9-2.9,8.5
	c7.1-0.9,8.1-5.6,17.4-5.6h0.8v0.8c0,2.4-0.1,4.8-1,6.7c6.5-4.1,8.6-12.2,16.7-12.2h0.8v0.8c0,3.1,0,6.9-2.2,9.9
	c6.9-2.6,14.7-4.7,26.6-4.7v1.6c-28.8,0-34,13-58,13c-12.8,0-24.1-6.3-30.1-15.6l-12.2,32.6c11.9,9.3,26.9,14.5,42.3,14.5
	C292,257.7,301.1,244.7,320,244.7L320,244.7z M262,224.6c11.1,0,18.1-2.9,25.6-6c5.4-2.2,6.4-5.6,6.4-11.4c-7.4,0.6-9.1,10-18,13.4
	c-2.8,1.2-5.8,1.7-8.6,1.9c1.5-0.6,3-1.3,4.3-2.2c3.5-0.8,5.6-1.4,5.7-8.4c-8.9,0.3-9.2,5.7-19.2,5.7c-3.1,0-6.1-0.6-8.8-1.7
	c1.7,0.2,3.3,0.2,5.5-0.1c5,0.8,7-2.6,7.2-7.6c-5.3,0.1-7.3,1.6-11.3,1.6s-7.7-2.5-9.8-6.8l-0.8-1.6l1.7,0.5
	c4.6,1.3,9.2-2.1,9.2-6.9c0-6.2-5-11.2-11.2-11.2s-11.2,5-11.2,11.2C228.8,211.3,243.7,224.6,262,224.6z M97.1,70.8l0.8,2.3
	l15.3-40.9c-0.6,0.1-1.2,0.1-1.8,0.2L97.1,70.8z M181.7,25.4l3.4,18.2c0.6,0.5,1.3,1,1.9,1.5l-3.6-19
	C182.9,25.9,182.3,25.7,181.7,25.4z M126,53c0.7-1,1.5-2,2.3-3l5.1-22.6c-0.6,0.2-1.2,0.4-1.8,0.6L126,53z M133,45.2
	c0.6-0.5,1.2-1,1.9-1.5l3.4-18.2c-0.6,0.2-1.1,0.4-1.7,0.7L133,45.2z M115.9,70.1h1.6L128.2,29c-0.6,0.2-1.2,0.4-1.8,0.5L115.9,70.1
	z M100.4,79.6l0.9,2.3l17-50.4c-0.6,0.1-1.2,0.2-1.8,0.3L100.4,79.6z M109.7,70.1h1.6l11.9-39.7c-0.6,0.1-1.2,0.3-1.8,0.4
	L109.7,70.1z M186.7,27.3l5.1,22.6c0.8,1,1.6,2,2.3,3l-5.6-25C187.8,27.7,187.2,27.5,186.7,27.3z M224.4,98.7l3.6,10.7
	c0.4-0.5,0.8-0.9,1.2-1.4l-2.7-8.2C225.8,99.5,225.1,99.1,224.4,98.7z M93.5,99.9l-2.7,8.2c0.4,0.4,0.8,0.9,1.2,1.4l3.6-10.7
	C94.9,99.1,94.2,99.5,93.5,99.9z M40,142.3c0.3,1.2,0.6,2.5,0.8,3.7l8.4-37.3c-0.5,0-1.1-0.1-1.6-0.2L40,142.3z M93.7,129.2l14-46.7
	H106l-14,46.9C92.6,129.5,93.1,129.4,93.7,129.2z M212.3,82.6l14,46.7c0.6,0.1,1.1,0.2,1.7,0.3l-14-47H212.3z M196.7,30.4l11.9,39.7
	h1.6l-11.7-39.2C197.9,30.7,197.3,30.6,196.7,30.4z M29.5,57.7c-0.6-0.4-1.2-0.8-1.8-1c0,0.3,0,0.6,0.1,0.9c1,2.5,2.6,4.7,4.4,6.6
	c0.3,0.1,0.6,0.3,0.9,0.4c1.5,0.6,2.9,1.2,4.4,1.8C34.1,64.3,31.2,61.3,29.5,57.7z M29.4,301.4l-1.5,3.7h1.7l1.6-3.7H29.4z
	 M51.9,3.8V2.4h-4.3V0.7h3.5V0.1H46v3.7H51.9z M33,301.4v3.7h1.6v-3.7H33z M40.4,4c1.8,0,3.2-0.9,3.4-2.7H42
	c-0.1,0.9-0.7,1.4-1.7,1.4c-1.4,0-1.9-1.2-1.9-2.5h-1.6C36.9,2.5,38.2,4,40.4,4z M252.2,286.6l11.2-25c-0.5,0-0.9,0-1.4,0
	c-0.1,0-0.2,0-0.3,0l-10.3,22.9L252.2,286.6z M43.5,260.5c-0.6-0.1-1.2-0.2-1.8-0.3l15.1,44.9h1.7L43.5,260.5z M47.6,304.3v-1.6h4.1
	v-1.4H46v3.7h5.1v-0.8L47.6,304.3L47.6,304.3z M84.8,42.4c0-2.6-2.1-4.8-4.8-4.8s-4.8,2.1-4.8,4.8v0.8h1.6v-0.8
	c0-1.8,1.4-3.2,3.2-3.2s3.2,1.4,3.2,3.2c0,6.1-2.5,11.5-6.8,14.6c-5.8,4.3-12.8,2.5-16.3,0.4c-0.2,0-0.4,0-0.6-0.1
	c0.1,0.7,0.3,1.3,0.5,1.8c5,2.7,12,3,17.3-0.9C82,54.9,84.8,48.9,84.8,42.4z M52.3,6.3l14,46.7c0.6,0.1,1.1,0.2,1.7,0.3L54,6.4
	L52.3,6.3L52.3,6.3z M94.1,62.9l0.8,2.2l13.3-32.4c-0.6,0-1.2,0.1-1.7,0.1L94.1,62.9z M257,261.4l-2.5,5.2c0.3,0.8,0.4,1.6,0.5,2.5
	l3.7-7.6C258.1,261.5,257.6,261.5,257,261.4z M80,33.6c-4.8,0-8.8,3.9-8.8,8.8c0,2.6,2.1,4.8,4.8,4.8s4.8-2.1,4.8-4.8v-0.8h-1.6v0.8
	c0,1.8-1.4,3.2-3.2,3.2s-3.2-1.4-3.2-3.2c0-4,3.2-7.2,7.2-7.2s7.2,3.2,7.2,7.2c0,9.8-6.6,19.2-16.3,23.4c-8.6,3.7-17.4,2.4-23.6-3.5
	c-0.2-0.1-0.4-0.4-0.6-0.6c-0.7-0.2-1.6-0.4-2.5-0.6l0,0c0.9,1.2,1.8,2.1,2,2.3c6.6,6.3,16,7.8,25.3,3.8
	c10.3-4.4,17.3-14.4,17.3-24.9C88.8,37.5,84.8,33.6,80,33.6z M92.8,42.4L92.8,42.4L92.8,42.4L92.8,42.4c0,5-1.3,9.7-3.6,13.9
	l13,34.9C89,101.8,73.5,106.7,58,106.7c-30.3,0-39.6-13-58-13v-1.6c18.9,0,28,13,58,13c15.5,0,30.5-5.1,42.3-14.5L88.1,58
	c-6,9.3-17.3,15.6-30.1,15.6c-24,0-29.2-13-58-13l0,0V59l0,0c11.9,0,19.8,2.1,26.6,4.7c-2.2-3-2.2-6.9-2.2-9.9V53h0.8
	c8.1,0,10.2,8.1,16.7,12.2c-0.9-1.9-1-4.3-1-6.7v-0.8h0.8c9.2,0,10.2,4.7,17.4,5.6c-1.9-1.7-2.9-4.6-2.9-8.5V54H57
	c6.1,0,8.1,1.6,12.1,1.6c2.9,0,5.7-1.7,7.6-4.5c-5.1,0.4-9.5-3.7-9.5-8.8c0-7.1,5.7-12.8,12.8-12.8C87.1,29.6,92.8,35.3,92.8,42.4z
	 M91.2,42.4c0-6.2-5-11.2-11.2-11.2s-11.2,5-11.2,11.2c0,4.8,4.6,8.3,9.2,6.9l1.7-0.5l-0.8,1.6c-2.2,4.3-5.8,6.8-9.8,6.8
	c-4.1,0-6-1.4-11.3-1.6C58,60.7,60,64,65,63.2c2.1,0.4,3.8,0.3,5.5,0.1c-2.7,1.1-5.7,1.7-8.8,1.7c-10,0-10.3-5.4-19.2-5.7
	c0.1,6.8,2.1,7.5,5.7,8.4c1.4,0.9,2.8,1.6,4.3,2.2c-2.8-0.2-5.8-0.7-8.6-1.9c-8.9-3.4-10.6-12.8-18-13.4c0,5.8,1.1,9.2,6.4,11.4
	c7.4,3.1,14.4,6,25.6,6C76.3,72.1,91.2,58.8,91.2,42.4z M64.4,22.4L68,33.1c0.4-0.5,0.8-0.9,1.2-1.4l-2.7-8.2
	C65.8,23.2,65.1,22.8,64.4,22.4z M260.8,51.8c0.5,0,1.1-0.1,1.6-0.1l11.9-45.4h-1.6L260.8,51.8z M183.2,4.9l-4,3.5
	c0.6,0.2,1.1,0.4,1.7,0.6l3.1-2.7l2.8,4.9l2.4,1l-3.9-6.8l3.5-3.1l-1.7-0.7L184.5,4l-2.2-3.9h-1.9L183.2,4.9z M206,12.9l2.7,4.5
	c-0.7-0.1-1.4-0.2-2.1-0.3l-2.6-4.4l-2.1-0.4v4c-0.6-0.1-1.1-0.2-1.6-0.4V6.2c1.9,0.5,4.3,1.1,4.3,1.1c2.6,0.5,3.8,1.6,3.8,3.4
	C208.4,12.1,207.4,12.7,206,12.9z M206.7,10.4c0-1.1-0.8-1.3-2.3-1.6l-2.5-0.5v2.4l2.5,0.6C205.6,11.5,206.7,11.5,206.7,10.4z
	 M218.8,10.1c0-0.3,0-0.5,0-1.6c-2.9,0-5.2-0.1-7.7-0.3v9.4c3,0.2,5.3,0.3,8,0.2c0-0.1,0-1.4,0-1.5c-2.1,0-4.2,0-6.3-0.2v-2.4
	c1.7,0.1,3.4,0.2,5.2,0.2v-1.5c-1.7,0-3.5-0.1-5.2-0.2V9.9C214.9,10.1,216.8,10.1,218.8,10.1z M147.8,2.6c-1.3,0.2-2.6,0.6-3.9,1.1
	c0.3-0.8,0.9-2.4,1.3-3.6h-1.6c-1.1,2.8-2.1,5.7-3.1,8.4c0.6-0.2,1.3-0.5,2-0.7c0.3-0.8,0.6-1.6,0.8-2.4c1.7-0.7,3.4-1.2,5.2-1.5
	c0.2,0.4,0.7,1.6,0.9,1.9c0.2-0.1,1.5-0.3,1.7-0.3c-0.9-1.8-1.8-3.7-2.7-5.5h-1.7C147,1,147.5,2.1,147.8,2.6z M225,16.3
	c-0.8,0.1-1.8-0.1-2.3-0.8l-1.9,0.2c0.5,1.5,2.2,2.2,4.2,2c2.7-0.3,4.4-1.6,4.4-3.3c0-2.3-2.1-2.5-4-2.6c-1.4-0.1-2.7-0.2-2.7-1.2
	c0-0.9,0.9-1.5,2.3-1.6c0.9-0.1,2,0.1,2.2,1c0.4-0.1,1.1-0.2,1.8-0.4c-0.4-1.6-2.2-2.2-4-2c-2.5,0.3-4.1,1.5-4.1,3.2
	c0,2.4,2.8,2.5,3.9,2.5c1.7,0.1,2.7,0.3,2.7,1.3C227.6,15.3,226.7,16.1,225,16.3z M234.4,65.1l-10.6,25.7c11.7,8.1,24.6,12,38.2,12
	c29.7,0,38.2-13,58-13l0,0v-1.6l0,0c-20.3,0-28.6,13-58,13c-13.1,0-25.6-3.8-36.2-11l9.2-22.4c7.3,6.4,16.8,10,27,10
	c25.1,0,30.2-13,58-13v-1.6c-28.2,0-33.4,13-58,13C251.6,76.2,242.5,72.6,234.4,65.1z M135.5,0.1C132.8,1,131,3.6,131,6.8
	c0,3.1,1.7,4.8,4.5,3.9c2.1-0.7,3.5-2.3,4-4.3l-1.7,0.4c-0.4,1.1-1.2,2-2.4,2.4c-2.1,0.7-2.8-0.7-2.8-2.9c0-1.7,1.2-4,2.9-4.6
	c1.1-0.3,2.1-0.3,2.4,0.8l1.5-0.5c-0.2-1-0.7-1.6-1.4-1.9L135.5,0.1C135.6,0.1,135.5,0.1,135.5,0.1z M152.8,5.4
	c0.5-0.1,1-0.1,1.5-0.2c0-1.7,0-3.4,0-5.1h-1.5C152.8,1.9,152.8,3.6,152.8,5.4z M253.7,53l14-46.7H266l-14,46.9
	C252.6,53.2,253.1,53.1,253.7,53z M253.5,23.6l-2.7,8.2c0.4,0.4,0.8,0.9,1.2,1.4l3.6-10.7C254.9,22.8,254.2,23.2,253.5,23.6z
	 M282.3,4c2.3,0,3.7-1.5,3.7-3.9h-1.5c0,1.5-0.9,2.5-2.3,2.5c-1.3,0-2.3-1-2.3-2.5h-1.5C278.5,2.5,280,4,282.3,4z M263.1,0.1h-1.7
	l-1.1,3.2l0.9,2.3L263.1,0.1z M196.4,0.1H192c7,2.8,14.5,5.4,26,5.4c7.7,0,15.1-1.9,21.6-5.4H236c-5.4,2.5-11.3,3.8-18,3.8
	C208.8,3.9,202.2,2.2,196.4,0.1z M235.2,14.1c-0.7,0.2-1.5,0.1-2-0.3l-1.9,0.4c0.6,1.1,2,1.9,3.9,1.4c2.6-0.6,4.3-2.2,4.2-3.9
	c0-2.3-2-2.3-3.9-2.2c-1.4,0.1-2.6,0.1-2.6-0.9c0-0.9,0.8-1.6,2.2-1.9c0.8-0.2,1.8-0.2,2.1,0.6c0.5-0.2,1.1-0.4,1.7-0.7
	c-0.5-1.5-2.2-1.8-3.8-1.4c-2.5,0.6-4,2-4,3.7c0,2.4,2.7,2.2,3.8,2.1c1.6-0.1,2.6-0.1,2.7,1C237.7,12.8,236.8,13.7,235.2,14.1z
	 M170.6,0.1c0,1.9,0,3.9,0,5.8c2.7,0.5,5.1,1.2,7.5,2.1c0-0.5,0-1.1,0-1.6c-2-0.7-4-1.2-5.9-1.7c0-0.9,0-1.8,0-2.7
	c1.6,0.4,3.2,0.8,4.9,1.4c0-0.5,0-1,0-1.6c-1.6-0.5-3.2-1-4.9-1.4c0-0.1,0-0.2,0-0.3H170.6z M218,1.5c3.7,0,7.4-0.5,10.8-1.4h-24
	C208.7,1,212.9,1.5,218,1.5z M102,22.5c29.5,0,36.4-13,58-13s28.5,13,58,13c11.3,0,21.9-2.9,32-8.7l-6.1-13.7h-1.7l5.8,13
	c-9,5.1-19.4,7.8-29.9,7.8c-29.3,0-35.9-13-58-13s-28.7,13-58,13c-10.6,0-20.9-2.7-29.9-7.8l5.8-13h-1.7l-6.1,13.7
	C80.1,19.6,90.7,22.5,102,22.5z M162.2,4.9c0-1.6,0-3.2,0-4.8h-1.5c0,0.8,0,1.5,0,2.3c-0.7-0.8-1.4-1.5-2.1-2.3h-2.2
	c1.4,1.6,2.9,3.2,4.3,4.8C161.2,4.9,161.7,4.9,162.2,4.9z M102,3.9c-6.7,0-12.5-1.4-18-3.8h-3.6c6.5,3.5,13.9,5.4,21.6,5.4
	c11.5,0,19-2.6,26-5.4h-4.4C117.8,2.2,111.2,3.9,102,3.9z M58.8,5.7l0.9-2.3l-1.1-3.2h-1.7L58.8,5.7z M102,30.5
	c30.3,0,39.6-13,58-13s27.7,13,58,13c15.4,0,31-4.9,44.2-15.5l-5.6-14.8H255l5.4,14.3C248.5,23.8,233.5,29,218.1,29
	c-30,0-39.1-13-58-13s-28,13-58,13c-15.5,0-30.5-5.1-42.3-14.5l5.4-14.3h-1.7L57.9,15C71,25.5,86.5,30.5,102,30.5z M102,26.5
	c29.7,0,38.2-13,58-13s28.3,13,58,13c13.5,0,26.4-3.8,38.2-12l-5.9-14.4h-1.7l5.7,13.8c-10.6,7.2-23.1,11-36.2,11
	c-29.4,0-37.7-13-58-13s-28.6,13-58,13c-13.1,0-25.6-3.8-36.2-11l5.7-13.8h-1.7L64,14.5C75.6,22.6,88.4,26.5,102,26.5z M192.3,13.4
	l-1.6-0.6V3c3.3,1,4.3,1.4,4.9,1.6c2,0.9,2.9,1.9,2.9,3.6c0,1.5-1.3,2.9-4.2,2l-2-0.6L192.3,13.4L192.3,13.4z M192.3,8.1l1.9,0.6
	c1.7,0.5,2.7,0.7,2.7-0.7c0-1.1-1.1-1.7-2.7-2.2l-1.9-0.6V8.1z M122.4,11c1,1.1,2,2.2,3,3.2c-0.6,0.2-1.2,0.4-1.8,0.6
	c-1-1-2-2.1-3-3.2c-0.9,0.2-1.7,0.4-2.6,0.6c0,1.3,0,2.7,0,4c-0.5,0.1-1.1,0.2-1.6,0.3c0-3.2,0-6.4,0-9.6c1-0.2,2.4-0.5,4.4-1
	c2.6-0.7,3.9-0.2,3.9,1.6C124.8,9.4,123.5,10.4,122.4,11z M123,8.2c0-1.1-0.6-1.1-2.1-0.6c-0.9,0.2-1.8,0.5-2.7,0.7
	c0,0.8,0,1.6,0,2.5c0.9-0.2,1.8-0.4,2.6-0.6C122.4,9.7,123,8.7,123,8.2z M128.9,13.1V3c-0.5,0.2-1,0.4-1.5,0.6v10
	C127.8,13.5,128.3,13.3,128.9,13.1z M113.7,9.2c0-0.5,0-1.1,0-1.6c-2.4,0.4-5,0.7-7.8,0.9c0,3.1,0,6.3,0,9.4
	c2.9-0.1,5.6-0.4,8.1-0.8c0-0.5,0-1,0-1.5c-2.2,0.3-4.3,0.5-6.5,0.6c0-0.8,0-1.5,0-2.3c1.8-0.1,3.5-0.3,5.3-0.6c0-0.5,0-1,0-1.6
	c-1.8,0.3-3.5,0.5-5.3,0.6c0-0.8,0-1.6,0-2.4C109.6,9.8,111.7,9.5,113.7,9.2z M102,17.9c0.3,0,0.6,0,1,0V8.5c-0.3,0-0.6,0-1,0
	c-0.6,0-1.3,0-1.9-0.1L97,16.1c-0.4-1.1-2.6-6.9-3.2-8.3c-0.9-0.2-1.9-0.3-2.8-0.5l-0.1,9.6c0.5,0.1,1.1,0.2,1.6,0.3
	c0-1.7,0-6.9,0-8c0.4,1.2,2.9,7.1,3.5,8.5c0.6,0.1,1.2,0.1,1.9,0.2c0.5-1.1,3.1-6.9,3.5-8.1c0,1.1,0,6.7,0,8.2
	C101.6,17.9,101.8,17.9,102,17.9z M320,92.2v1.6l0,0c-18.4,0-27.6,13-58,13c-15.5,0-31-5-44.2-15.5l13-34.9
	c-2.3-4.2-3.6-8.9-3.6-13.9c0-7.1,5.7-12.8,12.8-12.8c7.1,0,12.8,5.7,12.8,12.8c0,5.1-4.4,9.2-9.5,8.8c1.9,2.9,4.6,4.5,7.6,4.5
	c4,0,6-1.6,12.1-1.6h0.8V55c0,3.9-1,6.9-2.9,8.5c7.1-0.9,8.1-5.6,17.4-5.6h0.8v0.8c0,2.4-0.1,4.8-1,6.7c6.5-4.1,8.6-12.2,16.7-12.2
	h0.8V54c0,3.1,0,6.9-2.2,9.9c6.9-2.6,14.7-4.7,26.6-4.7v1.6c-28.8,0-34,13-58,13c-12.8,0-24.1-6.3-30.1-15.6l-12.2,32.6
	c11.9,9.3,26.9,14.5,42.3,14.5C292,105.2,301.1,92.2,320,92.2L320,92.2z M262,72.1c11.1,0,18.1-2.9,25.6-6c5.4-2.2,6.4-5.6,6.4-11.4
	c-7.4,0.6-9.1,10-18,13.4c-2.8,1.2-5.8,1.7-8.6,1.9c1.5-0.6,3-1.3,4.3-2.2c3.5-0.8,5.6-1.4,5.7-8.4c-8.9,0.3-9.2,5.7-19.2,5.7
	c-3.1,0-6.1-0.6-8.8-1.7c1.7,0.2,3.3,0.2,5.5-0.1c5,0.8,7-2.6,7.2-7.6c-5.3,0.1-7.3,1.6-11.3,1.6s-7.7-2.5-9.8-6.8l-0.8-1.6l1.7,0.5
	c4.6,1.3,9.2-2.1,9.2-6.9c0-6.2-5-11.2-11.2-11.2s-11.2,5-11.2,11.2C228.8,58.8,243.7,72.1,262,72.1z M115.1,0.1h-24
	c3.5,0.9,7.1,1.4,10.8,1.4C107.1,1.5,111.3,1,115.1,0.1z M83.1,4.7c0.8,0.3,1.6,0.6,2.4,0.9l3.9,10.9c-0.6-0.1-1.2-0.3-1.9-0.4
	l-1-2.7c-1.6-0.5-3.2-1.1-4.9-1.8c-0.4,1-0.8,1.8-1,2.3c-0.5-0.2-1-0.4-1.5-0.6L83.1,4.7z M84,6.4c-0.1,0.3-0.9,2.1-1.7,3.8
	c1.2,0.5,2.4,1,3.6,1.4L84,6.4z M113.9,78.4L113.9,78.4c0-0.1-1.3-5.6-1.3-5.8h-2.3c0,0.2-1.1,5.6-1.1,5.8l0,0
	c-0.1-0.8-1.5-5-1.8-5.8h-1.6l2.4,7.5h2.1c0.1-0.2,1.2-5.9,1.2-5.9l0,0l1.4,5.9h2.1l2.1-7.5h-1.6C115.2,73.4,114,77.6,113.9,78.4z
	 M284.7,21.8c-0.4-0.7-0.8-1.4-1.2-2.1l-6.7,35.9c0.7,0,1.1,0,1.6,0L284.7,21.8z M280,10.6c-0.3-1.2-0.6-2.5-0.8-3.7l-11.5,51.3
	c0.6-0.3,1.2-0.6,1.8-0.9L280,10.6z M237.7,72.9L230,90c10.1,5.9,20.7,8.7,32,8.7c29.5,0,36.4-13,58-13l0,0v-1.6l0,0
	c-22.1,0-28.7,13-58,13c-10.6,0-20.9-2.7-29.9-7.8l6.3-14.1c7,4.3,15.1,6.5,23.6,6.5c26,0,31.3-13,58-13v-1.6c-27.2,0-32.3,13-58,13
	C252.7,80.2,245,77.5,237.7,72.9z M287.2,53.2l3.6-23.8c-0.5-0.5-0.9-1-1.4-1.4l-4,26.8C285.9,54.2,286.6,53.7,287.2,53.2z
	 M304.7,73.5c0.7-0.2,1.3-0.3,2-0.5c1.5,2.9,3,5.9,4.4,8.8c-0.2,0-1.5,0.3-1.7,0.3c-0.2-0.4-0.7-1.6-0.9-1.9
	c-1.7,0.3-3.5,0.8-5.2,1.5c-0.3,0.8-0.6,1.6-0.8,2.4c-0.7,0.2-1.3,0.4-2,0.7C301.8,81.1,303.2,77.3,304.7,73.5z M305.8,74.6
	c-0.1,0.3-1.4,3.9-1.9,5.3c1.3-0.5,2.6-0.8,3.9-1.1C307.2,77.7,305.8,74.6,305.8,74.6z M320,77.9c-1.8-2-3.6-4-5.4-5.9
	c-0.6,0-1.2,0.1-1.8,0.2c0,3.2,0,6.3,0,9.5c0.5-0.1,1-0.1,1.5-0.2c0-2.5,0-5,0-7.4c1.9,2.1,3.8,4.2,5.7,6.4V77.9z M290,1.2h1.5
	c0,0,1.7,2.6,1.8,2.7h1.9l-2-2.9c0.6-0.2,1-0.5,1.3-0.9h-6.1v3.7h1.6L290,1.2L290,1.2z M272.9,3.8h2.1l1-3.7h-1.6
	c-0.3,0.9-0.5,1.8-0.5,2.1l0,0c0,0-0.2-1-0.4-2.1H272L272.9,3.8z M320,39.2v-1.6l0,0c-18.6,0-34-13.6-36.9-31.3h-1.6
	C284.4,25,300.5,39.2,320,39.2L320,39.2z M270.2,3.8c0-0.1,0.4-2.1,0.8-3.7h-1.4c-0.2,1.1-0.4,2-0.4,2.1l0,0c0-0.3-0.3-1.1-0.6-2.1
	H267l1.2,3.7H270.2z M312.2,57.1l0.6-16.1c-0.5-0.1-1-0.2-1.6-0.3l-0.6,16.6C311.2,57.2,311.7,57.1,312.2,57.1z M303.6,58.3
	l1.5-19.5c-0.5-0.2-1-0.4-1.5-0.6l-1.5,20.5C302.5,58.6,303.1,58.4,303.6,58.3z M294.8,50.7h1.1l1.8-15.7c-0.5-0.3-1-0.7-1.5-1
	l-1.9,16.8C294.4,50.8,294.6,50.7,294.8,50.7z M320,0.1h-0.4c0.1,0.1,0.2,0.1,0.4,0.2V0.1z M295.6,77.9c1.1-0.3,2.1-0.3,2.4,0.8
	l1.5-0.5c-0.4-2-2.1-2.5-4-1.9c-2.7,0.9-4.5,3.5-4.5,6.7c0,3.1,1.7,4.8,4.5,3.9c2.1-0.7,3.5-2.3,4-4.3l-1.7,0.4
	c-0.4,1.1-1.2,2-2.4,2.4c-2.1,0.7-2.8-0.7-2.8-2.9C292.6,80.8,293.8,78.5,295.6,77.9z M320,28.2V6.3h-0.8v21.9
	C320,28.2,319.9,28.2,320,28.2z M320,41.6L320,41.6c-0.3,0-0.5,0-0.8,0v15.2c0.3,0,0.5,0,0.8,0V41.6z M303.2,2.4h-4.1V0.1h-1.5v3.7
	h5.7V2.4H303.2z M307.7,2.4h-0.9V0.1h-1.6v3.7h2.6c2.5,0,4.2-1.2,4.2-3.7h-1.7C310.2,1.7,309.4,2.4,307.7,2.4z M291.2,6.3
	c1.4,10.6,6.4,19.7,13.3,25.2c0.5-0.3,1-0.5,1.6-0.8c-6.9-5.2-11.9-14-13.3-24.4H291.2z M315.9,28.4c-2.5-6.3-3.6-15.3-3.9-22.1
	h-1.6c0.4,9.1,1.9,17,3.9,22.3C314.8,28.5,315.4,28.4,315.9,28.4z M311.1,29.1c-5.3-5.7-7.9-14.9-8.7-22.8h-1.6
	c1,9.7,4.2,18.1,8.6,23.3C310,29.4,310.5,29.3,311.1,29.1z M282.4,87.3c1,1.1,2,2.2,3,3.2c-0.6,0.2-1.2,0.4-1.8,0.6
	c-1-1-2-2.1-3-3.2c-0.9,0.2-1.7,0.4-2.6,0.6c0,1.3,0,2.7,0,4c-0.5,0.1-1.1,0.2-1.6,0.3c0-3.2,0-6.4,0-9.6c1-0.2,2.4-0.5,4.4-1
	c2.6-0.7,3.9-0.2,3.9,1.6C284.8,85.6,283.5,86.7,282.4,87.3z M283,84.4c0-1.1-0.6-1.1-2.1-0.6c-0.9,0.2-1.8,0.5-2.7,0.7
	c0,0.8,0,1.6,0,2.5c0.9-0.2,1.8-0.4,2.6-0.6C282.4,85.9,283,84.9,283,84.4z M288.9,89.3V79.2c-0.5,0.2-1,0.4-1.5,0.6v10
	C287.8,89.7,288.3,89.5,288.9,89.3z M320,3.9V1.7h-1.7C318.4,2.9,319.1,3.6,320,3.9z M273.7,85.4c0-0.5,0-1.1,0-1.6
	c-2.4,0.4-5,0.7-7.8,0.9c0,3.1,0,6.3,0,9.4c2.9-0.1,5.6-0.4,8.1-0.8c0-0.5,0-1,0-1.5c-2.2,0.3-4.3,0.5-6.5,0.6c0-0.8,0-1.5,0-2.3
	c1.8-0.1,3.5-0.3,5.3-0.6c0-0.5,0-1,0-1.6c-1.8,0.3-3.5,0.5-5.3,0.6c0-0.8,0-1.6,0-2.4C269.6,86,271.7,85.8,273.7,85.4z M243.1,81
	c0.8,0.3,1.6,0.6,2.4,0.9l3.9,10.9c-0.6-0.1-1.2-0.3-1.9-0.4l-1-2.7c-1.6-0.5-3.2-1.1-4.9-1.8c-0.4,1-0.8,1.8-1,2.3
	c-0.5-0.2-1-0.4-1.5-0.6L243.1,81z M244,82.7c-0.1,0.3-0.9,2.1-1.7,3.8c1.2,0.5,2.4,1,3.6,1.4L244,82.7z M262,94.2c0.3,0,0.6,0,1,0
	v-9.4c-0.3,0-0.6,0-1,0c-0.6,0-1.3,0-1.9-0.1l-3.1,7.7c-0.4-1.1-2.6-6.9-3.2-8.3c-0.9-0.2-1.9-0.3-2.8-0.5l-0.1,9.6
	c0.5,0.1,1.1,0.2,1.6,0.3c0-1.7,0-6.9,0-8c0.4,1.2,2.9,7.1,3.5,8.5c0.6,0.1,1.2,0.1,1.9,0.2c0.5-1.1,3.1-6.9,3.5-8.1
	c0,1.1,0,6.7,0,8.2C261.6,94.1,261.8,94.2,262,94.2z M191.7,29l10.7,41.1h1.6l-10.5-40.5C192.9,29.4,192.3,29.2,191.7,29z
	 M195.3,207.4c0.4,0.7,0.8,1.4,1.2,2.1l4.8-25.6c-0.5-0.1-1-0.2-1.5-0.3L195.3,207.4z M200.4,226.3c0.8,0,1.4,0.4,1.6,1.1h1.7
	c-0.2-1.5-1.5-2.5-3.3-2.5c-2.2,0-3.5,1.5-3.5,3.9s1.3,3.9,3.5,3.9c1.8,0,3.2-0.9,3.4-2.7H202c-0.1,0.9-0.7,1.4-1.7,1.4
	c-1.4,0-1.9-1.2-1.9-2.5C198.5,227.2,199.2,226.3,200.4,226.3z M200,218.5c0.3,1.2,0.6,2.5,0.8,3.7l8.4-37.3c-0.5,0-1.1-0.1-1.6-0.2
	L200,218.5z M144.5,260.3c0.5-0.3,1-0.5,1.6-0.8c-6.9-5.2-11.9-14-13.3-24.4h-1.6C132.6,245.7,137.5,254.8,144.5,260.3z
	 M211.7,226.5v-1.4H206v7.5h5.9v-1.4h-4.3v-1.7h3.5v-1.4h-3.5v-1.6H211.7z M194.6,232.5V225H193v7.5H194.6z M164.6,230.5
	c0.1-1.6-1.1-2-2.5-2.3c-0.8-0.2-1.9-0.5-1.9-1.4c0-0.6,0.7-0.8,1.3-0.8c0.9,0,1.3,0.5,1.3,1.1h1.7c-0.1-1.7-1.3-2.4-3.1-2.4
	c-1.5,0-2.8,0.8-2.8,2.2c-0.1,1.7,1.3,2,2.8,2.5c0.7,0.2,1.6,0.4,1.6,1.2c0,0.6-0.5,1.1-1.3,1.1s-1.4-0.3-1.5-1.2h-1.7
	c0.1,1.7,1.5,2.5,3.3,2.5C163.2,232.9,164.5,232.1,164.6,230.5z M192,181.6l-2.7,18.1c0.5,0.5,0.9,1,1.4,1.4l2.9-19.1
	C193,181.9,192.5,181.8,192,181.6z M160.8,172.4c-0.3,0-0.5,0-0.8,0s-0.5,0-0.8,0v15.2c0.3,0,0.5,0,0.8,0s0.5,0,0.8,0V172.4z
	 M184.1,178.9l-1.7,15.3c0.5,0.3,1,0.7,1.5,1l1.8-15.7C185.1,179.2,184.6,179,184.1,178.9z M167.7,173.2l-0.6,15
	c0.5,0.1,1,0.2,1.6,0.3l0.6-14.9C168.8,173.4,168.2,173.3,167.7,173.2z M205.8,222.6h1.6l9.7-37.2c-0.5,0-1.1,0-1.6,0L205.8,222.6z
	 M159.2,200.9v21.7h1.6v-21.7C159.4,201,160.7,201,159.2,200.9z M225.3,185c-0.6,0.1-1.1,0.1-1.7,0.2l-11.2,37.4h1.6L225.3,185z
	 M176,175.7l-1.1,14.7c0.5,0.2,1,0.4,1.5,0.6l1.1-14.7C177,176.1,176.5,175.9,176,175.7z M149.4,199.6c-4.4,5.1-7.6,13.4-8.6,23h1.6
	c0.8-7.8,3.4-16.9,8.7-22.6C150.5,199.9,150,199.7,149.4,199.6z M179.9,229.7l2,2.9H180l-1.8-2.7h-1.5v2.7h-1.6v-7.5h3.4
	c1.8,0,3.1,0.6,3.1,2.4C181.7,228.5,181.1,229.3,179.9,229.7z M180,227.4c0-0.7-0.5-1-1.5-1h-1.8v2h1.8
	C179.3,228.4,180,228.3,180,227.4z M188.8,235.1h-1.6c-1.4,10.4-6.4,19.3-13.3,24.4c0.6,0.2,1.1,0.5,1.6,0.8
	C182.5,254.8,187.4,245.7,188.8,235.1z M189.4,225.1l-2.3,5.8l0,0l-2.4-5.8H183l3.1,7.5h2l3.1-7.5H189.4z M128.9,225.1h3.4
	c1.8,0,3.1,0.6,3.1,2.4c0,1.1-0.6,1.9-1.7,2.2l2,2.9h-1.9c0,0-1.7-2.6-1.8-2.7h-1.5v2.7h-1.6V225.1z M130.5,228.4h1.8
	c0.8,0,1.5-0.1,1.5-1c0-0.7-0.5-1-1.5-1h-1.8V228.4z M137.8,225.1v7.5h5.7v-1.4h-4.1v-6.1H137.8z M131.2,222.6h1.6
	c1.5-10.3,6.4-19.1,13.2-24.2c-0.6-0.2-1.1-0.5-1.6-0.8C137.6,203.1,132.6,212.1,131.2,222.6z M145.4,232.5V225h2.6
	c2.5,0,4.2,1.2,4.2,3.7s-1.7,3.7-4.2,3.7L145.4,232.5L145.4,232.5z M147,231.1h0.9c1.8,0,2.5-0.7,2.5-2.3s-0.8-2.3-2.5-2.3H147
	V231.1z M172.7,226.5v-1.4H167v7.5h5.9v-1.4h-4.3v-1.7h3.5v-1.4h-3.5v-1.6H172.7z M179.2,235.1h-1.6c-0.8,7.9-3.4,17.1-8.7,22.8
	c0.6,0.1,1.2,0.3,1.7,0.4C175,253.1,178.2,244.8,179.2,235.1z M188.8,222.6c-1.4-10.5-6.4-19.5-13.3-25c-0.5,0.3-1,0.5-1.6,0.8
	c6.8,5.1,11.8,13.9,13.2,24.2H188.8z M168.9,200c5.3,5.7,7.9,14.8,8.7,22.6h1.6c-1-9.6-4.2-17.9-8.6-23
	C170,199.7,169.5,199.9,168.9,200z M164.1,200.8c2.5,6.2,3.6,15.1,3.9,21.8h1.6c-0.5-9-1.9-16.8-3.9-22
	C165.2,200.6,164.6,200.7,164.1,200.8z M169.6,235.1H168c-0.5,9.8-2.1,17.4-4,22.1c0.6,0.1,1.1,0.1,1.6,0.2
	C167.7,252.1,169.2,244.2,169.6,235.1z M160.8,257v-21.9h-1.6V257C160.6,256.9,159.3,256.9,160.8,257z M0,277.2v21.6h0.8v-21.7
	C0,277.2,0.1,277.2,0,277.2z M22.9,301.4l1.6,3.7h1.7l-1.6-3.7H22.9z M1.4,301c-0.5,0-1,0.1-1.4,0.3v3.8h3.7c-0.4-0.3-1-0.4-1.6-0.6
	c-0.8-0.2-1.9-0.5-1.9-1.4c0-0.6,0.7-0.8,1.3-0.8c0.9,0,1.3,0.5,1.3,1.1h1.7C4.4,301.7,3.1,301,1.4,301z M9.5,249.9
	c-0.5-0.1-1.1-0.3-1.6-0.4L9,264.9c0.5,0.1,1.1,0.2,1.6,0.4L9.5,249.9z M5.1,249c-0.5-0.1-1.1-0.1-1.6-0.2L4.1,264
	c0.5,0.1,1.1,0.1,1.6,0.2L5.1,249z M152.3,173.2c-0.5,0.1-1,0.2-1.6,0.4l0.6,14.9c0.5-0.1,1-0.2,1.6-0.3L152.3,173.2z M38.5,298.8
	c-3-18.5-19.1-32.6-38.5-32.6v1.6c18.5,0,33.8,13.4,36.9,31.1h1.6V298.8z M15.5,273.9c-0.5,0.3-1,0.5-1.6,0.8
	c6.8,5.1,11.8,13.9,13.2,24.2h1.6C27.4,288.3,22.4,279.3,15.5,273.9z M0,111.3c0.3,0,0.5,0,0.8,0V96.1c-0.3,0-0.5,0-0.8,0V111.3z
	 M0.8,248.6c-0.3,0-0.5,0-0.8,0v15.2c0.3,0,0.5,0,0.8,0V248.6z M35.3,131.2c0.4,0.7,0.8,1.4,1.2,2.1l4.8-25.6
	c-0.5-0.1-1-0.2-1.5-0.3L35.3,131.2z M21.7,303.7c0,0.5-0.1,1-0.4,1.4h-6.1v-3.7h3.4C20.3,301.4,21.7,302,21.7,303.7z M20,303.7
	c0-0.7-0.5-1-1.5-1h-1.8v2h1.8C19.3,304.7,20,304.6,20,303.7z M6.9,305.1H12v-0.8H8.5v-1.6h4.1v-1.4H6.9L6.9,305.1L6.9,305.1z
	 M8.9,276.3c5.3,5.7,7.9,14.8,8.7,22.6h1.6c-1-9.6-4.2-17.9-8.6-23C10,276,9.5,276.1,8.9,276.3z M4.1,277c2.5,6.2,3.6,15.1,3.9,21.8
	h1.6c-0.5-9-1.9-16.8-3.9-22C5.2,276.9,4.6,277,4.1,277z M123.1,222.6c3-17.6,18.4-31.1,36.9-31.1s33.8,13.4,36.9,31.1h1.6
	c-3-18.5-19.1-32.6-38.5-32.6s-35.4,14.1-38.5,32.6H123.1z M122.5,286.6l-28.3-84.1c-0.2,0.9-0.5,1.7-0.8,2.6l27.9,82.9
	C121.7,287.6,122.1,287.1,122.5,286.6z M117.3,284.2L103,246c-0.4,0.3-0.9,0.7-1.3,1l14,37.3C116.2,284.3,116.8,284.3,117.3,284.2z
	 M144,175.7c-0.5,0.2-1,0.4-1.5,0.6l1.1,14.7c0.5-0.2,1-0.4,1.5-0.6L144,175.7z M128,181.6c-0.5,0.2-1,0.3-1.5,0.4l2.9,19.1
	c0.4-0.5,0.9-1,1.4-1.4L128,181.6z M113.2,284.7l-14.6-35.5c-0.4,0.3-0.9,0.6-1.3,0.9l14.4,35C112.2,285,112.7,284.9,113.2,284.7z
	 M135.9,178.9c-0.5,0.2-1,0.4-1.5,0.6l1.8,15.7c0.5-0.3,1-0.7,1.5-1L135.9,178.9z M50.3,298.8l-11.8-39.2c-0.6-0.1-1.2-0.3-1.8-0.4
	l11.9,39.7h1.7V298.8z M21.7,254.2l3.4,18.2c0.6,0.5,1.3,1,1.9,1.5l-3.6-19C22.9,254.6,22.3,254.4,21.7,254.2z M34,281.7l-5.6-25
	c-0.6-0.2-1.2-0.4-1.8-0.6l5.1,22.6C32.6,279.7,33.3,280.7,34,281.7z M18.7,253c-0.6-0.2-1.1-0.4-1.7-0.6l2.4,16.3
	c0.6,0.3,1.2,0.6,1.7,1L18.7,253z M44.1,298.8l-10.6-40.5c-0.6-0.2-1.2-0.3-1.8-0.5l10.7,41.1h1.7V298.8z M14,251.2
	c-0.5-0.2-1.1-0.4-1.6-0.5l1.8,15.6c0.6,0.2,1.1,0.4,1.7,0.6L14,251.2z M109.5,286l-15.3-34c-0.5,0.3-0.9,0.5-1.4,0.8l15.2,34
	C108.5,286.5,109,286.3,109.5,286z M179.2,82.6h-1.6c-0.8,7.9-3.4,17.1-8.7,22.8c0.6,0.1,1.2,0.3,1.7,0.4
	C175,100.6,178.2,92.3,179.2,82.6z M175.5,45.1c-0.5,0.3-1,0.5-1.6,0.8c6.8,5.1,11.8,13.9,13.2,24.2h1.6
	C187.4,59.6,182.4,50.6,175.5,45.1z M164.1,48.3c2.5,6.2,3.6,15.1,3.9,21.8h1.6c-0.5-9-1.9-16.8-3.9-22
	C165.2,48.1,164.6,48.2,164.1,48.3z M168.9,47.5c5.3,5.7,7.9,14.8,8.7,22.6h1.6c-1-9.6-4.2-17.9-8.6-23
	C170,47.2,169.5,47.4,168.9,47.5z M160.8,104.5V82.6h-1.6v21.9C160.6,104.4,159.3,104.4,160.8,104.5z M211.7,74v-1.4H206v7.5h5.9
	v-1.4h-4.3V77h3.5v-1.4h-3.5V74H211.7z M193,72.6v7.5h1.6v-7.5H193z M217.6,128c0.6,0,1.1,0,1.6,0.1l-11.9-45.5h-1.6L217.6,128z
	 M151.1,257.9c-5.3-5.7-7.9-14.9-8.7-22.8h-1.6c1,9.7,4.2,18.1,8.6,23.3C150,258.2,150.5,258,151.1,257.9z M165.7,104.8
	c2-5.2,3.4-13.1,3.9-22.3H168c-0.5,9.8-2.1,17.4-4,22.1C164.6,104.7,165.2,104.8,165.7,104.8z M172.7,74v-1.4H167v7.5h5.9v-1.4h-4.3
	V77h3.5v-1.4h-3.5V74H172.7z M189.4,72.6l-2.3,5.8l-2.4-5.8H183l3.1,7.5h2l3.1-7.5H189.4z M100.8,128.1c0.5,0,1.1-0.1,1.6-0.1
	l11.9-45.4h-1.6L100.8,128.1z M180,77.2l2,2.9h-2c0,0-1.7-2.6-1.8-2.7h-1.5v2.7h-1.6v-7.5h3.4c1.7,0,3.1,0.6,3.1,2.4
	C181.7,76.1,181.1,76.9,180,77.2z M180,75c0-0.7-0.5-1-1.5-1h-1.8v2h1.8C179.3,76,180,75.8,180,75z M188.8,82.6h-1.6
	c-1.4,10.4-6.4,19.3-13.3,24.4c0.6,0.2,1.1,0.5,1.6,0.8C182.5,102.3,187.4,93.2,188.8,82.6z M118.4,131.7l6.3-33.7
	c-0.4-0.7-0.8-1.4-1.2-2.1l-6.7,35.9C117.5,131.7,117.9,131.7,118.4,131.7z M134.8,127h1.1l1.8-15.7c-0.5-0.3-1-0.7-1.5-1l-1.9,16.8
	C134.4,127,134.6,127,134.8,127z M200,86.9l10.5,46.6c0.7,0.3,1.3,0.6,1.8,0.9l-11.5-51.3C200.6,84.4,200.4,85.7,200,86.9z
	 M143.6,134.6l1.5-19.5c-0.5-0.2-1-0.4-1.5-0.6l-1.5,20.5C142.5,134.8,143.1,134.7,143.6,134.6z M127.2,129.5l3.6-23.8
	c-0.5-0.5-0.9-1-1.4-1.4l-4,26.8C125.9,130.5,126.6,130,127.2,129.5z M159.2,48.4v21.7h1.6V48.4C159.4,48.5,160.7,48.5,159.2,48.4z
	 M109.5,133.5L120,86.9c-0.3-1.2-0.6-2.5-0.8-3.7l-11.5,51.3C108.3,134.1,108.9,133.8,109.5,133.5z M126,76.3c0,2.4-1.4,3.9-3.7,3.9
	c-2.3,0-3.7-1.5-3.7-3.9s1.4-3.9,3.7-3.9C124.6,72.5,126,73.9,126,76.3z M124.6,76.3c0-1.5-0.9-2.5-2.3-2.5c-1.3,0-2.3,1-2.3,2.5
	s0.9,2.5,2.3,2.5C123.6,78.9,124.6,77.9,124.6,76.3z M152.2,133.3l0.6-16.1c-0.5-0.1-1-0.2-1.6-0.3l-0.6,16.6
	C151.2,133.4,151.7,133.4,152.2,133.3z M192.8,129.5c0.6,0.5,1.3,1,1.8,1.5l-4-26.8c-0.4,0.5-0.9,1-1.4,1.4L192.8,129.5z M184.1,127
	h1.1c0.2,0,0.3,0,0.5,0l-1.9-16.8c-0.5,0.3-1,0.7-1.5,1L184.1,127z M195.3,98l6.3,33.7c0.5,0,0.9,0,1.6,0l-6.7-35.9
	C196.1,96.6,195.7,97.3,195.3,98z M167.8,133.3c0.5,0,1.1,0.1,1.6,0.2l-0.6-16.6c-0.5,0.1-1,0.2-1.6,0.3L167.8,133.3z M176.4,134.6
	c0.5,0.1,1.1,0.2,1.6,0.4l-1.5-20.5c-0.5,0.2-1,0.4-1.5,0.6L176.4,134.6z M159.2,117.8V133c0.3,0,0.5,0,0.8,0s0.5,0,0.8,0v-15.2
	c-0.3,0-0.5,0-0.8,0S159.5,117.8,159.2,117.8z M200.4,73.8c0.8,0,1.4,0.4,1.6,1.1h1.7c-0.2-1.5-1.5-2.5-3.3-2.5
	c-2.2,0-3.5,1.5-3.5,3.9s1.3,3.9,3.5,3.9c1.8,0,3.2-0.9,3.4-2.7H202c-0.1,0.9-0.7,1.4-1.7,1.4c-1.4,0-1.9-1.2-1.9-2.5
	C198.5,74.8,199.2,73.8,200.4,73.8z M102.9,185.3l9.7,37.2h1.6l-9.8-37.3C103.9,185.3,103.4,185.3,102.9,185.3z M129.4,280.7
	l-11.9-45.6h-1.6l12.1,46.4C128.5,281.2,128.9,280.9,129.4,280.7z M94.7,185l11.3,37.6h1.6l-11.2-37.5C95.8,185.1,95.3,185,94.7,185
	z M125.7,283.2l-14.4-48.1h-1.6l14.8,49.4C124.9,284,125.3,283.6,125.7,283.2z M133.7,279.5l-5.4-24.1c-0.8-1-1.6-2-2.3-3l6.1,27.3
	C132.6,279.7,133.1,279.6,133.7,279.5z M161.6,79.2c-0.8,0-1.4-0.3-1.5-1.2h-1.7c0.1,1.7,1.5,2.5,3.3,2.5c1.6,0,2.9-0.8,3-2.4
	s-1.1-2-2.5-2.3c-0.8-0.2-1.9-0.5-1.9-1.4c0-0.6,0.7-0.8,1.3-0.8c0.9,0,1.3,0.5,1.3,1.1h1.7c-0.1-1.7-1.3-2.4-3.1-2.4
	c-1.5,0-2.8,0.8-2.8,2.2c-0.1,1.7,1.3,2,2.8,2.5c0.7,0.2,1.6,0.4,1.6,1.2C162.9,78.7,162.4,79.2,161.6,79.2z M139.8,288l-4.9-26.2
	c-0.6-0.5-1.3-1-1.9-1.5l5.3,28.2C138.7,288.3,139.2,288.1,139.8,288z M123.1,224.9c2.3,0,3.7,1.5,3.7,3.9s-1.4,3.9-3.7,3.9
	c-2.3,0-3.7-1.5-3.7-3.9C119.3,226.4,120.8,224.9,123.1,224.9z M123.1,226.3c-1.3,0-2.3,1-2.3,2.5s0.9,2.5,2.3,2.5
	c1.3,0,2.3-1,2.3-2.5S124.4,226.3,123.1,226.3z M154.3,200.6c-2,5.2-3.4,13-3.9,22h1.6c0.5-9.7,2.1-17.2,3.9-21.8
	C155.4,200.7,154.8,200.6,154.3,200.6z M181.1,264.5c-0.6,0.3-1.2,0.7-1.7,1l-3.2,21.6c0.5,0.1,1,0.2,1.5,0.3L181.1,264.5z
	 M114.7,230.9c0-0.1-1.2-5.6-1.3-5.8h-2.3c0,0.2-1.1,5.6-1.1,5.8l0,0c-0.1-0.8-1.5-5-1.8-5.8h-1.6l2.4,7.5h2.1
	c0.1-0.2,1.2-5.9,1.2-5.9l0,0c0,0.1,1.4,5.9,1.4,5.9h2.1l2.1-7.5h-1.6C116.1,225.8,114.8,230.1,114.7,230.9L114.7,230.9z
	 M155.9,257.1c-2.5-6.3-3.6-15.3-3.9-22.1h-1.6c0.4,9.1,1.9,17,3.9,22.3C154.8,257.3,155.4,257.2,155.9,257.1z M110.8,185l8.4,37.3
	c0.2-1.3,0.5-2.5,0.8-3.7l-7.6-33.7C111.9,184.9,111.4,184.9,110.8,185z M118.7,183.9l4.8,25.6c0.4-0.7,0.8-1.4,1.2-2.1l-4.5-23.8
	C119.7,183.7,119.2,183.8,118.7,183.9z M143.8,287l-3.2-21.6c-0.6-0.3-1.2-0.6-1.7-1l3.4,22.9C142.8,287.3,143.3,287.1,143.8,287z
	 M147.7,80.1h-2.6v-7.5h2.6c2.5,0,4.2,1.2,4.2,3.7C151.9,78.9,150.2,80.1,147.7,80.1z M150.2,76.3c0-1.6-0.8-2.3-2.5-2.3h-0.9v4.6
	h0.9C149.4,78.6,150.2,77.9,150.2,76.3z M155.9,104.6c-2.5-6.3-3.6-15.3-3.9-22.1h-1.6c0.4,9.1,1.9,17,3.9,22.3
	C154.8,104.8,155.4,104.7,155.9,104.6z M140.8,70.1h1.6c0.8-7.8,3.4-16.9,8.7-22.6c-0.6-0.1-1.2-0.3-1.7-0.4
	C145,52.2,141.8,60.5,140.8,70.1z M154.3,48.1c-2,5.2-3.4,13-3.9,22h1.6c0.5-9.7,2.1-17.2,3.9-21.8
	C155.4,48.2,154.8,48.1,154.3,48.1z M131.2,70.1h1.6c1.5-10.3,6.4-19.1,13.2-24.2c-0.6-0.2-1.1-0.5-1.6-0.8
	C137.6,50.6,132.6,59.6,131.2,70.1z M121.5,82.6c2.9,18.6,19.1,32.9,38.5,32.9c19.5,0,35.6-14.3,38.5-32.9h-1.6
	c-2.9,17.7-18.4,31.3-36.9,31.3s-34-13.6-36.9-31.3H121.5z M187,260.2c-0.6,0.5-1.2,1-1.9,1.5l-4.9,26.2c0.5,0.1,1,0.3,1.5,0.4
	L187,260.2z M128.4,72.6h3.4c1.8,0,3.1,0.6,3.1,2.4c0,1.1-0.6,1.9-1.7,2.2l2,2.9h-1.9c0,0-1.7-2.6-1.8-2.7H130v2.7h-1.6V72.6z
	 M130,76h1.8c0.8,0,1.5-0.1,1.5-1c0-0.7-0.5-1-1.5-1H130V76z M204.1,235.1h-1.6l-11.9,45.6c0.5,0.2,1,0.5,1.4,0.8L204.1,235.1z
	 M131.2,82.6c1.4,10.6,6.4,19.7,13.3,25.2c0.5-0.3,1-0.5,1.6-0.8c-6.9-5.2-11.9-14-13.3-24.4L131.2,82.6L131.2,82.6z M210.3,235.1
	h-1.6l-14.4,48.1c0.4,0.4,0.9,0.8,1.3,1.2L210.3,235.1z M194,252.5c-0.7,1-1.5,2-2.3,3l-5.4,24.1c0.5,0,1.1,0.1,1.6,0.2L194,252.5z
	 M137.5,72.6v7.5h5.7v-1.4h-4.1v-6.1H137.5z M151.1,105.4c-5.3-5.7-7.9-14.9-8.7-22.8h-1.6c1,9.7,4.2,18.1,8.6,23.3
	C150,105.7,150.5,105.5,151.1,105.4z"/>
</svg>
